<?xml version="1.0" encoding="utf-8"?>
<!-- Generator: Adobe Illustrator 16.0.0, SVG Export Plug-In . SVG Version: 6.00 Build 0)  -->
<!DOCTYPE svg PUBLIC "-//W3C//DTD SVG 1.1//EN" "http://www.w3.org/Graphics/SVG/1.1/DTD/svg11.dtd" [
	<!ENTITY ns_extend "http://ns.adobe.com/Extensibility/1.0/">
	<!ENTITY ns_ai "http://ns.adobe.com/AdobeIllustrator/10.0/">
	<!ENTITY ns_graphs "http://ns.adobe.com/Graphs/1.0/">
	<!ENTITY ns_vars "http://ns.adobe.com/Variables/1.0/">
	<!ENTITY ns_imrep "http://ns.adobe.com/ImageReplacement/1.0/">
	<!ENTITY ns_sfw "http://ns.adobe.com/SaveForWeb/1.0/">
	<!ENTITY ns_custom "http://ns.adobe.com/GenericCustomNamespace/1.0/">
	<!ENTITY ns_adobe_xpath "http://ns.adobe.com/XPath/1.0/">
]>
<svg version="1.1" id="Layer_1" xmlns:x="&ns_extend;" xmlns:i="&ns_ai;" xmlns:graph="&ns_graphs;"
	 xmlns="http://www.w3.org/2000/svg" xmlns:xlink="http://www.w3.org/1999/xlink" x="0px" y="0px" width="600px" height="400px"
	 viewBox="0 0 600 400" enable-background="new 0 0 600 400" xml:space="preserve">
<metadata>
	<sfw  xmlns="&ns_sfw;">
		<slices></slices>
		<sliceSourceBounds  width="244.378" height="144.738" x="177.688" y="-272.852" bottomLeftOrigin="true"></sliceSourceBounds>
	</sfw>
</metadata>
<g>
	<path id="BLANCO_1_" fill="#FFFFFF" stroke="#231F20" stroke-width="2" stroke-miterlimit="10" d="M196.062,132.125l25.199,45.46
		l0.449,7.145l29.542-0.429l14.467-0.394l2.494-0.849l-0.607-32.942l6.045-3.032l4.43,1.472l16.043,11.726l22.221,18.533
		l6.922,3.996l23.488-1.11l26.003-0.727l20.287,8.349l12.407,8.215c0,0,10.958,10.191,11.674,11.282s3.066,5.011,3.049,6.12
		c-0.019,1.107-1.94,9.11-2.293,10.629c-0.352,1.518-1.311,9.571-2.424,9.583c-1.114,0.011-5.682,4.354-6.132,4.751
		c-0.45,0.393-6.315,0.925-6.865,1.288c-0.547,0.364-4.561,3.469-5.606,4.001c-1.044,0.536-11.292,5.357-13.163,6.583
		c-1.868,1.224-8.831,1.701-11.245,2.453c-2.414,0.744-5.058,0.461-5.058,0.461s0.525,7.951,0.306,9.792
		c-0.22,1.842-0.923,3.527-1.564,3.885c-0.642,0.358-2.357,1.357-2.938,1.362c-0.584,0.007-6.063,0-6.063,0l-5.345-2.408
		l-5.051-1.893l-5.653-2.575l-5.485-3.661l-4.844-3.913l-9.173-1.356l-19.606-1.576l-20.115-0.104l-22.487-1.015l-18.905-1.538
		l-21.12-1.922l-14.47-0.636l-9.156-0.235l-7.897-1.755l-2.538-3.062l-1.137-7.233l0.704-10.023l-2.064-18.844l-3.117-10.64
		L179.375,188l1.583-8.458l2.031-7.54l1.312-9.451l2.481-11.068l2.19-13.55l1.715-6.121"/>
	<g>
		<path fill-rule="evenodd" clip-rule="evenodd" stroke="#231F20" stroke-width="2" stroke-miterlimit="10" d="M279.366,215.509
			c-0.339-0.146-0.769-0.081-1.156-0.112c0.169,0.391,0.239,0.893,0.528,1.152c2.334,2.097,4.689,4.169,7.082,6.199
			c0.778,0.66,1.089,1.216-0.16,2.139c-1.844-1.039-3.818-2.166-5.809-3.262c-0.457-0.252-0.961-0.514-1.465-0.566
			c-2.278-0.245-2.848-0.802-3.48-3.027c-1.239-4.373-2.575-8.719-3.917-13.225c-0.939,0.271-1.661,0.48-2.384,0.686
			c-3.142,0.896-5.871,0.242-8.107-2.193c-1.356-1.477-1.285-2.556,0.352-3.688c1.399-0.969,2.895-1.795,4.333-2.711
			c1.89-1.202,2.871-2.806,2.328-5.142c-0.258-1.121-0.368-2.278-0.535-3.419c-0.25-1.718-1.243-2.419-2.963-2.381
			c-5.829,0.129-11.66,0.186-17.49,0.298c-6.655,0.129-13.31,0.266-19.964,0.449c-1.255,0.032-2.503,0.336-3.761,0.422
			c-0.917,0.063-1.857,0.06-2.765-0.074c-0.961-0.141-1.472-0.804-1.175-1.792c1.024-3.405-0.281-6.262-1.817-9.21
			c-7.722-14.815-13.704-26.877-21.376-41.718c-0.333-1.375-0.562-2.125-2.854-1.958c-1.958,0.25-2.244,1.722-2.581,4.42
			c-0.185,1.484-0.054,3.006-0.074,4.511c-0.009,0.659,0.078,1.349-0.083,1.972c-0.908,3.499-2.049,6.947-2.783,10.48
			c-0.757,3.639-1.361,7.34-1.62,11.043c-0.278,4.002-0.626,7.896-2.986,11.311c-0.124,0.179-0.718,3.118-0.748,3.325
			c-0.773,5.506-1.271,7.396-0.688,13.646c0.098,1.053,0.485,4.564,1.083,5.417c1.579,2.251,1.018,2.453,1.227,5.117
			c0.473,6.03,0.847,12.07,1.41,18.093c0.124,1.306,0.933,2.532,1.32,3.826c0.314,1.048,0.613,2.139,0.644,3.218
			c0.022,0.785-0.378,1.592-0.628,2.375c-0.488,1.533-0.477,2.83,0.587,4.307c0.996,1.376,1.461,3.177,1.981,4.846
			c0.726,2.33,2.234,3.73,4.551,4.303c1.278,0.315,2.575,0.555,3.861,0.842c2.726,0.608,5.47,1.15,8.171,1.854
			c4.352,1.134,8.633,1.521,12.922-0.324c0.64-0.275,1.657-0.117,2.33,0.202c2.863,1.351,5.745,1.693,8.817,0.805
			c0.968-0.279,2.054-0.146,3.218-0.207c0.059-0.721,0.118-1.462,0.202-2.501c0.634,0.377,1.13,0.645,1.597,0.957
			c2.056,1.373,4.297,2.412,6.783,2.197c3.548-0.307,6.888,0.439,10.21,1.46c1.528,0.469,2.962,0.478,4.481-0.171
			c0.633-0.271,1.531-0.028,2.284,0.112c0.918,0.172,1.811,0.484,2.714,0.735c0.145-0.167,0.29-0.332,0.435-0.498
			c-0.325-0.663-0.511-1.459-0.997-1.964c-1.834-1.899-3.769-3.7-5.66-5.544c-0.334-0.325-0.641-0.679-0.961-1.02
			c0.105-0.177,0.211-0.354,0.317-0.533c0.766,0.407,1.644,0.688,2.281,1.244c2.154,1.88,4.253,3.825,6.318,5.806
			c2.07,1.983,4.313,2.873,7.318,2.467c1.781-0.24,3.716,0.606,5.558,1.067c0.111,0.028,0.145,1.354-0.044,1.431
			c-0.84,0.337-1.788,0.645-2.676,0.595c-9.716-0.536-19.429-1.14-29.141-1.732c-8.343-0.508-16.678-1.154-25.026-1.505
			c-9.672-0.406-19.349-0.624-28.925-2.245c-3.066-0.519-5.09-2.26-6.231-5.038c-0.938-2.285-1.762-4.623-2.528-6.972
			c-0.446-1.371-0.295-2.771,0.755-3.862c1.009-1.046,1.273-2.238,1.134-3.631c-1.169-11.816-3.981-30.249-3.505-32.643
			c0.301-1.516-0.105-4.265-0.188-4.406c0-1.982-0.562-2.644-0.562-4.625c0.877-4.066,1.135-8.087,1.885-12.176
			c2.712-14.751,5.123-27.146,7.886-41.887c0.555-2.959-0.062-3.333,4.229-3.75c5.292-0.25,5.261,3.698,6.146,5.167
			c3.211,5.85-0.191-0.731,2.953,5.156c7.064,13.23,14.062,26.497,21.107,39.738c0.513,0.964,1.126,1.901,1.829,2.735
			c1.176,1.394,2.645,2.268,4.571,2.241c11.328-0.164,22.655-0.293,33.982-0.465c2.613-0.041,2.943-0.529,2.398-3.132
			c-1.438-6.856-2.452-13.757-1.817-20.786c0.197-2.183,0.476-4.388,1.026-6.503c1.643-6.317,8.968-9.065,14.145-5.109
			c10.271,7.846,20.376,15.909,30.53,23.906c3.283,2.585,6.527,5.225,9.756,7.88c1.789,1.472,3.814,2.122,6.104,2.053
			c14.509-0.438,29.018-0.846,43.523-1.328c3.554-0.118,6.601,1.476,9.819,2.526c3.182,1.036,6.408,1.943,9.539,3.117
			c1.651,0.618,3.163,1.636,4.688,2.559c1.028,0.621,1.894,1.532,2.954,2.074c6.337,3.229,12.015,7.2,16.241,13.091
			c1.492,2.079,3.61,3.697,5.283,5.663c1.327,1.559,2.409,3.326,3.601,5c0,0.883,0,1.763,0,2.643
			c-0.552,2.229-1.27,4.432-1.623,6.691c-0.996,6.366-3.067,12.249-7.336,17.183c-0.487,0.566-1.526,1.171-2.14,1.027
			c-3.775-0.886-6.544,1.63-9.829,2.329c0.03,0.27,0.06,0.539,0.088,0.809c0.536,0,1.114,0.129,1.601-0.025
			c1.221-0.39,2.376-1.165,3.696-0.38c0.136,1.566-0.888,2.071-2.038,2.448c-9.91,3.26-19.807,6.564-30.108,8.443
			c-4.803,0.875-5.019,1.271-4.274,6.082c0.682,4.398-1.258,8.357-4.85,9.895c-1.32,0-2.642,0-3.963,0
			c-5.206-1.68-10.468-3.205-15.595-5.098c-2.96-1.093-5.979-2.402-8.482-4.269c-5.737-4.281-12.06-6.389-19.141-6.658
			c-8.791-0.337-17.574-0.882-26.367-1.16c-4.036-0.129-8.021-0.345-11.876-1.625c-0.497-0.165-0.925-0.539-1.274-1.093
			c13.559-0.701,26.975-0.533,40.409,1.363c0-1.086,0-2.392,0-4.052c1.985,1.009,3.811,1.811,5.51,2.827
			c2.529,1.513,4.88,1.496,7.441-0.023c0.989-0.584,2.41-0.623,3.629-0.608c6.869,0.087,13.747,0.117,20.605,0.473
			c3.77,0.195,7.497,1.113,11.266,1.482c4.554,0.448,9.015-0.169,13.229-2.029c3.902-1.723,8.013-2.836,11.838-4.892
			c3.712-1.996,7.175-4.206,10.47-6.781c0.545-0.425,1.553-0.52,2.284-0.396c4.353,0.735,8.417-1.777,9.749-5.963
			c1.364-4.287,2.803-8.555,4.356-12.777c1.701-4.616,1.265-6.617-2.618-9.951c-0.729,0.451-1.5,0.927-2.342,1.447
			c-0.137-0.271-0.258-0.447-0.318-0.639c-2.711-8.843-9.364-13.967-17.108-17.998c-3.018-1.571-6.138-2.964-9.284-4.259
			c-2.886-1.188-5.884-2.097-8.805-3.202c-1.777-0.675-3.449-1.673-5.265-2.185c-1.697-0.478-3.524-0.719-5.287-0.695
			c-10.891,0.15-21.777,0.414-32.667,0.616c-2.63,0.049-5.263,0.007-7.895,0.007c-0.081,0.177-0.163,0.354-0.243,0.532
			c0.409,0.66,0.741,1.386,1.24,1.969c3.009,3.519,6.594,6.306,10.84,8.18c1.748,0.771,3.142,1.811,4.373,3.336
			c0.952,1.18,2.454,2.043,3.874,2.696c5.029,2.311,8.299,6.61,12.021,10.395c0.311,0.315,0.419,1.373,0.192,1.558
			c-0.42,0.34-1.247,0.532-1.744,0.351c-0.964-0.352-1.85-0.959-2.71-1.546c-4.636-3.159-9.32-6.255-13.852-9.56
			c-2.697-1.968-5.478-3.998-7.612-6.516c-2.294-2.708-5.227-4.461-7.871-6.637c-7.647-6.29-15.316-12.553-23.018-18.776
			c-6.419-5.189-12.877-10.331-19.365-15.435c-1.239-0.974-2.689-1.681-4.049-2.5c-0.889-0.533-1.84-0.973-2.671-1.581
			c-1.559-1.142-3.096-1.219-4.763-0.258c-2.562,1.479-4.118,3.714-3.868,6.614c0.645,7.477,0.013,15.066,2.224,22.42
			c0.991,3.295,1.308,6.791,1.991,10.183c0.229,1.124,0.631,2.215,0.978,3.314c0.635,2.004,1.916,3.735,1.999,6.003
			 M335.957,257.275c0.016,0.157,0.032,0.316,0.048,0.474c1.649,1.594,3.212,3.293,4.983,4.736c0.832,0.677,2.047,0.926,3.123,1.255
			c1.292,0.396,2.663,0.556,3.926,1.019c3.135,1.152,6.154,2.706,9.365,3.542c2.135,0.557,4.531,0.278,6.788,0.097
			c0.551-0.044,1.433-1.171,1.443-1.811c0.041-2.46-0.183-4.926-0.366-7.386c-0.102-1.333-0.782-1.826-2.142-1.347
			c-0.707,0.249-1.508,0.403-2.25,0.352c-4.712-0.33-9.413-0.859-14.131-1.063C343.158,256.988,339.553,257.218,335.957,257.275z"/>
	</g>
	<path fill-rule="evenodd" clip-rule="evenodd" stroke="#231F20" stroke-width="2" stroke-miterlimit="10" d="M355.142,191.674
		c2.066,0.485,4.18,0.829,6.195,1.483c2.431,0.792,3.008,3.031,1.323,4.952c-1.884,2.141-4.364,2.272-6.883,1.486
		c-2.507-0.784-3.579-2.965-3.857-5.283C351.678,192.307,353.295,191.992,355.142,191.674z"/>
	<path fill-rule="evenodd" clip-rule="evenodd" stroke="#231F20" stroke-width="2" stroke-miterlimit="10" d="M249.921,205.705
		c-2.548-0.943-4.518-1.484-6.29-2.398c-1.384-0.713-1.664-1.955-0.222-3.092c0.289-0.229,0.652-0.377,0.902-0.64
		c3.309-3.519,4.088-3.629,7.616-0.942c1.281,0.98,3.383,1.918,2.176,3.828C253.204,203.89,251.298,204.689,249.921,205.705z
		 M246.966,200.386c-0.02,0.47-0.043,0.942-0.066,1.408c1.252,0.101,2.502,0.225,3.752,0.225c0.063,0,0.126-1.064,0.191-1.633
		C249.55,200.386,248.26,200.386,246.966,200.386z"/>
	<path fill-rule="evenodd" clip-rule="evenodd" stroke="#231F20" stroke-width="2" stroke-miterlimit="10" d="M228.616,198.542
		c2.334-1.708,4-0.636,5.306,0.543c0.712,0.646,1.35,2.437,0.965,3.023c-0.925,1.419-2.617,3.531-3.737,3.385
		c-2.177-0.285-4.357-1.697-6.178-3.105c-1.123-0.865-1.068-2.481,0.364-3.308c1.316,1.308,2.384,2.711,3.779,3.607
		c0.617,0.399,1.894-0.225,2.868-0.386c-0.545-0.875-1.035-1.79-1.661-2.604C230.021,199.301,229.467,199.099,228.616,198.542z"/>
</g>
</svg>
