<?xml version="1.0" encoding="utf-8"?>
<!-- Generator: Adobe Illustrator 16.0.0, SVG Export Plug-In . SVG Version: 6.00 Build 0)  -->
<!DOCTYPE svg PUBLIC "-//W3C//DTD SVG 1.1//EN" "http://www.w3.org/Graphics/SVG/1.1/DTD/svg11.dtd" [
	<!ENTITY ns_extend "http://ns.adobe.com/Extensibility/1.0/">
	<!ENTITY ns_ai "http://ns.adobe.com/AdobeIllustrator/10.0/">
	<!ENTITY ns_graphs "http://ns.adobe.com/Graphs/1.0/">
	<!ENTITY ns_vars "http://ns.adobe.com/Variables/1.0/">
	<!ENTITY ns_imrep "http://ns.adobe.com/ImageReplacement/1.0/">
	<!ENTITY ns_sfw "http://ns.adobe.com/SaveForWeb/1.0/">
	<!ENTITY ns_custom "http://ns.adobe.com/GenericCustomNamespace/1.0/">
	<!ENTITY ns_adobe_xpath "http://ns.adobe.com/XPath/1.0/">
]>
<svg version="1.1" id="Capa_1" xmlns:x="&ns_extend;" xmlns:i="&ns_ai;" xmlns:graph="&ns_graphs;"
	 xmlns="http://www.w3.org/2000/svg" xmlns:xlink="http://www.w3.org/1999/xlink" x="0px" y="0px" width="565.919px"
	 height="163.864px" viewBox="0 0 565.919 163.864" enable-background="new 0 0 565.919 163.864" xml:space="preserve">
<metadata>
	<sfw  xmlns="&ns_sfw;">
		<slices></slices>
		<sliceSourceBounds  height="155.943" width="558.799" x="2.941" y="435.404" bottomLeftOrigin="true"></sliceSourceBounds>
	</sfw>
</metadata>
<g>
	<g>
		<path fill="#FBFBFB" d="M111.179,99.969c-4.606,13.337-16.185,22.371-30.363,22.42c-19.03,0.052-38.968-14.935-39.042-35.181
			c-0.072-21.287,18.907-36.911,39.323-36.967c19.02-0.073,27.388,12.022,27.4,18.774c0.024,7.247-5.146,11.95-12.071,11.974
			c-6.58,0.024-11.432-5.344-11.458-11.906c0-2.42,1.545-5.735,2.904-6.751c1.044-0.693,2.245-2.097,2.256-3.823
			c-0.012-3.473-6.433-3.787-9.189-3.763c-7.598,0.024-12.794,2.105-12.744,18.54l0.084,22.339
			c0.048,17.786,2.315,22.279,13.37,22.259c13.503-0.049,20.585-7.856,25.733-20.004L111.179,99.969z"/>
		<path fill="#FBFBFB" d="M164.655,94.403c0,3.303-0.172,6.424-1.212,9.026c-2.06,5.545-6.534,10.204-12.573,10.24
			c-8.148,0.004-11.274-5.679-11.311-13.285c-0.036-14.011,14.325-15.451,25.047-15.487L164.655,94.403z M170.438,17.089
			c2.059-1.416,5.173-4.368,5.16-6.441c-0.012-3.46-3.48-6.739-6.937-6.715c-3.812,0.016-7.768,4.69-10.696,7.643l-21.899,22.908
			l8.481-0.024L170.438,17.089z M164.606,81.263c-15.586-0.786-43.256,3.614-43.196,24.183c0.05,11.103,7.671,16.773,18.064,16.737
			c9.667-0.028,19.018-4.739,25.219-12.373c1.053,7.61,5.917,12.276,13.515,12.264c7.266-0.024,11.912-3.694,16.406-9.244
			l-2.081-2.42c-1.373,1.392-3.958,3.993-6.041,3.993c-2.071,0.012-4.154-1.016-4.154-3.271l-0.159-46.013
			c-0.024-5.348-1.581-8.115-6.435-10.526c-6.764-3.436-14.715-4.618-22.166-4.594c-10.526,0.036-27.485,4.759-27.437,17.903
			c0.024,5.549,4.167,8.13,9.02,8.106c3.982-0.016,8.282-3.166,8.271-7.619c0-3.315-1.396-6.941-2.439-8.32
			c-2.609-3.283,5.527-6.586,12.071-6.61c2.964,0,11.455,1.706,11.468,6.17L164.606,81.263z"/>
		<path fill="#FBFBFB" d="M228.901,66.688l0.346,0.012c4.299-10.39,12.228-16.979,23.992-17.04c9.521-0.008,16.8,5.122,19.96,14.313
			c4.988-8.485,12.39-14.406,22.426-14.43c22.655-0.077,20.818,13.946,20.856,31.756l0.109,33.386l11.066-0.037l0.012,4.332
			l-38.576,0.129l-0.012-4.331l9.165-0.037l-0.135-46.19c-0.013-4.84,0.809-12.805-7.328-12.777
			c-12.965,0.036-18.123,15.116-18.072,25.667l0.108,33.37l9.522-0.021l0.012,4.332l-36.836,0.121l-0.023-4.335l8.981-0.012
			l-0.136-41.347c-0.036-7.989,2.023-17.668-8.344-17.632c-8.479,0.036-17.095,13.208-17.044,26.021l0.109,33.035l9.51-0.036
			l0.023,4.319l-39.114,0.141v-4.332l11.224-0.048l-0.183-59.867l-11.937,0.048l-0.01-4.332c8.809,0.339,19.373-0.391,30.278-0.778
			L228.901,66.688z"/>
		<path fill="#FBFBFB" d="M378.805,93.713c0,3.303-0.149,6.388-1.178,9.018c-2.059,5.537-6.529,10.2-12.6,10.24
			c-8.135,0.012-11.26-5.674-11.284-13.297c-0.036-13.999,14.301-15.447,25.037-15.471L378.805,93.713z M378.767,80.558
			c-15.562-0.778-43.245,3.625-43.17,24.178c0.023,11.107,7.658,16.793,18.038,16.757c9.703-0.032,19.042-4.751,25.23-12.39
			c1.04,7.603,5.904,12.297,13.526,12.272c7.28-0.036,11.924-3.694,16.409-9.228l-2.083-2.42c-1.371,1.379-3.969,3.957-6.042,3.969
			c-2.083,0.016-4.154-1.004-4.154-3.263l-0.145-46.009c-0.024-5.372-1.607-8.115-6.449-10.526
			c-6.764-3.448-14.717-4.618-22.189-4.605c-10.526,0.044-27.474,4.759-27.425,17.915c0.012,5.545,4.166,8.119,9.029,8.106
			c3.985-0.024,8.286-3.149,8.286-7.646c-0.026-3.271-1.422-6.925-2.477-8.316c-2.583-3.263,5.54-6.558,12.096-6.586
			c2.966-0.012,11.432,1.706,11.443,6.159L378.767,80.558z"/>
		<path fill="#FBFBFB" d="M445.169,68.587c5.501-9.534,11.519-19.568,24.142-19.617c6.764-0.028,13.857,3.424,13.894,11.2
			c0.013,6.739-4.668,9.695-10.881,9.72c-4.142,0.016-8.308-3.63-8.332-7.933c0-0.706,0.186-1.734,0.343-2.605
			c0.516-2.763,0.674-3.799-1.227-3.799c-3.282,0.016-5.021,1.742-7.239,3.997c-6.558,6.606-10.675,15.971-10.599,38.613
			l0.036,16.108l15.586-0.064l0.014,4.348l-44.484,0.125v-4.332l10.208-0.036l-0.193-59.839l-11.422,0.008l-0.013-4.312
			c8.982,0.339,19.532-0.403,30.095-0.782L445.169,68.587z"/>
		<path fill="#FBFBFB" d="M531.755,93.229c0.012,3.271-0.17,6.388-1.2,9.006c-2.047,5.537-6.531,10.188-12.598,10.228
			c-8.11,0.024-11.248-5.674-11.272-13.285c-0.036-13.999,14.285-15.435,25.021-15.471L531.755,93.229z M531.694,80.069
			c-15.552-0.798-43.243,3.626-43.17,24.17c0.036,11.107,7.671,16.793,18.06,16.757c9.695-0.036,18.996-4.763,25.207-12.39
			c1.066,7.614,5.908,12.285,13.53,12.261c7.264-0.037,11.922-3.694,16.419-9.228l-2.083-2.432
			c-1.386,1.396-3.995,3.993-6.052,4.005c-2.073,0-4.166-1.017-4.144-3.275l-0.172-46.021c-0.024-5.348-1.568-8.106-6.433-10.526
			c-6.764-3.444-14.717-4.618-22.153-4.581c-10.562,0.032-27.5,4.755-27.449,17.891c0.012,5.545,4.166,8.11,9.018,8.11
			c3.983-0.016,8.297-3.146,8.272-7.639c0-3.279-1.399-6.905-2.452-8.316c-2.585-3.279,5.527-6.565,12.107-6.598
			c2.915,0,11.421,1.698,11.421,6.183L531.694,80.069z"/>
		<path fill="#FBFBFB" d="M106.081,17.428l-0.783-0.375c-8.272-3.396-17.683-5.166-27.203-5.138
			C35.819,12.048,2.808,44.974,2.941,86.881c0.135,40.387,33.428,73.12,74.172,72.995c9.387-0.017,19.522-2.105,28.552-5.796
			l0.883-0.318l0.012-1.028l-0.074-18.689l-0.048-2.638l-2.267,1.379c-8.762,5.255-18.579,8.159-27.657,8.195
			c-29.264,0.093-53.158-24.456-53.257-54.724C23.173,55.774,47.055,30.915,76.515,30.81c10.083-0.032,18.771,2.223,27.374,7.086
			l2.243,1.287L106.081,17.428z"/>
	</g>
</g>
</svg>
