<?xml version="1.0" encoding="utf-8"?>
<!-- Generator: Adobe Illustrator 16.0.0, SVG Export Plug-In . SVG Version: 6.00 Build 0)  -->
<!DOCTYPE svg PUBLIC "-//W3C//DTD SVG 1.1//EN" "http://www.w3.org/Graphics/SVG/1.1/DTD/svg11.dtd" [
	<!ENTITY ns_extend "http://ns.adobe.com/Extensibility/1.0/">
	<!ENTITY ns_ai "http://ns.adobe.com/AdobeIllustrator/10.0/">
	<!ENTITY ns_graphs "http://ns.adobe.com/Graphs/1.0/">
	<!ENTITY ns_vars "http://ns.adobe.com/Variables/1.0/">
	<!ENTITY ns_imrep "http://ns.adobe.com/ImageReplacement/1.0/">
	<!ENTITY ns_sfw "http://ns.adobe.com/SaveForWeb/1.0/">
	<!ENTITY ns_custom "http://ns.adobe.com/GenericCustomNamespace/1.0/">
	<!ENTITY ns_adobe_xpath "http://ns.adobe.com/XPath/1.0/">
]>
<svg version="1.1" id="Capa_1" xmlns:x="&ns_extend;" xmlns:i="&ns_ai;" xmlns:graph="&ns_graphs;"
	 xmlns="http://www.w3.org/2000/svg" xmlns:xlink="http://www.w3.org/1999/xlink" x="0px" y="0px" width="341.666px"
	 height="140.667px" viewBox="20.676 15.034 341.666 140.667" enable-background="new 20.676 15.034 341.666 140.667"
	 xml:space="preserve">
<metadata>
	<sfw  xmlns="&ns_sfw;">
		<slices></slices>
		<sliceSourceBounds  height="135.446" width="336.421" x="80.719" y="235.019" bottomLeftOrigin="true"></sliceSourceBounds>
		<optimizationSettings>
			<targetSettings  fileFormat="PNG24Format" targetSettingsID="0">
				<PNG24Format  transparency="false" matteColor="#FFFFFF" filtered="false" noMatteColor="false" interlaced="false">
					</PNG24Format>
			</targetSettings>
		</optimizationSettings>
	</sfw>
</metadata>
<g>
	<g>
		<path fill="#FFFFFF" d="M56.121,64.311c4.512,0,9.026,1.657,12.44,4.694c0.646,0.647,1.66,0.647,2.302,0l7.191-7.457
			c0.735-0.74,0.735-1.846-0.095-2.588c-6.267-5.708-13.085-8.566-22.299-8.566c-18.431,0-33.265,14.833-33.265,33.265
			s14.833,33.086,33.265,33.086c8.203,0,16.129-2.86,22.394-8.941c0.642-0.644,0.735-1.841,0.09-2.49l-7.188-7.642
			c-0.55-0.649-1.748-0.649-2.395-0.101c-3.32,2.864-8.02,4.429-12.348,4.429c-10.415,0-18.157-8.477-18.157-18.704
			C38.057,72.969,45.707,64.311,56.121,64.311z"/>
		<path fill="#FFFFFF" d="M190.757,51.313h-11.336c-1.018,0-1.755,0.825-1.755,1.755v37.319c0,6.448-4.882,11.609-11.515,11.609
			c-6.544,0-11.336-5.161-11.336-11.609V53.069c0-0.93-0.744-1.755-1.752-1.755h-11.334c-0.924,0-1.753,0.825-1.753,1.755v38.057
			c0,14.007,11.705,25.618,26.176,25.618c14.556,0,26.354-11.611,26.354-25.618V53.069
			C192.505,52.139,191.679,51.313,190.757,51.313z"/>
		<path fill="#FFFFFF" d="M215.226,51.313h-11.064c-0.924,0-1.75,0.825-1.75,1.755v61.003c0,0.921,0.826,1.75,1.75,1.75h11.064
			c0.92,0,1.748-0.829,1.748-1.75V53.069C216.974,52.139,216.146,51.313,215.226,51.313z"/>
		<path fill="#FFFFFF" d="M263.286,102.274h-21.932V53.069c0-0.93-0.831-1.755-1.749-1.755h-10.973
			c-1.012,0-1.746,0.825-1.746,1.755v61.004c0,0.92,0.733,1.75,1.746,1.75h34.654c1.014,0,1.756-0.83,1.756-1.75v-10.05
			C265.042,103.104,264.299,102.274,263.286,102.274z"/>
		<path fill="#FFFFFF" d="M358.629,113.439l-28.844-62.021c-0.279-0.549-0.918-1.014-1.562-1.014h-0.926
			c-0.648,0-1.291,0.465-1.568,1.014l-23.652,50.871h-18.139V53.047c0-0.921-0.831-1.756-1.752-1.756h-10.973
			c-1.012,0-1.756,0.835-1.756,1.756v61.032c0,0.921,0.744,1.756,1.756,1.756h27.203c0.014,0,0.027,0,0.041,0h10.135
			c1.84,0,2.859-1.107,3.314-2.214l3.32-7.373h25.064l3.314,7.279c0.836,1.75,1.566,2.308,3.223,2.308h10.229
			C358.452,115.836,359.186,114.637,358.629,113.439z M320.752,93.719l6.916-15.207h0.086l7.006,15.207H320.752z"/>
		<path fill="#FFFFFF" d="M134.45,71.22c0-10.97-9.033-19.906-20.089-19.906H86.802c-1.013,0-1.749,0.825-1.749,1.755v61.004
			c0,0.92,0.736,1.75,1.749,1.75h10.965c0.925,0,1.753-0.83,1.753-1.75V98.827v-8.254V78.871v-7.931V64.49h13.644
			c3.775,0,6.998,3.134,6.998,7.009c0,3.85-3.19,7.335-6.944,7.368h-5.576c-1.015,0-1.751,0.823-1.751,1.751v7.736l0,0v2.241
			l12.245,24.398c0.181,0.368,0.737,0.83,1.476,0.83h12.254c1.567,0,2.213-1.473,1.567-2.678l-12.619-23.403
			C128.825,86.512,134.45,79.698,134.45,71.22z"/>
		<g>
			<path fill="#FFFFFF" d="M206.36,37.802c0.446-0.451,0.491-1.209,0.041-1.653l-6.558-6.557l6.558-6.56
				c0.45-0.444,0.405-1.204-0.041-1.648l-3.126-3.125c-0.446-0.445-1.201-0.487-1.643-0.046l-6.564,6.558l-6.51-6.512
				c-0.448-0.445-1.251-0.445-1.693,0l-3.125,3.125c-0.442,0.444-0.442,1.247,0,1.693l6.511,6.515l-6.511,6.514
				c-0.442,0.443-0.402,1.206,0.046,1.651l3.125,3.12c0.443,0.45,1.199,0.49,1.647,0.047l6.51-6.519l6.564,6.558
				c0.442,0.451,1.197,0.404,1.643-0.039L206.36,37.802z"/>
			<path fill="#FFFFFF" d="M232.499,40.891l3.127-3.124c0.443-0.449,0.483-1.204,0.048-1.647l-6.516-6.52l6.554-6.555
				c0.451-0.449,0.397-1.205-0.038-1.647l-3.129-3.125c-0.443-0.444-1.206-0.487-1.65-0.047l-6.554,6.56l-6.559-6.56
				c-0.443-0.44-1.205-0.397-1.655,0.047l-3.119,3.125c-0.44,0.443-0.491,1.199-0.043,1.647l6.555,6.555l-6.512,6.52
				c-0.446,0.443-0.44,1.243,0,1.69l3.119,3.127c0.451,0.438,1.252,0.438,1.702,0l6.512-6.519l6.508,6.519
				C231.292,41.375,232.061,41.335,232.499,40.891z"/>
		</g>
	</g>
	<g>
		<path fill="#FFFFFF" d="M25.418,128.278h5.208c4.611,0,6.321,3.037,6.321,6.281v0.91c0,2.653-0.875,3.627-2.45,4.603
			c1.681,0.804,2.45,2.312,2.45,4.899v1.389c0,4.337-2.063,6.783-6.679,6.783h-4.85V128.278z M28.978,138.467h1.612
			c2.372,0,3.007-1.217,3.007-3.491c0-2.199-0.811-3.352-3.146-3.352h-1.474L28.978,138.467L28.978,138.467z M28.978,149.576h1.543
			c2.865,0,3.076-1.74,3.076-4.19c0-2.478-0.459-3.775-3.047-3.775h-1.572V149.576z"/>
		<path fill="#FFFFFF" d="M43.831,128.278h2.966l5.553,24.865h-3.56l-1.048-5.348h-4.854l-1.052,5.348h-3.558L43.831,128.278z
			 M45.328,135.434h-0.072l-1.74,9.005h3.562L45.328,135.434z"/>
		<path fill="#FFFFFF" d="M54.097,128.278h5.721c4.23,0,6.295,2.469,6.295,7.296c0,2.859-0.808,4.955-3.078,6.215l3.843,11.354
			h-3.775l-3.316-10.622h-2.13v10.622h-3.559L54.097,128.278L54.097,128.278z M57.656,139.381h2.024
			c2.488,0,2.864-1.397,2.864-3.876c0-2.518-0.416-3.881-3.035-3.881h-1.854L57.656,139.381L57.656,139.381z"/>
		<path fill="#FFFFFF" d="M80.289,147.585c0,3.078-2.483,5.764-5.661,5.764c-2.716,0-5.863-1.318-5.863-5.865v-13.689
			c0-3.257,2.336-5.729,5.794-5.729c3.287,0,5.73,2.472,5.73,5.938v1.396h-3.563v-1.187c0-1.401-0.835-2.589-2.204-2.589
			c-1.777,0-2.198,1.227-2.198,2.899v12.718c0,1.429,0.559,2.548,2.165,2.548c0.982,0,2.237-0.563,2.237-2.519v-1.222h3.563V147.585
			z"/>
		<path fill="#FFFFFF" d="M83.189,128.278h10.617v3.347H86.75v7.3h6.146v3.354H86.75v7.3h7.056v3.566H83.189V128.278z"/>
		<path fill="#FFFFFF" d="M96.109,128.278h3.562v21.299h7.051v3.566H96.109V128.278z"/>
		<path fill="#FFFFFF" d="M108.817,134.141c0-4.049,3.076-6.075,5.976-6.075c2.901,0,5.975,2.026,5.975,6.075v13.131
			c0,4.051-3.074,6.077-5.975,6.077c-2.899,0-5.976-2.026-5.976-6.077V134.141z M112.38,147.271c0,1.719,1.119,2.519,2.413,2.519
			c1.289,0,2.407-0.8,2.407-2.519V134.14c0-1.708-1.118-2.517-2.407-2.517c-1.294,0-2.413,0.809-2.413,2.517V147.271z"/>
		<path fill="#FFFFFF" d="M123.763,128.278h3.422l5.386,14.98h0.065v-14.98h3.561v24.865h-3.349l-5.446-14.947h-0.072v14.947h-3.568
			L123.763,128.278L123.763,128.278z"/>
		<path fill="#FFFFFF" d="M143.364,128.278h2.967l5.553,24.865h-3.565l-1.053-5.348h-4.849l-1.046,5.348h-3.566L143.364,128.278z
			 M144.857,135.434h-0.065l-1.741,9.005h3.56L144.857,135.434z"/>
		<path fill="#FFFFFF" d="M171.655,135.434h-3.56v-0.803c0-1.643-0.707-3.007-2.521-3.007c-1.958,0-2.409,1.57-2.409,3.214
			c0,1.923,0.173,2.584,2.023,3.324l2.728,1.08c3.137,1.185,3.739,3.176,3.739,6.808c0,4.189-1.544,7.299-6.153,7.299
			c-3.454,0-6.075-2.549-6.075-5.896v-1.331h3.562v1.12c0,1.29,0.701,2.548,2.514,2.548c2.414,0,2.593-1.439,2.593-3.704
			c0-2.654-0.317-3.071-2.07-3.774l-2.548-1.045c-3.07-1.267-3.88-3.282-3.88-6.396c0-3.768,2.026-6.805,6.118-6.805
			c3.56,0,5.94,2.858,5.94,5.626L171.655,135.434L171.655,135.434z"/>
		<path fill="#FFFFFF" d="M185.822,147.553c0,3.247-2.579,5.796-5.763,5.796c-3.169,0-5.757-2.549-5.757-5.796v-19.274h3.562v18.929
			c0,1.742,0.944,2.583,2.195,2.583c1.264,0,2.204-0.841,2.204-2.583v-18.929h3.559V147.553z"/>
		<path fill="#FFFFFF" d="M189.181,128.278h3.424l4.571,13.166h0.074l4.538-13.166h3.454v24.865h-3.559v-15.125h-0.074
			l-3.519,10.692h-1.788l-3.492-10.692h-0.071v15.125h-3.559L189.181,128.278L189.181,128.278z"/>
		<path fill="#FFFFFF" d="M208.6,128.278h3.419l4.577,13.166h0.071l4.534-13.166h3.46v24.865h-3.559v-15.125h-0.072l-3.534,10.692
			h-1.776l-3.49-10.692h-0.07v15.125h-3.56V128.278L208.6,128.278z"/>
		<path fill="#FFFFFF" d="M228.018,128.278h10.614v3.347h-7.057v7.3h6.148v3.354h-6.148v7.3h7.057v3.566h-10.614V128.278z"/>
		<path fill="#FFFFFF" d="M240.937,128.278h5.731c4.227,0,6.281,2.469,6.281,7.296c0,2.859-0.799,4.955-3.074,6.215l3.842,11.354
			h-3.77l-3.318-10.622h-2.131v10.622h-3.562V128.278L240.937,128.278z M244.5,139.381h2.028c2.478,0,2.864-1.397,2.864-3.876
			c0-2.518-0.419-3.881-3.044-3.881h-1.851v7.757H244.5z"/>
		<path fill="#FFFFFF" d="M262.309,128.278h10.628v3.347h-7.056v7.545h6.141v3.353h-6.141v10.622h-3.572V128.278z"/>
		<path fill="#FFFFFF" d="M275.237,128.278h10.615v3.347h-7.057v7.3h6.147v3.354h-6.147v7.3h7.057v3.566h-10.615V128.278z"/>
		<path fill="#FFFFFF" d="M299.686,135.434h-3.566v-0.803c0-1.643-0.699-3.007-2.514-3.007c-1.959,0-2.408,1.57-2.408,3.214
			c0,1.923,0.172,2.584,2.024,3.324l2.731,1.08c3.137,1.185,3.73,3.176,3.73,6.808c0,4.189-1.541,7.299-6.145,7.299
			c-3.463,0-6.08-2.549-6.08-5.896v-1.331h3.564v1.12c0,1.29,0.701,2.548,2.516,2.548c2.414,0,2.578-1.439,2.578-3.704
			c0-2.654-0.312-3.071-2.06-3.774l-2.552-1.045c-3.069-1.267-3.869-3.282-3.869-6.396c0-3.768,2.016-6.805,6.104-6.805
			c3.562,0,5.941,2.858,5.941,5.626v1.741H299.686z"/>
		<path fill="#FFFFFF" d="M304.672,131.624h-4.119v-3.347h11.805v3.347h-4.115v21.52h-3.568v-21.52H304.672z"/>
		<path fill="#FFFFFF" d="M314.032,128.278h3.566v24.865h-3.566V128.278z"/>
		<path fill="#FFFFFF" d="M328.04,153.144h-3.15l-5.055-24.865h3.771l2.834,17.354h0.064l2.871-17.354h3.76L328.04,153.144z"/>
		<path fill="#FFFFFF" d="M337.932,128.278h2.963l5.553,24.865h-3.561l-1.045-5.348h-4.857l-1.045,5.348h-3.566L337.932,128.278z
			 M339.426,135.434h-0.064l-1.746,9.005h3.559L339.426,135.434z"/>
		<path fill="#FFFFFF" d="M348.196,128.278h3.57v21.299h7.049v3.566h-10.619V128.278L348.196,128.278z"/>
	</g>
</g>
</svg>
