<?xml version="1.0" encoding="utf-8"?>
<!-- Generator: Adobe Illustrator 16.0.0, SVG Export Plug-In . SVG Version: 6.00 Build 0)  -->
<!DOCTYPE svg PUBLIC "-//W3C//DTD SVG 1.1//EN" "http://www.w3.org/Graphics/SVG/1.1/DTD/svg11.dtd" [
	<!ENTITY ns_extend "http://ns.adobe.com/Extensibility/1.0/">
	<!ENTITY ns_ai "http://ns.adobe.com/AdobeIllustrator/10.0/">
	<!ENTITY ns_graphs "http://ns.adobe.com/Graphs/1.0/">
	<!ENTITY ns_vars "http://ns.adobe.com/Variables/1.0/">
	<!ENTITY ns_imrep "http://ns.adobe.com/ImageReplacement/1.0/">
	<!ENTITY ns_sfw "http://ns.adobe.com/SaveForWeb/1.0/">
	<!ENTITY ns_custom "http://ns.adobe.com/GenericCustomNamespace/1.0/">
	<!ENTITY ns_adobe_xpath "http://ns.adobe.com/XPath/1.0/">
]>
<svg version="1.1" id="Layer_2" xmlns:x="&ns_extend;" xmlns:i="&ns_ai;" xmlns:graph="&ns_graphs;"
	 xmlns="http://www.w3.org/2000/svg" xmlns:xlink="http://www.w3.org/1999/xlink" x="0px" y="0px" width="140.367px"
	 height="37.062px" viewBox="0 0 140.367 37.062" enable-background="new 0 0 140.367 37.062" xml:space="preserve">
<metadata>
	<sfw  xmlns="&ns_sfw;">
		<slices></slices>
		<sliceSourceBounds  width="140.102" height="35.925" x="229.405" y="282.135" bottomLeftOrigin="true"></sliceSourceBounds>
	</sfw>
</metadata>
<g>
	<path fill="#FAFAFA" d="M42.807,9.697h5.097v6.576h-1.698l-0.256-1.53c-0.647,0.747-1.58,1.852-3.805,1.852
		c-2.938,0-5.607-2.108-5.607-6.388c0-3.329,1.853-6.473,5.963-6.455c3.737,0,5.215,2.428,5.351,4.11h-2.549
		c0-0.476-0.865-2.004-2.666-2.004c-1.818,0-3.5,1.255-3.5,4.383c0,3.328,1.818,4.194,3.552,4.194c0.559,0,2.429-0.219,2.955-2.683
		h-2.837V9.697L42.807,9.697z"/>
	<path fill="#FAFAFA" d="M51.844,10.852c0.135-1.188,0.731-1.901,1.853-1.901c0.763,0,1.698,0.441,1.835,1.901H51.844L51.844,10.852
		z M55.429,13.62c-0.188,0.647-0.866,0.987-1.528,0.987c-1.921,0-2.056-1.528-2.123-2.208h6.201v-0.424
		c0-4.129-2.465-4.977-4.248-4.977c-3.958,0-4.333,3.481-4.333,4.569c0,3.72,1.954,4.943,4.502,4.943
		c1.545,0,3.347-0.713,3.974-2.889L55.429,13.62L55.429,13.62z"/>
	<path fill="#FAFAFA" d="M67.728,16.273h-2.376v-5.487c0-0.663-0.035-1.785-1.547-1.785c-1.055,0-1.869,0.714-1.869,2.09v5.183
		h-2.378V7.234h2.276v1.325h0.034c0.323-0.544,1.002-1.562,2.718-1.562c1.767,0,3.142,1.035,3.142,3.022L67.728,16.273
		L67.728,16.273z"/>
	<path fill="#FAFAFA" d="M71.668,10.852c0.137-1.188,0.731-1.901,1.854-1.901c0.764,0,1.697,0.441,1.836,1.901H71.668L71.668,10.852
		z M75.252,13.62c-0.186,0.647-0.865,0.987-1.525,0.987c-1.922,0-2.059-1.528-2.125-2.208h6.202v-0.424
		c0-4.129-2.462-4.977-4.245-4.977c-3.961,0-4.335,3.481-4.335,4.569c0,3.72,1.955,4.943,4.505,4.943
		c1.543,0,3.344-0.713,3.973-2.889L75.252,13.62L75.252,13.62z"/>
	<path fill="#FAFAFA" d="M79.366,7.234h2.278v1.562h0.032c0.491-0.917,1.036-1.8,2.479-1.8c0.152,0,0.308,0.016,0.46,0.033v2.413
		c-0.203-0.035-0.46-0.035-0.679-0.035c-1.851,0-2.192,1.155-2.192,2.158v4.707h-2.377V7.234H79.366z"/>
	<path fill="#FAFAFA" d="M90.986,13.028c0,1.104-1.072,1.783-2.126,1.783c-0.46,0-1.103-0.254-1.103-1.087
		c0-0.986,0.729-1.206,1.613-1.359c0.987-0.153,1.377-0.307,1.615-0.493V13.028L90.986,13.028z M93.312,9.613
		c0-2.226-2.326-2.615-3.6-2.615c-1.853,0-3.773,0.39-4.042,3.159h2.291c0.068-0.527,0.27-1.258,1.463-1.258
		c0.609,0,1.562,0.052,1.562,1.054c0,0.509-0.458,0.663-0.835,0.712l-2.139,0.323c-1.515,0.221-2.632,1.121-2.632,2.887
		c0,1.87,1.394,2.633,2.75,2.633c1.614,0,2.379-0.746,2.925-1.306c0.052,0.511,0.083,0.645,0.219,1.071h2.563v-0.358
		c-0.288-0.101-0.525-0.339-0.525-1.409V9.613L93.312,9.613z"/>
	<polygon fill="#FAFAFA" points="97.88,16.273 95.502,16.273 95.502,4.074 97.88,4.074 	"/>
	<path fill="#FAFAFA" d="M102.603,7.234v9.039h-2.375V7.234H102.603L102.603,7.234z M102.603,6.164h-2.375V3.954h2.375V6.164
		L102.603,6.164z"/>
	<path fill="#FAFAFA" d="M107.55,7.234h1.476v1.699h-1.476v4.909c0,0.527,0.018,0.731,0.985,0.731c0.152,0,0.321-0.017,0.49-0.036
		v1.801c-0.37,0.017-0.747,0.035-1.116,0.035h-0.309c-2.053,0-2.429-0.781-2.429-1.953V8.933h-1.225V7.234h1.225V4.787h2.378V7.234
		L107.55,7.234z"/>
	<path fill="#FAFAFA" d="M115.535,13.028c0,1.104-1.072,1.783-2.127,1.783c-0.46,0-1.102-0.254-1.102-1.087
		c0-0.986,0.729-1.206,1.613-1.359c0.987-0.153,1.377-0.307,1.615-0.493V13.028L115.535,13.028z M117.863,9.613
		c0-2.226-2.328-2.615-3.604-2.615c-1.852,0-3.769,0.39-4.042,3.159h2.293c0.068-0.527,0.272-1.258,1.462-1.258
		c0.611,0,1.565,0.052,1.565,1.054c0,0.509-0.46,0.663-0.836,0.712l-2.141,0.323c-1.512,0.221-2.631,1.121-2.631,2.887
		c0,1.87,1.394,2.633,2.752,2.633c1.611,0,2.378-0.746,2.922-1.306c0.052,0.511,0.083,0.645,0.222,1.071h2.561v-0.358
		c-0.287-0.101-0.521-0.339-0.521-1.409V9.613H117.863z"/>
	<path fill="#FAFAFA" d="M122.653,7.234h1.478v1.699h-1.478v4.909c0,0.527,0.017,0.731,0.987,0.731c0.15,0,0.32-0.017,0.49-0.036
		v1.801c-0.378,0.017-0.748,0.035-1.123,0.035h-0.303c-2.061,0-2.429-0.781-2.429-1.953V8.933h-1.227V7.234h1.225V4.787h2.379V7.234
		L122.653,7.234z"/>
	<path fill="#FAFAFA" d="M38.814,28.808c0-1.424,0.509-2.769,2.021-2.769c1.631,0,2.04,1.463,2.04,2.906
		c0,1.345-0.594,2.599-2.106,2.599C39.239,31.545,38.814,29.88,38.814,28.808L38.814,28.808z M45.15,21.066h-2.378v4.327h-0.034
		c-0.374-0.576-1.087-1.407-2.616-1.407c-1.988,0-3.753,1.528-3.753,4.654c0,2.479,1.121,4.859,3.806,4.859
		c0.984,0,2.038-0.357,2.616-1.377h0.034v1.139h2.327L45.15,21.066L45.15,21.066z"/>
	<path fill="#FAFAFA" d="M49.007,27.844c0.135-1.19,0.731-1.905,1.851-1.905c0.765,0,1.699,0.442,1.835,1.905H49.007L49.007,27.844z
		 M52.591,30.611c-0.187,0.646-0.867,0.985-1.529,0.985c-1.92,0-2.055-1.528-2.123-2.21h6.2v-0.421c0-4.131-2.464-4.979-4.247-4.979
		c-3.958,0-4.332,3.483-4.332,4.571c0,3.719,1.954,4.942,4.501,4.942c1.547,0,3.346-0.715,3.975-2.889H52.591L52.591,30.611z"/>
	<path fill="#FAFAFA" d="M69.411,25.054c-0.206-0.729-0.597-2.105-2.703-2.105c-1.223,0-3.023,0.818-3.023,4.266
		c0,2.189,0.866,4.161,3.023,4.161c1.41,0,2.396-0.798,2.703-2.293h2.548c-0.51,2.649-2.244,4.5-5.3,4.5
		c-3.244,0-5.573-2.189-5.573-6.402c0-4.267,2.465-6.44,5.606-6.44c3.653,0,5.129,2.516,5.265,4.314H69.411L69.411,25.054z"/>
	<path fill="#FAFAFA" d="M78.702,30.015c0,1.104-1.07,1.782-2.123,1.782c-0.458,0-1.104-0.253-1.104-1.08
		c0-0.987,0.729-1.21,1.611-1.362c0.985-0.152,1.377-0.306,1.613-0.494v1.154H78.702z M81.03,26.604
		c0-2.228-2.328-2.618-3.602-2.618c-1.851,0-3.77,0.391-4.042,3.159h2.292c0.067-0.527,0.272-1.257,1.464-1.257
		c0.611,0,1.562,0.051,1.562,1.054c0,0.51-0.46,0.659-0.831,0.71l-2.142,0.326c-1.512,0.22-2.633,1.118-2.633,2.888
		c0,1.866,1.392,2.632,2.751,2.632c1.614,0,2.377-0.746,2.922-1.307c0.051,0.51,0.084,0.644,0.222,1.068h2.565v-0.358
		c-0.289-0.101-0.524-0.338-0.524-1.407v-4.89H81.03z"/>
	<path fill="#FAFAFA" d="M85.821,24.225h1.475v1.696h-1.475v4.908c0,0.528,0.018,0.734,0.986,0.734c0.15,0,0.32-0.02,0.488-0.037
		v1.803c-0.372,0.018-0.746,0.035-1.117,0.035H85.87c-2.054,0-2.427-0.784-2.427-1.956V25.92h-1.221v-1.694h1.221v-2.447h2.378
		V24.225L85.821,24.225z"/>
	<path fill="#FAFAFA" d="M93.807,30.015c0,1.104-1.073,1.782-2.123,1.782c-0.46,0-1.105-0.253-1.105-1.08
		c0-0.987,0.729-1.21,1.612-1.362c0.985-0.152,1.377-0.306,1.614-0.494v1.154H93.807z M96.135,26.604
		c0-2.228-2.33-2.618-3.604-2.618c-1.852,0-3.771,0.391-4.044,3.159h2.293c0.068-0.527,0.274-1.257,1.463-1.257
		c0.61,0,1.562,0.051,1.562,1.054c0,0.51-0.456,0.659-0.834,0.71l-2.141,0.326c-1.508,0.22-2.632,1.118-2.632,2.888
		c0,1.866,1.392,2.632,2.75,2.632c1.614,0,2.381-0.746,2.925-1.307c0.052,0.51,0.083,0.644,0.219,1.068h2.563v-0.358
		c-0.288-0.101-0.522-0.338-0.522-1.407v-4.89H96.135z"/>
	<polygon fill="#FAFAFA" points="100.699,33.261 98.324,33.261 98.324,21.066 100.699,21.066 	"/>
	<path fill="#FAFAFA" d="M111.134,33.261h-2.279v-1.274h-0.031c-0.545,0.97-1.494,1.511-2.751,1.511
		c-1.789,0-3.076-1.017-3.076-3.327v-5.945h2.379v5.605c0,1.39,0.812,1.663,1.545,1.663c0.78,0,1.834-0.44,1.834-2.055v-5.216h2.38
		V33.261L111.134,33.261z"/>
	<path fill="#FAFAFA" d="M121.531,33.261h-2.381v-5.487c0-0.662-0.031-1.783-1.544-1.783c-1.055,0-1.869,0.714-1.869,2.088v5.183
		h-2.379v-9.036h2.277v1.325h0.033c0.322-0.545,1.004-1.562,2.717-1.562c1.77,0,3.146,1.037,3.146,3.021V33.261L121.531,33.261z"/>
	<path fill="#FAFAFA" d="M128.347,33.111c-1.122,3.345-1.429,3.785-3.497,3.785c-0.326,0-0.735-0.016-1.075-0.031v-1.901
		c0.104,0.018,0.258,0.029,0.461,0.029c0.864,0,1.341-0.118,1.562-1.358l-3.326-9.409h2.646l1.935,6.656h0.037l1.853-6.656h2.512
		L128.347,33.111L128.347,33.111z"/>
	<path fill="#FAFAFA" d="M137.338,30.015c0,1.104-1.073,1.782-2.125,1.782c-0.461,0-1.106-0.253-1.106-1.08
		c0-0.987,0.732-1.21,1.613-1.362c0.987-0.152,1.376-0.306,1.618-0.494V30.015L137.338,30.015z M139.663,26.604
		c0-2.228-2.325-2.618-3.6-2.618c-1.852,0-3.772,0.391-4.044,3.159h2.293c0.068-0.527,0.271-1.257,1.463-1.257
		c0.61,0,1.562,0.051,1.562,1.054c0,0.51-0.457,0.659-0.834,0.71l-2.141,0.326c-1.513,0.22-2.631,1.118-2.631,2.888
		c0,1.866,1.389,2.632,2.749,2.632c1.615,0,2.38-0.746,2.921-1.307c0.052,0.51,0.087,0.644,0.221,1.068h2.567v-0.358
		c-0.289-0.101-0.527-0.338-0.527-1.407V26.604L139.663,26.604z"/>
	<g>
		<path fill="#FAFAFA" d="M27.549,31.543c0.48,0.415,0.632,1.166,0.525,1.779c-0.761,0.069-1.355-0.104-1.798-0.541
			c-0.388,0.101-0.853,0.33-1.09,0.518c-0.127-0.305-0.274-0.557-0.47-0.815c-1.723,1.157-3.736,0.768-6.478,0.8
			c1.178-0.431,1.689-0.624,2.478-1.051c1.614-0.872,2.01-1.687,3.371-1.793c0.102-0.636,0.079-0.691,0.033-1.08
			c0.359,0.029,0.642,0.039,0.95-0.024c-0.011-0.892,0.431-1.62,0.51-1.749c0.134-0.215,0.231-0.427,0.452-0.748
			c0.753-1.12,1.623-3.263,1.985-4.894l0.038,5.61c-0.089,0.99-0.225,1.562-0.771,2.381c0.247,0.22,0.487,0.322,0.772,0.463
			C27.834,30.725,27.643,31.138,27.549,31.543L27.549,31.543z M27.755,30.507c-0.3-0.063-0.628-0.367-0.66-0.413
			c0-0.002,0-0.006-0.003-0.006c-0.001,0,0,0.004,0.003,0.006c-0.005,0.052-0.249,0.378-0.634,0.608l0.006,0.018
			c0.036,0.083,0.057,0.17,0.062,0.257l0.014-0.016C26.542,30.961,27.543,30.594,27.755,30.507L27.755,30.507z M26.93,25.763
			c-0.763,1.687-1.855,2.593-1.505,4.05c0,0,0.057,0.292,0.24,0.501c0.104-0.018,0.311-0.004,0.311-0.004
			c0.757-1.972,1.383-3.765,1.821-6.18c0.062-0.407,0.091-0.969,0.121-1.407C27.695,23.64,27.931,23.546,26.93,25.763L26.93,25.763z
			 M24.418,29.659c0,0,0.058,0.271-0.062,0.782c0,0,0.32,0.012,0.797,0.243l0.005-0.013c0.031-0.057,0.07-0.108,0.117-0.153
			c0.026-0.027,0.055-0.051,0.083-0.073l-0.002-0.008L24.418,29.659L24.418,29.659z M20.169,33.027
			c1.609-0.368,3.914-1.219,4.922-1.719l-0.001-0.014c-0.028-0.092-0.036-0.19-0.027-0.279l-0.002-0.039
			c-0.254-0.145-0.533-0.235-0.875-0.235c-1.458,0.029-2.009,1.284-4.169,2.092l-0.997,0.31
			C19.316,33.127,19.697,33.135,20.169,33.027L20.169,33.027z M25.301,32.961l0.427-1.194l-0.012,0.002
			c-0.106-0.01-0.21-0.042-0.307-0.098l-0.006-0.004c-0.101,0.25-0.163,0.388-0.463,0.641
			C25.163,32.555,25.243,32.804,25.301,32.961L25.301,32.961z M25.494,31.336c0.166,0.166,0.435,0.166,0.603,0
			c0.167-0.164,0.168-0.437,0.001-0.603s-0.436-0.17-0.604,0C25.328,30.899,25.328,31.166,25.494,31.336L25.494,31.336z
			 M26.421,32.532c0.354,0.429,0.844,0.563,1.412,0.508l-1.496-1.515c-0.077,0.106-0.207,0.172-0.315,0.205
			C26.107,32.076,26.201,32.276,26.421,32.532L26.421,32.532z"/>
		<path fill="#FAFAFA" d="M28.074,0.987c0.107,0.613-0.045,1.364-0.525,1.779c0.094,0.404,0.285,0.817,0.506,1.146
			c-0.285,0.14-0.525,0.245-0.772,0.46c0.546,0.826,0.682,1.389,0.771,2.382l-0.039,5.613c-0.361-1.632-1.231-3.771-1.984-4.891
			c-0.22-0.328-0.317-0.535-0.452-0.753c-0.079-0.126-0.521-0.855-0.509-1.747c-0.308-0.064-0.59-0.052-0.951-0.024
			c0.046-0.39,0.068-0.442-0.033-1.081c-1.361-0.106-1.758-0.921-3.371-1.793c-0.789-0.425-1.3-0.621-2.478-1.053
			c2.741,0.033,4.755-0.356,6.478,0.803c0.196-0.26,0.342-0.511,0.47-0.817c0.237,0.187,0.703,0.416,1.09,0.515
			C26.719,1.09,27.313,0.916,28.074,0.987L28.074,0.987z M27.755,3.802c-0.212-0.088-1.213-0.455-1.213-0.455l-0.014-0.015
			c-0.005,0.087-0.026,0.173-0.062,0.254L26.46,3.606c0.386,0.231,0.628,0.557,0.634,0.608c-0.004,0.003-0.005,0.006-0.003,0.006
			c0.003,0,0.003-0.003,0.003-0.006C27.127,4.17,27.456,3.864,27.755,3.802L27.755,3.802z M26.93,8.544
			c1.001,2.218,0.765,2.123,0.988,3.042c-0.029-0.443-0.059-1.003-0.121-1.409c-0.438-2.416-1.064-4.207-1.821-6.185
			c0,0-0.207,0.02-0.311-0.002c-0.184,0.212-0.24,0.503-0.24,0.503C25.074,5.951,26.167,6.859,26.93,8.544L26.93,8.544z
			 M24.418,4.651l0.937-0.782l0.002-0.007c-0.027-0.021-0.057-0.043-0.083-0.07c-0.046-0.047-0.086-0.099-0.117-0.154l-0.005-0.014
			c-0.477,0.231-0.797,0.241-0.797,0.241C24.477,4.382,24.418,4.651,24.418,4.651L24.418,4.651z M20.169,1.283
			c-0.472-0.107-0.853-0.104-1.148-0.116l0.997,0.309c2.16,0.81,2.711,2.064,4.169,2.093c0.342-0.003,0.621-0.094,0.875-0.234
			l0.002-0.041c-0.009-0.093-0.001-0.188,0.027-0.278l0.001-0.015C24.082,2.501,21.778,1.653,20.169,1.283L20.169,1.283z
			 M25.301,1.349C25.242,1.502,25.162,1.753,24.939,2c0.301,0.254,0.363,0.392,0.463,0.64l0.006-0.002
			c0.096-0.056,0.2-0.088,0.307-0.098l0.012,0.002L25.301,1.349L25.301,1.349z M25.494,2.974c-0.166,0.166-0.166,0.437,0,0.604
			c0.168,0.166,0.438,0.165,0.604-0.003c0.166-0.168,0.166-0.438-0.001-0.603C25.93,2.805,25.66,2.805,25.494,2.974L25.494,2.974z
			 M26.421,1.778c-0.221,0.256-0.314,0.454-0.398,0.801c0.109,0.032,0.238,0.098,0.315,0.207l1.496-1.519
			C27.265,1.213,26.775,1.348,26.421,1.778L26.421,1.778z"/>
		<path fill="#FAFAFA" d="M0.122,33.322c-0.107-0.613,0.043-1.364,0.525-1.779c-0.095-0.404-0.286-0.817-0.506-1.145
			c0.285-0.141,0.525-0.245,0.773-0.463c-0.546-0.82-0.682-1.391-0.773-2.381l0.04-5.612c0.361,1.633,1.231,3.773,1.983,4.894
			c0.221,0.323,0.317,0.533,0.453,0.75c0.079,0.127,0.521,0.857,0.51,1.747c0.308,0.065,0.591,0.056,0.949,0.026
			c-0.043,0.389-0.068,0.442,0.035,1.078c1.361,0.108,1.757,0.923,3.369,1.793c0.79,0.427,1.3,0.622,2.479,1.053
			c-2.741-0.034-4.755,0.357-6.477-0.802c-0.197,0.259-0.343,0.513-0.471,0.815c-0.238-0.188-0.702-0.415-1.089-0.516
			C1.478,33.218,0.882,33.391,0.122,33.322L0.122,33.322z M0.44,30.507c0.211,0.087,1.211,0.454,1.211,0.454l0.014,0.014
			c0.005-0.085,0.027-0.172,0.062-0.255l0.005-0.02c-0.384-0.23-0.627-0.557-0.632-0.606c0.003-0.004,0.004-0.006,0.001-0.006
			c0,0-0.001,0.002-0.001,0.006C1.067,30.139,0.739,30.445,0.44,30.507L0.44,30.507z M1.267,25.763
			c-1.003-2.218-0.768-2.123-0.989-3.04c0.028,0.44,0.056,1,0.119,1.409c0.438,2.415,1.066,4.206,1.821,6.18
			c0,0,0.208-0.016,0.313,0.002c0.182-0.207,0.239-0.501,0.239-0.501C3.12,28.356,2.029,27.45,1.267,25.763L1.267,25.763z
			 M3.776,29.659l-0.937,0.78l-0.003,0.006c0.028,0.024,0.057,0.048,0.083,0.073c0.048,0.045,0.085,0.099,0.118,0.153l0.006,0.013
			c0.477-0.231,0.796-0.243,0.796-0.243C3.719,29.927,3.776,29.659,3.776,29.659L3.776,29.659z M8.027,33.027
			c0.47,0.107,0.852,0.102,1.147,0.115l-0.997-0.312c-2.161-0.809-2.709-2.062-4.168-2.09c-0.34,0-0.622,0.091-0.875,0.233
			l-0.002,0.041c0.011,0.089,0.001,0.188-0.025,0.277l-0.001,0.014C4.112,31.808,6.417,32.657,8.027,33.027L8.027,33.027z
			 M2.894,32.961c0.058-0.156,0.139-0.405,0.362-0.651c-0.301-0.253-0.363-0.393-0.463-0.643l-0.008,0.006
			c-0.095,0.054-0.199,0.088-0.305,0.098l-0.014-0.004L2.894,32.961L2.894,32.961z M2.702,31.336
			c0.167-0.17,0.166-0.437-0.002-0.603c-0.167-0.17-0.437-0.166-0.603,0s-0.165,0.438,0.002,0.603
			C2.266,31.502,2.535,31.502,2.702,31.336L2.702,31.336z M1.773,32.532c0.22-0.256,0.316-0.456,0.399-0.802
			c-0.109-0.033-0.239-0.099-0.316-0.205L0.362,33.04C0.929,33.095,1.421,32.961,1.773,32.532L1.773,32.532z"/>
		<path fill="#FAFAFA" d="M0.647,2.764C0.165,2.35,0.015,1.599,0.122,0.986c0.76-0.069,1.356,0.103,1.799,0.54
			C2.308,1.425,2.771,1.196,3.01,1.01C3.137,1.316,3.284,1.567,3.48,1.827c1.722-1.159,3.736-0.771,6.477-0.803
			C8.779,1.455,8.268,1.65,7.479,2.076c-1.612,0.872-2.008,1.687-3.37,1.793c-0.102,0.638-0.078,0.692-0.034,1.08
			C3.717,4.923,3.434,4.91,3.125,4.974c0.01,0.892-0.431,1.62-0.51,1.747C2.48,6.939,2.384,7.146,2.163,7.474
			c-0.752,1.118-1.623,3.259-1.983,4.891L0.14,6.753c0.09-0.994,0.227-1.557,0.773-2.382c-0.248-0.214-0.488-0.32-0.773-0.46
			C0.361,3.582,0.552,3.17,0.647,2.764L0.647,2.764z M0.44,3.802c0.299,0.061,0.627,0.366,0.661,0.411
			c0,0.002,0.001,0.006,0.001,0.006c0.002,0,0.002-0.002-0.001-0.006c0.005-0.051,0.249-0.376,0.632-0.608L1.728,3.587
			C1.691,3.505,1.67,3.419,1.665,3.333L1.651,3.347C1.651,3.347,0.651,3.714,0.44,3.802L0.44,3.802z M1.267,8.544
			c0.762-1.686,1.854-2.592,1.503-4.049c0,0-0.058-0.292-0.239-0.503C2.426,4.013,2.218,3.993,2.218,3.993
			C1.463,5.97,0.836,7.761,0.397,10.177c-0.063,0.405-0.091,0.964-0.119,1.409C0.5,10.666,0.263,10.763,1.267,8.544L1.267,8.544z
			 M3.776,4.651c0,0-0.058-0.27,0.063-0.786c0,0-0.319-0.009-0.796-0.241L3.038,3.638c-0.032,0.055-0.07,0.105-0.118,0.154
			c-0.026,0.026-0.054,0.05-0.083,0.07L2.84,3.869L3.776,4.651L3.776,4.651z M8.027,1.283c-1.609,0.37-3.914,1.219-4.921,1.718
			l0.001,0.015c0.026,0.09,0.036,0.186,0.025,0.278l0.002,0.041c0.253,0.14,0.534,0.231,0.875,0.234
			c1.459-0.028,2.008-1.283,4.168-2.093l0.997-0.309C8.878,1.18,8.498,1.174,8.027,1.283L8.027,1.283z M2.894,1.349L2.467,2.543
			L2.48,2.54C2.586,2.55,2.69,2.582,2.786,2.638L2.793,2.64C2.894,2.391,2.956,2.254,3.257,2C3.032,1.753,2.951,1.502,2.894,1.349
			L2.894,1.349z M2.702,2.974C2.535,2.805,2.266,2.805,2.098,2.972C1.931,3.138,1.93,3.407,2.096,3.574
			c0.167,0.167,0.437,0.168,0.603,0.003C2.868,3.41,2.868,3.14,2.702,2.974L2.702,2.974z M1.773,1.778
			c-0.353-0.43-0.843-0.565-1.411-0.512l1.495,1.519c0.077-0.107,0.207-0.174,0.316-0.207C2.088,2.233,1.994,2.034,1.773,1.778
			L1.773,1.778z"/>
		<path fill="#FAFAFA" d="M14.125,1.108c7.606,0,13.774,7.19,13.774,16.058c0,8.868-6.167,16.06-13.774,16.06
			c-7.607,0-13.774-7.191-13.774-16.06C0.351,8.299,6.519,1.108,14.125,1.108L14.125,1.108z M4.508,25.163V9.169
			c-1.323,2.268-2.099,5.026-2.099,7.998C2.408,20.141,3.185,22.896,4.508,25.163L4.508,25.163z M7.467,5.645v23.043
			c0.762,0.631,1.589,1.154,2.469,1.56V4.087C9.057,4.489,8.229,5.015,7.467,5.645L7.467,5.645z M12.894,3.241v27.849
			c0.404,0.052,0.814,0.075,1.23,0.075c0.419,0,0.831-0.023,1.24-0.075V3.242c-0.409-0.051-0.821-0.077-1.24-0.077
			C13.709,3.165,13.298,3.189,12.894,3.241L12.894,3.241z M18.323,4.092v26.152c0.878-0.405,1.708-0.933,2.469-1.563V5.652
			C20.03,5.021,19.201,4.493,18.323,4.092L18.323,4.092z M23.752,9.183v15.966c1.316-2.265,2.09-5.016,2.09-7.983
			C25.842,14.199,25.067,11.447,23.752,9.183L23.752,9.183z M1.504,17.166c0,3.681,1.131,7.052,3.003,9.65v-0.877
			c-1.573-2.43-2.509-5.475-2.509-8.773c0-3.301,0.938-6.345,2.509-8.773V7.514C2.636,10.116,1.504,13.486,1.504,17.166
			L1.504,17.166z M23.752,25.926v0.883c1.868-2.601,2.993-5.966,2.993-9.642c0-3.675-1.126-7.04-2.993-9.64v0.88
			c1.567,2.428,2.5,5.464,2.5,8.76C26.251,20.463,25.319,23.498,23.752,25.926L23.752,25.926z M20.792,4.51
			c-0.77-0.569-1.598-1.043-2.469-1.405v0.544c0.875,0.384,1.703,0.885,2.469,1.484V4.51L20.792,4.51z M14.125,2.259
			c-0.416,0-0.826,0.025-1.23,0.071v0.505c0.404-0.048,0.814-0.074,1.23-0.074c0.418,0,0.831,0.026,1.24,0.074V2.331
			C14.956,2.285,14.542,2.259,14.125,2.259L14.125,2.259z M9.936,3.101C9.064,3.465,8.238,3.935,7.467,4.503v0.626
			c0.767-0.601,1.593-1.1,2.469-1.482V3.101L9.936,3.101z M7.467,29.831c0.771,0.567,1.597,1.035,2.469,1.399v-0.544
			c-0.875-0.382-1.702-0.881-2.469-1.479V29.831L7.467,29.831z M14.125,32.072c0.418,0,0.831-0.025,1.24-0.073v-0.503
			c-0.409,0.049-0.822,0.074-1.24,0.074c-0.416,0-0.826-0.025-1.23-0.074v0.503C13.299,32.047,13.709,32.072,14.125,32.072
			L14.125,32.072z M18.323,31.228c0.871-0.364,1.699-0.838,2.469-1.403v-0.626c-0.766,0.599-1.593,1.1-2.469,1.485V31.228
			L18.323,31.228z"/>
	</g>
</g>
</svg>
