<?xml version="1.0" encoding="utf-8"?>
<!-- Generator: Adobe Illustrator 16.0.0, SVG Export Plug-In . SVG Version: 6.00 Build 0)  -->
<!DOCTYPE svg PUBLIC "-//W3C//DTD SVG 1.1//EN" "http://www.w3.org/Graphics/SVG/1.1/DTD/svg11.dtd" [
	<!ENTITY ns_extend "http://ns.adobe.com/Extensibility/1.0/">
	<!ENTITY ns_ai "http://ns.adobe.com/AdobeIllustrator/10.0/">
	<!ENTITY ns_graphs "http://ns.adobe.com/Graphs/1.0/">
	<!ENTITY ns_vars "http://ns.adobe.com/Variables/1.0/">
	<!ENTITY ns_imrep "http://ns.adobe.com/ImageReplacement/1.0/">
	<!ENTITY ns_sfw "http://ns.adobe.com/SaveForWeb/1.0/">
	<!ENTITY ns_custom "http://ns.adobe.com/GenericCustomNamespace/1.0/">
	<!ENTITY ns_adobe_xpath "http://ns.adobe.com/XPath/1.0/">
]>
<svg version="1.1" id="Layer_1" xmlns:x="&ns_extend;" xmlns:i="&ns_ai;" xmlns:graph="&ns_graphs;"
	 xmlns="http://www.w3.org/2000/svg" xmlns:xlink="http://www.w3.org/1999/xlink" x="0px" y="0px" width="600px" height="392.9px"
	 viewBox="0 0 600 392.9" enable-background="new 0 0 600 392.9" xml:space="preserve">
<metadata>
	<sfw  xmlns="&ns_sfw;">
		<slices></slices>
		<sliceSourceBounds  width="606.678" height="270.674" x="10.069" y="170.062" bottomLeftOrigin="true"></sliceSourceBounds>
	</sfw>
</metadata>
<g id="MGzQNC_1_">
	<g>
		<g>
			<path display="none" fill="#FFFFFF" d="M10.569,124.307c0-19.662,0-39.324,0-58.988c202.225,0,404.452,0,606.678,0
				c0,19.662,0,39.326,0,58.988C415.021,124.307,212.794,124.307,10.569,124.307z M312.24,117.635
				c0.042,0.114,0.082,0.23,0.125,0.346c1.174-0.37,2.369-0.688,3.514-1.133c0.966-0.373,1.894-0.863,2.802-1.365
				c2.651-1.463,6.114-2.08,7.144-5.404c0.857-2.775,1.231-5.725,1.565-8.626c0.473-4.093,0.785-8.206,1.02-12.319
				c0.125-2.177,0.138-4.397-0.173-6.546c-0.228-1.569-1.026-3.069-1.64-4.571c-1.461-3.595-4.24-6.426-7.391-8.037
				c-2.86-1.467-6.623-1.564-9.985-1.553c-3.873,0.014-5.357,2.118-5.473,6.184c-0.034,1.219-0.418,2.422-0.57,3.641
				c-0.244,1.934-1.18,4.221-0.479,5.74c1.458,3.16,0.035,6.047,0.158,9.035c0.103,2.438-1.146,4.962,0.498,7.324
				c0.23,0.334,0.065,0.963,0.035,1.453c-0.215,3.405-0.617,6.811-0.617,10.215c0,3.383,1.904,5.146,5.195,5.352
				C309.393,117.454,310.816,117.546,312.24,117.635z M191.326,115.611c1.105,0.502,2.036,0.893,2.938,1.339
				c1.443,0.715,4.468-0.812,4.433-2.4c-0.037-1.688-0.33-3.384-0.663-5.043c-0.495-2.455-1.408-4.844-0.6-7.425
				c0.227-0.728-0.198-1.721,0.14-2.336c1.003-1.823,4.325-1.692,5.339,0.401c1.353,2.795,2.544,5.753,3.201,8.773
				c0.622,2.858,1.702,5.365,3.733,7.319c1.039,0.995,2.554,1.866,4.25,0.843c1.292-0.781,1.736-1.652,1.542-3.318
				c-0.327-2.845-1.464-5.258-2.877-7.625c-0.399-0.666-0.934-1.271-1.225-1.979c-0.736-1.796-1.23-3.705-2.078-5.442
				c-1.099-2.246-0.978-4.098,0.559-5.817c1.042-1.169,2.138-2.368,2.844-3.74c1.767-3.442,1.715-7.185,0.984-10.853
				c-1.169-5.86-6.418-8.344-10.33-11.906c-0.293-0.268-0.972-0.213-1.454-0.153c-3.506,0.416-7.008,0.871-10.86,1.358
				c0.79,1.201,1.639,1.896,1.632,2.584c-0.032,2.609-0.266,5.228-0.571,7.822c-0.25,2.123-1.34,4.363-0.905,6.291
				c0.474,2.096-0.606,4.487,1.14,6.359c0.225,0.241-0.132,1.05-0.258,1.586c-0.106,0.457-0.405,0.906-0.385,1.35
				c0.084,1.967,0.662,4.006,0.316,5.883C191.169,104.924,190.688,110.346,191.326,115.611z M484.553,70.5
				c-0.417,0.162-1.884,0.279-2.256,0.98c-0.556,1.037-0.467,2.494-0.422,3.766c0.064,1.914,0.167,3.852,0.543,5.723
				c0.53,2.629-1.512,5.42,0.565,7.957c0.171,0.209-0.316,0.996-0.557,1.488c-1.195,2.471-1.389,5.044-0.94,7.727
				c0.23,1.387,0.429,2.811,0.356,4.203c-0.169,3.381-0.751,6.756-0.715,10.127c0.057,5.101,4.951,8.299,9.771,6.654
				c1.271-0.436,2.518-0.993,3.823-1.245c4.612-0.886,8.14-2.981,9.228-7.911c0.174-0.791-0.048-1.673,0.137-2.459
				c0.906-3.896,0.204-7.396-2.474-10.414c-1.31-1.474-1.245-2.902-0.426-4.652c0.967-2.071,1.932-4.264,2.242-6.498
				c0.31-2.204,0.405-4.807-0.495-6.719c-1.188-2.526-3.413-4.573-5.258-6.776c-0.329-0.394-0.946-0.699-1.463-0.757
				C492.582,71.278,488.943,70.938,484.553,70.5z M177.069,112.373c-3.345,0.016-6.618-3.811-6.367-7.557
				c0.189-2.813,1.263-5.811,0.598-8.379c-0.798-3.08-0.298-5.811,0.093-8.707c0.143-1.049,0.476-2.377,0.008-3.141
				c-0.845-1.386-0.909-2.625-0.795-4.166c0.29-3.981,0.322-7.98,0.381-11.976c0.007-0.442-0.581-1.313-0.703-1.279
				c-1.882,0.513-3.796,1.011-5.545,1.841c-0.407,0.192-0.276,1.604-0.316,2.455c-0.019,0.409,0.25,0.836,0.209,1.237
				c-0.211,2.046-0.542,4.082-0.71,6.131c-0.122,1.476-0.157,2.974-0.043,4.447c0.077,0.987,0.718,1.957,0.697,2.926
				c-0.101,4.465-0.353,8.927-0.53,13.392c-0.047,1.194-0.182,2.42,0.02,3.578c0.275,1.57,1.086,3.069,1.222,4.639
				c0.341,3.947,1.164,7.158,5.282,9.277c3.849,1.982,7.684,1.453,10.932,0.246c3.601-1.339,6.416-4.646,6.789-9.011
				c0.193-2.269,0.248-4.595-0.048-6.84c-0.437-3.322,0.436-6.558-0.271-10.011c-0.836-4.094,0.05-8.532,0.141-12.823
				c0.038-1.82,0.173-3.688-0.163-5.451c-0.184-0.959-1.108-2.021-1.99-2.515c-0.564-0.315-1.748,0.16-2.502,0.563
				c-1.862,0.995-1.533,3.683-1.06,4.265c1.672,2.062,0.37,4.006,0.423,5.938c0.059,2.145-0.468,4.298-0.465,6.446
				c0.003,1.393,0.781,2.795,0.719,4.169c-0.138,2.992-0.6,5.972-0.909,8.955c-0.214,2.07-0.622,4.152-0.537,6.212
				C181.768,110.629,180.379,112.362,177.069,112.373z M243.495,83.952c0.018,0.003,0.037,0.005,0.055,0.007
				c-0.287,1.42-0.485,2.866-0.882,4.254c-0.441,1.543-1.226,2.999-1.576,4.555c-0.817,3.641-1.422,7.328-2.2,10.979
				c-0.317,1.485-1.012,2.899-1.26,4.396c-0.391,2.351-0.535,4.742-0.815,7.115c-0.179,1.514,1.178,3.783,2.561,4.299
				c1.93,0.717,3.526-0.205,4.1-1.721c0.683-1.8,0.758-3.913,0.714-5.882c-0.041-1.802,1.229-3.847,3.216-4.328
				c1.679-0.409,5.334,1.531,5.271,3.054c-0.118,2.879,1.577,4.805,3.089,6.832c1.304,1.746,3.229,1.482,3.499-0.6
				c0.333-2.572,0.979-5.359-1.048-7.727c-0.487-0.569-0.969-1.401-0.953-2.1c0.092-3.469,0.634-6.97-1.501-10.104
				c-0.078-0.116,0.122-0.391,0.11-0.586c-0.047-0.68-0.017-1.389-0.218-2.021c-0.555-1.744-1.697-3.463-1.692-5.188
				c0.005-1.666-0.293-2.99-1.083-4.351c-0.126-0.217,0.246-0.674,0.202-0.996c-0.199-1.483-0.472-2.96-0.701-4.438
				c-0.095-0.609-0.167-1.223-0.221-1.838c-0.045-0.527,0.011-1.068-0.079-1.588c-0.172-0.994-0.455-1.97-0.621-2.963
				c-0.224-1.339-0.552-2.447-2.252-2.574c-2.822-0.211-5.654,3.095-5.076,5.854c0.261,1.239,0.194,2.58,0.082,3.855
				C244.105,81.43,243.747,82.686,243.495,83.952z M425.566,107.868c0.215,0.124,0.43,0.25,0.645,0.373
				c-1.088,1.098-2.101,2.284-3.273,3.274c-3.092,2.604-5.856,1.83-7.83-1.611c-0.909-1.584-0.903-4.381-3.485-4.357
				c-1.366,0.014-2.787,1.018-4.048,1.795c-0.363,0.223-0.541,1.36-0.306,1.832c1.181,2.368,2.287,4.838,3.883,6.92
				c1.422,1.856,3.188,3.76,6.154,2.491c0.775-0.332,1.827,0.025,2.75-0.015c0.955-0.04,1.918-0.11,2.856-0.287
				c2.435-0.455,4.323-1.839,5.869-3.702c0.519-0.625,1.181-1.344,1.264-2.08c0.472-4.102,0.854-8.217,1.13-12.338
				c0.187-2.762-0.798-5.312-2.345-7.508c-0.59-0.837-1.979-1.142-3.042-1.604c-1.715-0.744-3.402-1.729-5.205-2.064
				c-4.576-0.86-5.217-1.043-5.95-5.467c-0.337-2.043-0.118-4.572,0.851-6.336c1.229-2.246,4.02-2.205,6.185-1.336
				c1.228,0.494,2.338,1.953,2.914,3.239c0.979,2.192,3.786,3.101,5.409,1.427c0.918-0.951,0.824-3.494-0.161-4.685
				c-1.453-1.754-2.703-3.741-4.407-5.201c-1.263-1.077-3.097-1.504-4.706-2.141c-0.21-0.081-0.589,0.375-0.92,0.475
				c-0.671,0.2-1.356,0.423-2.048,0.466c-1.043,0.063-2.333-0.398-3.086,0.063c-0.925,0.565-2.884,0.135-2.585,2.494
				c0.167,1.319-0.64,3.088-1.574,4.159c-2.126,2.435-2.078,5.379-2.005,8.123c0.064,2.492,1.104,4.988,1.92,7.416
				c0.268,0.793,1.057,1.701,1.82,1.987c2.65,0.985,5.35,2.007,8.12,2.462c2.126,0.351,3.025,1.508,3.848,3.18
				C425.532,102.024,426.758,104.715,425.566,107.868z M364.604,73.389c0.085-0.522,0.038-1.002,0.237-1.328
				c0.859-1.393,0.714-2.457-0.632-3.521c-1.688-1.337-3.437-2.08-5.615-1.606c-1.743,0.377-3.501,0.72-5.265,0.99
				c-3.178,0.491-6.561-0.473-9.481,1.872c-1.584,1.271-0.925,2.724-0.993,4.101c-0.062,1.168,0.366,2.359,0.542,3.545
				c0.146,1.021,0.217,2.057,0.375,3.076c0.062,0.396,0.435,0.795,0.389,1.153c-0.58,4.48-1.713,8.86-1.575,13.476
				c0.104,3.572-0.677,7.164-0.95,10.759c-0.094,1.222,0.128,2.474,0.273,3.705c0.1,0.858,0.513,1.719,0.445,2.551
				c-0.228,2.832,1.554,4.923,4.372,5.003c1.483,0.043,2.965,0.219,4.447,0.252c2.911,0.066,5.84,0.268,8.726,0.005
				c0.996-0.089,2.45-1.245,2.685-2.173c0.366-1.438-0.067-3.115-2.261-3.178c-2.819-0.077-5.64-0.17-8.452-0.342
				c-0.72-0.043-1.465-0.311-2.12-0.635c-1.805-0.896-1.071-2.892-1.741-4.188c-1.55-3.005-0.628-5.868-0.048-8.716
				c0.564-2.782,3.259-3.744,5.814-2.394c1.608,0.853,3.735,0.066,5.202-1.575c1.464-1.647,0.239-2.524-0.752-3.48
				c-0.396-0.385-0.981-0.684-1.526-0.781c-1.509-0.275-3.038-0.445-4.562-0.619c-2.219-0.253-3.199-1.201-3.133-3.359
				c0.085-2.827,0.288-5.65,0.482-8.475c0.195-2.813,1.812-4.182,4.583-4.13C357.491,73.438,360.918,73.389,364.604,73.389z
				 M552.669,71.861c-0.109,1.052-0.285,2.221-0.343,3.396c-0.111,2.26-0.099,4.526-0.246,6.783
				c-0.122,1.846-0.737,3.723-0.521,5.51c0.226,1.838-0.026,3.502-0.331,5.256c-0.317,1.836-0.702,3.78-0.413,5.576
				c0.509,3.182,0.659,6.305,0.463,9.521c-0.103,1.64,0.98,3.372,0.812,4.985c-0.25,2.353,1.074,3.11,2.739,3.852
				c0.45,0.197,0.892,0.451,1.363,0.558c2.208,0.484,3.986,2.066,6.619,1.636c3.963-0.649,7.646-1.519,10.378-4.688
				c0.551-0.64,1.452-1.382,1.427-2.049c-0.154-4.291,1.922-8.55,0.193-12.867c-0.146-0.365,0.029-1.072,0.315-1.363
				c0.854-0.868,0.854-1.657,0.25-2.665c-0.269-0.447-0.3-1.115-0.253-1.664c0.406-4.656,0.938-9.305,1.241-13.968
				c0.107-1.674,0.603-3.468-0.673-5.071c-0.676-0.847-1.016-1.955-1.621-3.178c-0.716-0.134-1.703-0.316-2.815-0.523
				c-0.312,3.793-1.015,7.228,0.064,10.895c1.014,3.441-1.27,6.928-0.526,10.689c0.543,2.754-0.451,5.801-0.698,8.722
				c-0.081,0.987-0.306,2.161,0.103,2.958c1.324,2.593-0.48,4.631-1.248,6.658c-0.505,1.334-2.406,2.642-3.901,2.971
				c-1.656,0.361-3.588,1.859-5.295,0.287c-1.104-1.016-2.315-2.275-2.685-3.639c-0.522-1.951-0.488-4.107-0.387-6.162
				c0.121-2.493,0.854-4.976,0.801-7.451c-0.088-4.088-0.811-8.162-0.854-12.244c-0.032-3.328,0.681-6.658,0.745-9.993
				c0.02-0.897-0.94-2.06-1.771-2.642C555.007,71.524,553.877,71.861,552.669,71.861z M62.014,120.516
				c2.043-0.568,4.057-0.528,4.781-1.474c1.162-1.514,1.664-3.639,2.097-5.586c0.555-2.493,3.058-5.286,5.295-5.448
				c2.42-0.18,3.78,1.151,4.822,4.471c0.457,1.449,1.013,2.906,1.799,4.193c0.342,0.561,1.572,1.129,2.054,0.916
				c0.674-0.3,1.495-1.371,1.431-2.031c-0.244-2.482-0.807-4.937-1.273-7.397c-0.462-2.438-1.103-4.858-1.373-7.32
				c-0.172-1.587,0.231-3.206-1.191-4.487c-0.335-0.299-0.253-1.059-0.372-1.604c-0.419-1.929-0.798-3.867-1.288-5.776
				c-0.279-1.086-0.913-2.095-1.101-3.187c-0.623-3.622-1.08-7.272-1.68-10.897c-0.23-1.394-1.025-2.503-2.612-2.205
				c-0.938,0.176-2.368,0.668-2.566,1.322c-0.552,1.827-0.523,3.823-0.824,5.737c-0.401,2.555-0.869,5.098-1.366,7.634
				c-0.291,1.48-0.753,2.93-1.026,4.411c-0.233,1.271,0.165,3.054-0.551,3.761c-1.64,1.614-1.202,3.493-1.48,5.303
				c-0.479,3.105-0.906,6.221-1.465,9.309C63.544,113.352,62.832,116.529,62.014,120.516z M522.111,120.235
				c0-0.857-0.091-1.693,0.02-2.504c0.299-2.211,0.297-4.579,1.161-6.557c0.629-1.441,2.271-2.906,3.771-3.385
				c2.253-0.717,5.862,1.936,6.583,4.167c0.458,1.419,0.569,2.968,1.147,4.325c0.281,0.662,1.272,1.021,1.942,1.52
				c0.478-0.736,1.383-1.486,1.352-2.199c-0.086-2.117-0.595-4.215-0.82-6.334c-0.089-0.813,0.323-1.689,0.192-2.487
				c-0.411-2.531-1.211-5.022-1.401-7.563c-0.165-2.162-0.171-4.236-1.662-5.984c-0.155-0.184-0.13-0.526-0.175-0.799
				c-0.321-2.008-0.657-4.012-0.963-6.021c-0.36-2.381-1.213-4.833-0.909-7.129c0.375-2.866-0.411-5.048-2.132-7.059
				c-0.466-0.541-1.698-1.188-1.998-0.973c-1.022,0.738-2.422,1.762-2.541,2.809c-0.388,3.379-0.119,6.828-0.406,10.228
				c-0.144,1.69-0.945,3.326-1.447,4.987c-0.202,0.68-0.431,1.352-0.596,2.041c-0.278,1.183-0.494,2.382-0.782,3.562
				c-0.229,0.935-0.589,1.841-0.766,2.78c-0.196,1.059,0.137,2.492-0.452,3.141c-1.123,1.238-1.396,2.618-1.611,4.096
				c-0.105,0.733,0.243,1.686-0.107,2.205c-1.451,2.129-0.201,5.158-2.416,7.006c-0.153,0.13,0.05,0.66,0.053,1.005
				c0.007,1.665,0.002,3.329,0.002,5.125C518.886,120.235,520.574,120.235,522.111,120.235z M137.823,69.143
				c-0.612,0.861-0.969,1.475-1.431,1.992c-0.852,0.948-2.031,1.705-2.595,2.789c-1.07,2.063-2.824,3.952-1.979,6.682
				c0.633,2.049,1.346,4.189,1.341,6.289c-0.009,4.234-0.606,8.438-0.338,12.729c0.187,2.989-1.332,6.087-1.123,9.07
				c0.179,2.559-0.562,5.146,0.53,7.798c0.7,1.702,1.474,2.847,3.069,3.33c1.75,0.528,2.681-0.44,2.981-2.146
				c0.028-0.158,0.419-0.255,0.442-0.412c0.188-1.297,0.422-2.6,0.447-3.903c0.018-0.862-0.429-1.734-0.421-2.603
				c0.028-2.738,0.45-5.5,0.198-8.203c-0.3-3.205,1.539-5.504,4.598-4.791c2.34,0.547,3.652-0.631,4.828-2.22
				c1.251-1.688-0.723-2.272-1.293-3.317c-0.856-1.567-2.046-2.183-3.872-1.373c-1.248,0.555-3.412-0.857-4.085-2.073
				c-1.596-2.868-0.842-5.875-0.488-8.756c0.434-3.538,2.206-4.335,5.87-3.886c1.696,0.207,3.518-0.229,5.216-0.642
				c0.601-0.146,1.295-1.026,1.434-1.683c0.237-1.107,0.064-2.305,0.064-3.619C146.726,69.846,142.127,69.483,137.823,69.143z
				 M392.163,118.18c0.025-0.137,0.051-0.271,0.075-0.408c1.216,0.07,2.431,0.152,3.646,0.209c1.634,0.078,2.408-0.82,2.166-2.48
				c-0.268-1.812-1.771-3.191-3.784-3.373c-2.302-0.206-4.577-0.514-6.888,0.344c-0.662,0.246-2.159-0.304-2.502-0.914
				c-0.962-1.738-1.804-3.648-2.166-5.59c-0.324-1.742,0.028-3.615,0.127-5.431c0.296-5.418,0.605-10.833,0.92-16.247
				c0.118-2.023,0.463-4.061,0.338-6.064c-0.13-2.097-0.5-4.23-1.148-6.224c-0.399-1.221-1.303-2.641-2.378-3.177
				c-1.045-0.523-2.833-0.333-3.331,1.339c-0.546,1.832-1.076,3.731-1.173,5.624c-0.223,4.384-0.145,8.779-0.251,13.171
				c-0.054,2.163-0.333,4.319-0.358,6.483c-0.036,3.039,0.512,6.162-0.016,9.103c-0.501,2.796,0.432,5.261,0.862,7.778
				c0.265,1.531,1.208,3.672,3.515,3.947c2.165,0.262,4.347,0.41,6.5,0.74C388.279,117.305,390.216,117.782,392.163,118.18z
				 M603.112,106.902c0.039,3.038-2.941,7.616-5.725,8.247c-1.312,0.296-3.05,0.926-4.122-0.926
				c-0.28-0.483-1.096-0.631-1.555-1.051c-0.472-0.433-1.089-0.98-1.147-1.531c-0.161-1.49-0.865-2.306-2.319-2.166
				c-1.592,0.152-2.608,1.263-2.258,2.781c0.297,1.293,1.07,2.617,1.989,3.594c2.889,3.056,6.092,5.508,10.704,3.652
				c0.582-0.234,1.161-0.509,1.77-0.65c3.109-0.736,6.364-5.158,6.71-8.349c0.384-3.567,0.298-7.059-0.279-10.577
				c-0.185-1.133-3.005-5.688-4.691-6.059c-1.994-0.438-4.118-0.611-5.933-1.445c-1.546-0.716-3.22-1.962-3.949-3.42
				c-0.843-1.679-0.688-3.851-1.008-5.805c-0.462-2.84,0.935-4.867,3.149-6.184c1.975-1.176,4.148-1.01,6.136,0.429
				c0.674,0.487,1.519,0.913,2.321,0.993c0.65,0.066,1.562-0.252,1.975-0.73c0.301-0.35,0.216-1.418-0.112-1.854
				c-1.976-2.621-3.943-5.346-7.834-5.039c-0.814,0.064-1.686-0.133-2.446,0.084c-3.733,1.056-4.461,4.623-6.025,7.462
				c-0.699,1.27-1.692,2.682-1.646,3.995c0.084,2.394-0.405,4.748,0.599,7.272c1.292,3.255,3.721,6.296,7.301,7.021
				C599.933,97.705,603.045,101.508,603.112,106.902z M29.606,77.027c-0.081-0.019-0.162-0.036-0.242-0.054
				c0.037-0.355,0.231-0.806,0.083-1.049c-0.503-0.839-1.126-1.603-1.704-2.396c-0.76,0.745-2.059,1.42-2.171,2.254
				c-0.294,2.185-0.291,4.465,0,6.653c0.471,3.554-1.018,6.89-0.833,10.396c0.089,1.682-0.158,3.377-0.293,5.062
				c-0.163,2.031-0.615,4.072-0.497,6.084c0.2,3.371,0.716,6.729,1.164,10.084c0.671,5.035,1.489,5.861,6.501,6.703
				c1.026,0.172,2.063,0.365,3.097,0.383c3.291,0.058,6.589,0.166,9.87-0.008c1.76-0.094,2.919-1.608,2.957-3.18
				c0.03-1.273-1.28-1.949-2.769-2.02c-3.173-0.154-6.351-0.377-9.499-0.787c-1.434-0.188-3.434,0.055-3.904-1.891
				c-0.949-3.927-1.792-7.875-1.259-11.998c0.264-2.041,0.106-4.138,0.144-6.205c0.027-1.528,0.17-3.064,0.071-4.588
				c-0.146-2.223-0.457-4.435-0.708-6.649c-0.165-1.46-0.437-2.916-0.488-4.379C29.1,78.647,29.434,77.833,29.606,77.027z"/>
			<path fill="#FAFAFA" d="M95.536,321.353c-3.031-0.188-6.062-0.384-9.092-0.568c-7.006-0.434-11.06-4.189-11.056-11.388
				c0-7.248,0.854-14.496,1.312-21.746c0.066-1.043,0.417-2.383-0.074-3.091c-3.503-5.029-0.846-10.402-1.06-15.591
				c-0.264-6.361,2.767-12.505-0.34-19.232c-1.487-3.23,0.501-8.102,1.018-12.218c0.325-2.591,1.144-5.154,1.216-7.751
				c0.241-8.649,3.406-13.131,11.648-13.163c7.159-0.022,15.168,0.188,21.257,3.307c6.703,3.431,12.621,9.456,15.73,17.107
				c1.304,3.197,3.005,6.383,3.485,9.733c0.664,4.565,0.639,9.299,0.372,13.931c-0.503,8.757-1.167,17.512-2.167,26.225
				c-0.717,6.177-1.509,12.457-3.335,18.361c-2.192,7.076-9.559,8.389-15.206,11.504c-1.933,1.065-3.907,2.108-5.96,2.904
				c-2.435,0.954-4.982,1.623-7.482,2.413C95.713,321.846,95.627,321.598,95.536,321.353z M90.401,297.947
				c0.147,0.019,0.293,0.039,0.441,0.058c-0.177,0.722-0.505,1.448-0.511,2.17c-0.029,5.861,6.464,10.868,11.033,8.086
				c7.064-4.3,13.105-9.679,13.602-18.912c0.176-3.339,0.918-6.672,0.834-9.995c-0.139-5.545,3.1-11.341-1.135-16.661
				c-0.405-0.508,0.109-1.693,0.093-2.562c-0.117-4.44-0.621-8.903-0.306-13.306c0.358-4.996-3.849-7.13-5.732-10.684
				c-2.757-5.23-9.496-8.174-14.518-5.64c-1.683,0.854-3.682,2.836-3.886,4.506c-0.45,3.691-0.626,7.767,0.5,11.224
				c1.79,5.503,1.71,10.387-1.284,15.295c-0.324,0.527-0.225,1.392-0.144,2.077c0.353,3.023,0.744,6.047,1.18,9.066
				c0.429,2.934,0.955,5.856,1.375,8.791c0.078,0.535-0.173,1.112-0.225,1.673C91.273,288.074,90.842,293.008,90.401,297.947z"/>
			<path fill="#FAFAFA" d="M381.386,186.878c-1.685-13.923-0.412-28.258,2.237-42.658c0.914-4.958-0.611-10.349-0.833-15.557
				c-0.053-1.17,0.736-2.356,1.019-3.563c0.333-1.417,1.276-3.559,0.682-4.193c-4.615-4.953-1.76-11.278-3.015-16.821
				c-1.153-5.093,1.731-11.023,2.393-16.629c0.806-6.869,1.427-13.785,1.508-20.687c0.023-1.816-2.226-3.659-4.313-6.834
				c10.186-1.289,19.443-2.491,28.714-3.596c1.275-0.148,3.073-0.299,3.846,0.406c10.341,9.426,24.223,15.989,27.313,31.486
				c1.934,9.697,2.069,19.587-2.602,28.692c-1.866,3.63-4.764,6.802-7.52,9.894c-4.065,4.556-4.384,9.439-1.479,15.386
				c2.25,4.592,3.553,9.642,5.5,14.385c0.766,1.875,2.182,3.478,3.236,5.24c3.735,6.258,6.749,12.638,7.609,20.161
				c0.511,4.409-0.662,6.708-4.08,8.776c-4.486,2.71-8.494,0.404-11.239-2.226c-5.377-5.172-8.229-11.796-9.875-19.355
				c-1.742-7.993-4.885-15.81-8.461-23.208c-2.683-5.531-11.467-5.883-14.119-1.057c-0.896,1.625,0.229,4.255-0.374,6.171
				c-2.135,6.826,0.281,13.148,1.587,19.637c0.879,4.395,1.659,8.877,1.754,13.327c0.094,4.206-7.903,8.241-11.721,6.354
				C386.767,189.24,384.309,188.205,381.386,186.878z M427.498,96.631c-0.779-2.564-1.005-5.516-2.453-7.611
				c-2.593-3.758-5.829-7.099-8.969-10.455c-3.663-3.904-9.713-5.217-13.23-3.115c-6.352,3.795-9.649,11.203-8.619,16.748
				c1.219,6.569,2.097,13.334,1.929,19.982c-0.191,7.767,5.526,12.907,12.926,10.303
				C417.926,119.371,427.961,111.975,427.498,96.631z"/>
			<path fill="#FAFAFA" d="M336.957,221.027c9.339,0.935,17.088,1.655,24.81,2.533c1.105,0.119,2.419,0.771,3.119,1.611
				c3.925,4.685,8.661,9.047,11.194,14.426c1.912,4.075,1.709,9.611,1.051,14.295c-0.661,4.756-2.719,9.425-4.774,13.835
				c-1.744,3.728-1.881,6.767,0.904,9.906c5.702,6.425,7.191,13.868,5.265,22.167c-0.393,1.675,0.082,3.551-0.289,5.231
				c-2.313,10.493-9.82,14.954-19.641,16.836c-2.777,0.538-5.434,1.729-8.137,2.656c-10.259,3.498-20.68-3.31-20.796-14.164
				c-0.076-7.179,1.161-14.361,1.519-21.562c0.148-2.962-0.271-5.992-0.757-8.94c-0.956-5.707-0.544-11.186,2.004-16.448
				c0.505-1.044,1.546-2.725,1.182-3.164c-4.417-5.403-0.071-11.346-1.204-16.94c-0.797-3.983-1.018-8.107-1.152-12.178
				c-0.096-2.708-0.287-5.809,0.894-8.019C332.946,221.62,336.064,221.369,336.957,221.027z M342.276,305.326
				c-0.399,5.354,5.556,10.846,11.46,8.634c4.113-1.534,7.606-4.757,11.313-7.314c0.564-0.388,1.079-1.191,1.167-1.86
				c0.491-3.622,1.521-7.363,1.036-10.876c-0.518-3.781-1.8-7.905-4.065-10.865c-1.992-2.613-5.807-3.837-8.823-5.667
				c-2.726-1.652-8.229-1.064-9.323,1.643c-1.825,4.495-3.329,9.263-3.943,14.045C340.629,296.706,341.75,300.552,342.276,305.326z
				 M352.45,265.651c3.985-0.409,9.238-2.585,12.576-9.484c3.469-7.171-1.736-21.065-10.489-20.789
				c-3.334,0.103-8.475-3.474-10.135,2.399c-1.682,5.96-3.013,12.147-3.391,18.308C340.607,262.631,343.827,265.562,352.45,265.651z
				"/>
			<path fill="#FAFAFA" d="M343.684,178.318c8.754-0.029,12.424-4.612,12.053-13.582c-0.223-5.453,0.854-10.955,1.42-16.428
				c0.815-7.889,2.038-15.769,2.403-23.681c0.163-3.627-1.892-7.345-1.901-11.023c-0.005-5.684,1.389-11.382,1.232-17.045
				c-0.144-5.11,3.303-10.252-1.119-15.704c-1.25-1.542-2.119-8.635,2.803-11.274c1.995-1.063,5.125-2.33,6.618-1.492
				c2.332,1.307,4.781,4.111,5.264,6.65c0.886,4.661,0.527,9.596,0.429,14.417c-0.24,11.345-2.586,23.081-0.376,33.913
				c1.871,9.119-0.437,17.678,0.72,26.463c0.778,5.938,0.64,12.092,0.13,18.082c-0.991,11.55-8.435,20.296-17.954,23.833
				c-8.586,3.194-18.729,4.585-28.905-0.653c-10.889-5.606-13.062-14.09-13.966-24.528c-0.359-4.154-2.507-8.115-3.231-12.267
				c-0.532-3.061-0.175-6.31-0.05-9.463c0.469-11.806,1.135-23.606,1.4-35.416c0.053-2.556-1.643-5.121-1.842-7.735
				c-0.299-3.894-0.21-7.854,0.113-11.76c0.447-5.416,1.32-10.804,1.877-16.21c0.108-1.057-0.6-2.19-0.551-3.27
				c0.104-2.259-0.239-5.99,0.836-6.499c4.628-2.185,9.688-3.514,14.663-4.866c0.323-0.085,1.88,2.212,1.859,3.386
				c-0.156,10.553-0.24,21.137-1.009,31.665c-0.297,4.079-0.133,7.354,2.105,11.011c1.234,2.024,0.354,5.533-0.024,8.318
				c-1.035,7.649-2.354,14.874-0.247,23.02c1.758,6.783-1.079,14.708-1.578,22.155C326.18,168.246,334.836,178.352,343.684,178.318z
				"/>
			<path fill="#FAFAFA" d="M475.502,103.168c0.664-3.348,1.615-6.675,1.915-10.056c0.3-3.374,0.47-6.918-0.217-10.2
				c-1.529-7.29,5.956-16.032,13.422-15.476c4.492,0.332,5.359,3.267,5.952,6.803c0.44,2.631,1.186,5.213,1.645,7.835
				c0.235,1.375,0.09,2.805,0.207,4.203c0.141,1.622,0.334,3.244,0.585,4.855c0.605,3.915,1.326,7.813,1.852,11.738
				c0.118,0.852-0.867,2.063-0.531,2.642c2.089,3.594,2.88,7.098,2.863,11.497c-0.015,4.561,3.004,9.098,4.476,13.716
				c0.528,1.673,0.452,3.553,0.577,5.346c0.035,0.514-0.496,1.239-0.291,1.545c5.644,8.294,4.214,17.548,3.972,26.722
				c-0.052,1.844,1.228,4.043,2.518,5.55c5.357,6.248,3.65,13.623,2.769,20.424c-0.712,5.509-5.802,6.207-9.249,1.584
				c-4.002-5.352-8.482-10.448-8.171-18.058c0.164-4.027-9.503-9.158-13.937-8.074c-5.257,1.271-8.611,6.679-8.505,11.44
				c0.119,5.211-0.084,10.797-1.889,15.557c-1.521,4-5.74,6.447-10.84,4.55c-3.656-1.361-7.248-7.363-6.773-11.376
				c0.739-6.267,1.116-12.592,2.154-18.814c0.656-3.947,2.494-7.684,3.331-11.622c2.054-9.653,3.654-19.399,5.82-29.028
				c0.926-4.118,2.999-7.961,4.166-12.044c1.052-3.673,1.573-7.494,2.333-11.246C475.599,103.181,475.55,103.177,475.502,103.168z
				 M485.546,127.183c-1.055,7.229-2.24,13.066-2.539,18.948c-0.077,1.516,2.384,4.083,4.116,4.551
				c2.003,0.53,5.17-0.033,6.547-1.406c1.245-1.248,1.006-4.221,0.967-6.433c-0.03-1.642-1.27-3.317-1.124-4.893
				C493.986,132.907,490.871,130.603,485.546,127.183z"/>
			<path fill="#FAFAFA" d="M288.479,300.565c2.533-6.708-0.072-12.438-2.896-18.199c-1.747-3.566-3.663-6.026-8.19-6.771
				c-5.9-0.968-11.644-3.141-17.284-5.239c-1.626-0.608-3.309-2.539-3.875-4.231c-1.737-5.161-3.952-10.479-4.085-15.781
				c-0.158-5.839-0.26-12.11,4.267-17.292c1.986-2.281,3.706-6.043,3.351-8.854c-0.636-5.018,3.532-4.103,5.503-5.308
				c1.6-0.981,4.349,0,6.569-0.137c1.464-0.093,2.93-0.56,4.36-0.985c0.702-0.217,1.506-1.185,1.957-1.013
				c3.426,1.354,7.328,2.258,10.017,4.558c3.629,3.103,6.291,7.332,9.383,11.069c2.097,2.534,2.294,7.948,0.342,9.969
				c-3.452,3.566-9.428,1.633-11.513-3.036c-1.226-2.743-3.59-5.842-6.203-6.894c-4.607-1.85-10.544-1.941-13.163,2.842
				c-2.056,3.751-2.523,9.14-1.81,13.489c1.563,9.411,2.926,9.796,12.662,11.635c3.841,0.722,7.436,2.808,11.083,4.394
				c2.262,0.983,5.216,1.634,6.473,3.414c3.291,4.679,5.387,10.104,4.993,15.982c-0.59,8.772-1.403,17.525-2.407,26.261
				c-0.181,1.566-1.587,3.097-2.689,4.427c-3.289,3.969-7.314,6.914-12.49,7.879c-2.001,0.379-4.053,0.524-6.083,0.614
				c-1.964,0.079-4.203-0.675-5.854,0.031c-6.314,2.696-10.076-1.347-13.101-5.306c-3.394-4.432-5.753-9.688-8.266-14.729
				c-0.5-1-0.12-3.426,0.653-3.901c2.684-1.654,5.707-3.797,8.617-3.819c5.496-0.051,5.485,5.903,7.417,9.272
				c4.204,7.325,10.09,8.974,16.669,3.435c2.505-2.109,4.655-4.635,6.969-6.97C289.395,301.095,288.936,300.831,288.479,300.565z"/>
			<path fill="#FAFAFA" d="M188.428,227.173c-7.847,0-15.14,0.108-22.427-0.032c-5.896-0.109-9.333,2.803-9.756,8.79
				c-0.416,6.01-0.845,12.016-1.026,18.033c-0.143,4.602,1.946,6.613,6.67,7.157c3.238,0.365,6.496,0.733,9.709,1.321
				c1.157,0.205,2.407,0.842,3.251,1.659c2.107,2.04,4.717,3.907,1.596,7.406c-3.119,3.501-7.645,5.169-11.073,3.355
				c-5.444-2.877-11.178-0.831-12.375,5.096c-1.235,6.061-3.198,12.151,0.101,18.551c1.422,2.759-0.135,7.014,3.707,8.915
				c1.394,0.693,2.98,1.262,4.514,1.352c5.987,0.364,11.99,0.569,17.991,0.732c4.668,0.131,5.592,3.702,4.814,6.761
				c-0.504,1.969-3.597,4.432-5.717,4.626c-6.146,0.562-12.373,0.134-18.571-0.011c-3.157-0.071-6.308-0.443-9.465-0.535
				c-6.001-0.176-9.788-4.624-9.31-10.652c0.142-1.77-0.738-3.597-0.95-5.429c-0.306-2.615-0.778-5.284-0.582-7.889
				c0.582-7.641,2.248-15.289,2.027-22.892c-0.296-9.824,2.119-19.147,3.351-28.683c0.099-0.772-0.694-1.614-0.83-2.457
				c-0.336-2.172-0.482-4.372-0.796-6.552c-0.371-2.524-1.281-5.056-1.151-7.544c0.144-2.928-1.255-6.02,2.114-8.728
				c6.216-4.988,13.419-2.937,20.181-3.983c3.754-0.582,7.495-1.307,11.207-2.112c4.638-1.001,8.361,0.578,11.954,3.421
				c2.867,2.271,3.173,4.534,1.347,7.499C188.509,225.042,188.607,226.062,188.428,227.173z"/>
			<path fill="#FAFAFA" d="M431.807,223.92c2.571,0,4.975-0.715,6.256,0.178c1.769,1.24,3.807,3.719,3.771,5.62
				c-0.14,7.099-1.662,14.191-1.585,21.271c0.088,8.692,1.627,17.368,1.816,26.065c0.113,5.269-1.443,10.554-1.705,15.859
				c-0.212,4.374-0.289,8.968,0.822,13.116c0.783,2.903,3.366,5.579,5.712,7.744c3.636,3.348,7.743,0.161,11.271-0.612
				c3.186-0.702,7.23-3.481,8.306-6.322c1.629-4.316,5.475-8.652,2.655-14.175c-0.867-1.697-0.393-4.192-0.215-6.295
				c0.533-6.219,2.641-12.704,1.485-18.562c-1.583-8.01,3.28-15.43,1.121-22.753c-2.292-7.804-0.804-15.115-0.137-23.193
				c2.364,0.444,4.469,0.838,5.994,1.119c1.288,2.602,2.017,4.961,3.45,6.765c2.716,3.411,1.662,7.23,1.433,10.796
				c-0.647,9.93-1.783,19.816-2.643,29.734c-0.1,1.172-0.032,2.583,0.536,3.537c1.288,2.143,1.288,3.821-0.527,5.677
				c-0.612,0.622-0.989,2.116-0.676,2.9c3.677,9.191-0.742,18.254-0.413,27.388c0.055,1.418-1.863,2.998-3.038,4.36
				c-5.817,6.747-13.654,8.595-22.09,9.977c-5.602,0.921-9.392-2.443-14.088-3.479c-1.005-0.222-1.945-0.766-2.899-1.189
				c-3.547-1.572-6.368-3.185-5.835-8.192c0.36-3.437-1.947-7.123-1.731-10.615c0.42-6.844,0.098-13.494-0.983-20.263
				c-0.61-3.819,0.205-7.961,0.881-11.869c0.649-3.735,1.185-7.282,0.705-11.189c-0.463-3.805,0.849-7.793,1.106-11.721
				c0.313-4.807,0.286-9.633,0.526-14.441C431.202,228.652,431.573,226.165,431.807,223.92z"/>
			<path fill="#FAFAFA" d="M145.39,199.852c2.165-10.542,4.05-18.946,5.58-27.399c1.481-8.169,2.61-16.398,3.873-24.614
				c0.736-4.787-0.424-9.755,3.917-14.024c1.896-1.868,0.84-6.585,1.455-9.941c0.724-3.919,1.95-7.749,2.711-11.665
				c1.316-6.703,2.549-13.438,3.614-20.188c0.796-5.06,0.72-10.336,2.179-15.174c0.523-1.73,4.301-3.03,6.786-3.496
				c4.189-0.782,6.295,2.145,6.907,5.833c1.589,9.581,2.793,19.235,4.442,28.814c0.496,2.888,2.171,5.555,2.909,8.424
				c1.297,5.049,2.294,10.178,3.407,15.274c0.314,1.444,0.098,3.451,0.982,4.243c3.758,3.393,2.692,7.675,3.146,11.872
				c0.711,6.506,2.406,12.899,3.631,19.354c1.234,6.511,2.723,12.994,3.363,19.558c0.174,1.755-2,4.582-3.781,5.375
				c-1.275,0.558-4.523-0.949-5.43-2.429c-2.079-3.399-3.553-7.25-4.757-11.088c-2.756-8.775-6.355-12.291-12.751-11.818
				c-5.912,0.429-12.533,7.818-13.999,14.407c-1.147,5.143-2.474,10.768-5.546,14.771
				C156.116,198.452,150.795,198.344,145.39,199.852z M182.41,152.185c2.888-8.655,0.458-15.543-2.962-22.058
				c-1.26-2.4-3.772-2.462-4.996,0.674c-0.949,2.417-1.099,5.449-2.688,7.278c-4.27,4.901-1.651,8.457,2.032,11.272
				C175.938,151.008,179.193,151.197,182.41,152.185z"/>
			<path fill="#FAFAFA" d="M390.901,326.888c-3.27,0-6.86,0-10.561,0c0-3.817,0.013-7.362-0.004-10.905
				c-0.008-0.737-0.438-1.861-0.114-2.138c4.713-3.931,2.056-10.38,5.146-14.918c0.744-1.101,0.002-3.132,0.229-4.687
				c0.459-3.143,1.042-6.078,3.429-8.719c1.251-1.376,0.545-4.432,0.967-6.684c0.377-2.006,1.146-3.925,1.63-5.918
				c0.611-2.515,1.068-5.068,1.665-7.585c0.35-1.464,0.835-2.894,1.271-4.339c1.064-3.541,2.77-7.023,3.079-10.62
				c0.608-7.234,0.04-14.582,0.864-21.77c0.259-2.226,3.227-4.405,5.406-5.979c0.641-0.456,3.266,0.917,4.253,2.073
				c3.666,4.274,5.337,8.923,4.535,15.019c-0.641,4.893,1.17,10.112,1.94,15.175c0.648,4.278,1.363,8.548,2.052,12.819
				c0.091,0.577,0.034,1.313,0.365,1.697c3.179,3.725,3.189,8.142,3.539,12.74c0.411,5.406,2.107,10.711,2.982,16.104
				c0.276,1.697-0.601,3.557-0.412,5.295c0.481,4.509,1.562,8.97,1.753,13.48c0.059,1.519-1.864,3.119-2.881,4.682
				c-1.43-1.058-3.537-1.823-4.138-3.231c-1.23-2.89-1.468-6.184-2.44-9.204c-1.535-4.756-9.22-10.397-14.015-8.872
				c-3.198,1.017-6.693,4.136-8.028,7.2c-1.837,4.217-1.835,9.255-2.471,13.962C390.709,323.284,390.901,325.064,390.901,326.888z
				 M400.374,279.603c0.123,2.516-0.408,4.723,0.455,5.955c1.133,1.625,3.274,2.68,5.18,3.55c0.643,0.287,2.286-0.493,2.79-1.246
				c2.245-3.355,1.637-14.416-0.963-17.608c-0.749-0.925-2.22-1.913-3.22-1.781c-0.93,0.123-2.081,1.584-2.396,2.66
				C401.351,274.138,400.863,277.26,400.374,279.603z"/>
			<path fill="#FAFAFA" d="M262.974,64.012c11.384,0.894,23.544,1.854,35.428,2.789c0,3.476,0.455,6.634-0.172,9.57
				c-0.367,1.729-2.208,4.065-3.793,4.444c-4.496,1.093-9.31,2.248-13.792,1.696c-9.691-1.187-14.375,0.917-15.522,10.276
				c-0.937,7.62-2.929,15.562,1.288,23.156c1.785,3.205,7.504,6.944,10.804,5.477c4.827-2.142,7.973-0.519,10.238,3.63
				c1.508,2.765,6.731,4.303,3.418,8.782c-3.109,4.19-6.578,7.304-12.765,5.861c-8.092-1.889-12.951,4.188-12.157,12.667
				c0.667,7.148-0.449,14.46-0.525,21.693c-0.021,2.291,1.16,4.592,1.111,6.881c-0.064,3.447-0.685,6.891-1.181,10.321
				c-0.061,0.412-1.093,0.669-1.172,1.09c-0.791,4.501-3.26,7.065-7.883,5.668c-4.219-1.27-6.26-4.298-8.117-8.802
				c-2.884-7.006-0.925-13.859-1.398-20.619c-0.553-7.889,3.46-16.077,2.969-23.984c-0.711-11.344,0.869-22.455,0.895-33.659
				c0.01-5.547-1.873-11.215-3.545-16.621c-2.233-7.22,2.404-12.218,5.231-17.674c1.493-2.865,4.614-4.866,6.862-7.38
				C260.414,67.909,261.359,66.287,262.974,64.012z"/>
			<path fill="#FAFAFA" d="M228.52,322.514c-4.149-0.852-8.267-1.86-12.443-2.506c-4.59-0.697-9.229-1.013-13.834-1.567
				c-4.911-0.592-6.92-5.144-7.482-8.407c-0.92-5.355-2.899-10.604-1.834-16.559c1.118-6.258-0.045-12.901,0.032-19.374
				c0.055-4.601,0.65-9.192,0.766-13.801c0.226-9.345,0.062-18.701,0.532-28.032c0.201-4.033,1.336-8.074,2.498-11.97
				c1.063-3.558,4.863-3.966,7.09-2.852c2.285,1.145,4.211,4.163,5.064,6.763c1.38,4.242,2.167,8.785,2.444,13.245
				c0.262,4.275-0.467,8.602-0.72,12.911c-0.667,11.524-1.332,23.054-1.958,34.583c-0.209,3.858-0.96,7.852-0.27,11.561
				c0.767,4.134,2.56,8.194,4.61,11.889c0.729,1.31,3.916,2.474,5.324,1.951c4.916-1.817,9.762-1.167,14.663-0.729
				c4.284,0.385,7.484,3.32,8.054,7.178c0.515,3.532-1.132,5.448-4.61,5.279c-2.59-0.117-5.176-0.284-7.761-0.441
				C228.627,321.937,228.575,322.228,228.52,322.514z"/>
			<path fill="#FAFAFA" d="M524.325,298.506c-0.146-11.479-6.771-19.573-17.869-21.818c-7.622-1.541-12.791-8.014-15.538-14.938
				c-2.138-5.376-1.096-10.387-1.277-15.482c-0.1-2.8,2.018-5.802,3.504-8.508c3.332-6.038,4.88-13.638,12.825-15.881
				c1.624-0.461,3.474-0.044,5.21-0.18c8.282-0.651,12.469,5.148,16.677,10.726c0.697,0.925,0.878,3.205,0.241,3.946
				c-0.879,1.019-2.821,1.697-4.204,1.556c-1.71-0.171-3.507-1.081-4.943-2.119c-4.229-3.057-8.855-3.412-13.061-0.91
				c-4.718,2.808-7.679,7.116-6.7,13.162c0.676,4.159,0.351,8.78,2.146,12.359c1.552,3.101,5.113,5.753,8.41,7.271
				c3.851,1.778,8.373,2.15,12.619,3.082c3.588,0.788,9.592,10.481,9.993,12.892c1.224,7.491,1.408,14.919,0.588,22.518
				c-0.735,6.789-7.664,16.204-14.277,17.771c-1.299,0.3-2.524,0.88-3.768,1.381c-9.821,3.95-16.641-1.268-22.784-7.773
				c-1.963-2.074-3.607-4.901-4.234-7.65c-0.746-3.235,1.414-5.6,4.801-5.92c3.1-0.297,4.598,1.433,4.939,4.604
				c0.125,1.176,1.438,2.341,2.443,3.263c0.977,0.896,2.713,1.206,3.308,2.237c2.286,3.94,5.979,2.601,8.776,1.975
				C518.062,314.719,524.405,304.976,524.325,298.506z"/>
			<path fill="#FAFAFA" d="M89.683,84.851c-0.45,2.136-1.336,4.283-1.266,6.404c0.134,3.867,0.852,7.713,1.292,11.578
				c0.659,5.858,1.482,11.71,1.871,17.584c0.26,4.021-0.118,8.087-0.189,12.13c-0.099,5.469,0.313,11.011-0.381,16.41
				c-1.413,10.901,0.816,21.344,3.333,31.728c1.243,5.143,6.527,4.503,10.325,4.999c8.318,1.083,16.724,1.671,25.111,2.077
				c3.938,0.198,7.405,1.971,7.327,5.338c-0.102,4.154-3.165,8.164-7.82,8.412c-8.675,0.449-17.397,0.164-26.094,0.014
				c-2.735-0.043-5.479-0.555-8.19-1.01c-13.25-2.227-15.419-4.406-17.19-17.726c-1.182-8.875-2.549-17.747-3.075-26.66
				c-0.313-5.324,0.88-10.724,1.312-16.094c0.356-4.46,1.01-8.943,0.774-13.386c-0.488-9.276,3.452-18.097,2.204-27.497
				c-0.768-5.788-0.779-11.817,0-17.593c0.295-2.203,3.732-3.987,5.742-5.956c1.528,2.091,3.174,4.114,4.505,6.33
				c0.388,0.643-0.122,1.829-0.219,2.771C89.254,84.759,89.471,84.804,89.683,84.851z"/>
		</g>
	</g>
</g>
</svg>
