<?xml version="1.0" encoding="UTF-8"?>
<svg width="164px" height="73px" viewBox="0 0 164 73" version="1.1" xmlns="http://www.w3.org/2000/svg" xmlns:xlink="http://www.w3.org/1999/xlink">
    <!-- Generator: Sketch 60.1 (88133) - https://sketch.com -->
    <title>Group 54</title>
    <desc>Created with Sketch.</desc>
    <defs>
        <polygon id="path-1" points="0.0944 0.725 63.2348429 0.725 63.2348429 51.4275 0.0944 51.4275"></polygon>
        <polygon id="path-3" points="0 0.9161 15.141 0.9161 15.141 15 0 15"></polygon>
    </defs>
    <g id="Page-1" stroke="none" stroke-width="1" fill="none" fill-rule="evenodd">
        <g id="Group-54" transform="translate(0.000000, -1.000000)">
            <polygon id="Fill-1" fill="#FEFEFE" points="0.479 55.5954 162.326 55.5954 162.326 55.3514 0.479 55.3514"></polygon>
            <polygon id="Fill-2" fill="#FEFEFE" points="0.479 55.8384 162.326 55.8384 162.326 55.5964 0.479 55.5964"></polygon>
            <g id="Group-53" transform="translate(0.000000, 0.275400)">
                <g id="Group-5" transform="translate(48.000000, 0.000000)">
                    <mask id="mask-2" fill="white">
                        <use xlink:href="#path-1"></use>
                    </mask>
                    <g id="Clip-4"></g>
                    <path d="M56.3984,1.2305 C56.1854,4.9705 53.1074,7.4945 51.4884,10.6525 C50.7964,12.5375 49.1524,13.6525 47.9844,15.3515 C46.9214,16.4395 45.8864,17.6325 45.0094,18.8555 C45.1694,19.7305 46.0974,19.9705 46.6284,20.6075 C47.8244,21.3245 47.9574,22.6775 48.9924,23.5015 C49.6034,23.5015 49.6034,24.4045 50.2654,24.2965 C51.6734,25.8105 52.8144,27.3765 53.9824,29.0215 C54.1684,29.6075 54.4614,30.1895 54.9644,30.6155 C55.8944,31.9685 56.6644,33.4025 57.6194,34.7835 C57.7524,36.3225 59.0524,37.3575 59.4514,38.7915 C60.0354,39.5605 60.2734,40.4625 60.8044,41.2345 C61.6284,43.0395 62.1854,44.9235 63.1684,46.6485 C63.3534,47.0465 63.1154,47.4455 62.9024,47.7385 C62.5314,48.0295 62.2384,47.4985 61.8144,47.5785 C59.6364,46.7815 57.5664,45.6385 55.5484,44.4185 C53.4784,42.7465 51.1954,41.5525 49.1524,39.7985 C48.3554,39.5875 48.0374,38.6605 47.2934,38.2875 C45.3304,37.0665 43.7614,35.3145 41.7714,34.1715 C40.8694,33.4825 39.9664,32.8185 39.0644,32.1015 C38.3744,32.0215 38.1344,31.2245 37.4704,30.9885 C35.9854,30.0845 34.6304,28.8355 33.1184,27.9865 C32.9844,28.1995 33.1184,28.5195 32.9844,28.7305 C31.9764,29.7125 32.2424,31.2245 31.5254,32.3145 C31.4984,33.8805 30.4104,35.0215 29.9594,36.4025 C28.7114,38.6325 27.6234,40.9145 26.3224,43.1195 C24.5954,45.4025 23.6684,48.1625 21.2244,49.9945 C20.6934,50.6585 20.0844,51.0015 19.4194,51.4275 C19.1274,51.3475 18.7034,51.4005 18.6244,51.0295 C18.3324,50.4705 18.7034,49.6215 18.3044,49.1195 C18.6504,48.3475 18.4374,47.4725 18.5964,46.6215 L18.4644,46.2515 C18.4904,45.0825 19.0754,44.1015 18.8354,42.9065 C19.1544,42.1625 19.2874,41.3395 19.3674,40.5175 C19.7384,39.5075 20.0564,38.4195 20.1644,37.3305 C20.5074,36.6935 20.6414,35.8715 20.5614,35.1285 C20.8274,34.4375 20.8794,33.6155 21.5974,33.1115 C21.7034,32.6605 21.5974,32.2075 21.6754,31.7305 C22.3934,29.5525 23.2694,27.4575 23.8264,25.2265 C23.8264,25.0685 23.6684,25.0135 23.5604,24.9885 C21.9944,24.9085 20.5354,25.2265 19.0754,24.8285 C16.6854,24.8025 14.2704,24.4825 11.9874,24.0035 C11.0584,23.8185 9.9434,23.9255 9.0934,23.3945 C8.5364,23.4215 7.8984,23.5275 7.3694,23.2365 C6.2794,22.7035 4.9534,22.7835 3.8644,22.2015 C3.0414,22.3065 2.4574,21.7755 1.7144,21.6955 C0.9974,21.7505 0.5994,21.1385 0.0944,20.7405 L0.0944,20.5005 C1.4214,18.6955 3.5454,18.1915 5.4574,17.5015 C7.3414,16.9185 9.4394,16.8655 11.4024,16.4665 C12.6504,16.2535 14.0044,16.5975 15.2524,16.3865 C17.5084,16.4395 19.6854,16.8105 21.9164,16.8655 C22.6584,16.9705 23.3494,17.3165 24.0914,17.2895 L24.0654,16.9705 L21.9684,14.1035 C21.1714,12.2465 19.7114,10.6795 19.2074,8.7145 C18.7304,8.1305 19.1814,7.2535 18.8094,6.6175 C18.7834,6.3265 19.0214,6.1135 19.1544,5.8755 C19.6054,5.6895 20.1114,6.0075 20.5614,5.7145 C21.9164,6.0335 23.1644,6.5115 24.5164,6.7775 C25.9234,7.3345 27.3574,7.8925 28.6054,8.8225 C30.1714,9.9355 32.0564,10.6525 33.2774,12.3765 C33.5954,12.6695 34.0994,12.7225 34.5254,12.6175 C34.8964,12.5645 34.9764,12.1135 35.3204,11.9805 C36.9664,10.9455 38.8244,10.3615 40.4454,9.2185 C41.1084,8.5545 42.1694,8.4765 42.5684,7.5725 C43.0724,7.3345 43.5234,7.0155 44.0544,6.8845 C44.9844,6.2205 45.9124,5.5035 46.9214,4.9705 C47.4534,4.9195 47.8774,4.6265 48.3024,4.3345 C49.9494,3.4315 51.6734,2.6895 53.2404,1.6545 C53.5854,0.7245 54.6194,0.9375 55.3634,0.7245 C55.7344,0.8045 56.2404,0.7515 56.3984,1.2305" id="Fill-3" fill="#FEFEFE" mask="url(#mask-2)"></path>
                </g>
                <path d="M65.0313,26.8984 C65.5623,27.2694 65.5353,28.0134 66.0133,28.3844 L66.2523,30.0314 L65.0563,31.7834 C63.5453,32.5804 61.2893,32.9254 59.8813,31.6504 C59.0853,30.9334 58.8733,29.8984 59.0853,28.8634 L59.6423,27.3494 C59.9613,27.1364 60.3853,27.0844 60.5973,26.7124 C61.3413,26.2344 62.2973,26.3414 63.1463,26.1564 C63.7833,26.3694 64.7383,26.0234 65.0313,26.8984" id="Fill-6" fill="#FEFEFE"></path>
                <path d="M61.1025,36.5879 C61.5805,36.5879 61.9255,36.9339 62.3765,36.8539 C63.0135,37.0919 62.9335,37.8609 63.5975,38.0489 C64.1015,39.0569 64.4195,40.1449 64.6855,41.2339 C64.4995,41.8709 65.0315,42.2419 64.8445,42.8259 L65.0315,42.9339 C65.0565,43.5429 64.9785,44.2339 64.7385,44.8169 C64.8445,45.9319 64.2875,46.8609 63.8105,47.8179 C63.4645,48.0289 63.3055,48.6409 62.8285,48.5329 C61.9775,48.7989 61.8985,50.0719 60.8635,49.9139 C60.1995,50.4179 59.2965,50.1269 58.5005,50.1519 C58.0485,49.9139 57.4125,49.9669 57.0935,49.5679 C56.2965,49.2499 55.5805,48.6659 54.8905,48.0819 C54.6245,47.4979 54.0135,47.2329 53.9345,46.5679 C54.1735,45.7739 53.6685,45.0569 53.8825,44.2599 L53.7225,42.9339 L54.2265,40.6499 C55.0765,40.1969 54.8375,39.1619 55.6865,38.8459 C56.2165,37.6229 57.4925,37.3579 58.4735,36.7459 C58.8455,36.6679 59.2965,36.8809 59.5885,36.5349 C60.1195,36.4549 60.6245,37.0139 61.1025,36.5879" id="Fill-8" fill="#FEFEFE"></path>
                <path d="M99.3105,59.5859 C99.8065,61.2679 98.5405,62.5329 98.1265,64.0199 C98.0175,64.2379 97.7165,64.1309 97.5215,64.1019 L97.4685,63.9649 C97.6325,62.8089 98.5135,61.7359 97.9905,60.4959 C97.8535,59.9999 96.9975,59.9999 97.2205,59.4199 C97.3575,59.2289 97.3575,58.8989 97.6605,58.9259 C98.2945,58.8439 99.1465,58.8159 99.3105,59.5859" id="Fill-10" fill="#FEFEFE"></path>
                <path d="M100.293,60.0879 C100.977,59.9899 102.516,59.4469 103.02,58.9009 L103.414,58.9009 C103.393,59.9529 103.336,61.8629 103.336,63.6559 L103.336,71.2189 C103.336,71.8829 103.492,72.2339 104.092,72.3299 L104.092,72.7209 C103.51,72.7209 102.926,72.6639 102.34,72.6639 C101.775,72.6639 101.227,72.7209 100.666,72.7209 L100.666,72.3299 C101.287,72.2339 101.441,71.8829 101.441,71.4529 L101.441,65.1369 C101.441,64.0079 101.346,62.5469 101.287,61.8069 C101.248,61.0059 100.916,60.5369 100.293,60.5369 L100.293,60.0879 Z" id="Fill-12" fill="#FEFEFE"></path>
                <path d="M109.4297,68.5684 C109.2167,68.5314 108.8457,68.4724 108.4957,68.4724 C107.5957,68.4724 106.6637,68.9394 106.6637,70.1874 C106.6637,71.0844 107.3667,71.7654 108.1837,71.7654 C108.7887,71.7654 109.1777,71.6314 109.4907,71.4354 L109.4297,68.5684 Z M105.6307,66.6754 L105.6307,64.8284 C106.4497,64.5914 107.2287,64.4764 108.1467,64.4764 C109.8807,64.4764 111.3617,64.9454 111.3617,66.8924 C111.3617,67.5954 111.3007,68.6074 111.2817,69.7184 L111.2817,70.4004 C111.2817,71.2974 111.4417,71.5524 111.8687,71.5524 C111.9647,71.5524 112.1427,71.5134 112.2777,71.4724 L112.5687,71.7654 L111.1097,72.9354 C110.3667,72.8394 109.7837,72.4664 109.5487,71.9804 C108.8867,72.4664 108.2657,72.9354 107.4047,72.9354 C106.0797,72.9354 104.7717,72.1154 104.7717,70.6734 C104.7717,68.6074 106.7407,67.8084 108.5157,67.8084 C108.8277,67.8084 109.1567,67.8674 109.4297,67.8674 C109.4297,66.8164 109.3537,65.6464 108.0297,65.6464 C107.0727,65.6464 106.5857,65.9554 106.0977,66.6754 L105.6307,66.6754 Z" id="Fill-14" fill="#FEFEFE"></path>
                <path d="M128.2461,62.0254 L127.4081,62.0254 C126.7891,60.1504 124.8321,59.4084 123.1171,59.4084 C119.6441,59.4084 118.2071,62.2054 118.2071,65.5564 C118.2071,71.1854 122.2771,72.1444 123.9341,72.1444 C125.5531,72.1444 127.0101,71.4454 127.8871,70.0484 L128.5061,70.3084 L127.8871,72.5214 C126.2911,72.8244 125.2931,72.9844 123.9941,72.9844 C118.0451,72.9844 115.4331,69.3104 115.4331,65.7164 C115.4331,61.6054 118.6051,58.5724 123.0781,58.5724 C125.6721,58.5724 126.6701,59.0094 128.0881,59.3714 L128.2461,62.0254 Z" id="Fill-16" fill="#FEFEFE"></path>
                <path d="M134.3105,68.5684 C134.0955,68.5314 133.7245,68.4724 133.3735,68.4724 C132.4765,68.4724 131.5425,68.9394 131.5425,70.1874 C131.5425,71.0844 132.2445,71.7654 133.0625,71.7654 C133.6655,71.7654 134.0565,71.6314 134.3695,71.4354 L134.3105,68.5684 Z M130.5075,66.6754 L130.5075,64.8284 C131.3265,64.5914 132.1055,64.4764 133.0235,64.4764 C134.7575,64.4764 136.2385,64.9454 136.2385,66.8924 C136.2385,67.5954 136.1815,68.6074 136.1625,69.7184 L136.1625,70.4004 C136.1625,71.2974 136.3165,71.5524 136.7465,71.5524 C136.8435,71.5524 137.0175,71.5134 137.1565,71.4724 L137.4495,71.7654 L135.9845,72.9354 C135.2465,72.8394 134.6605,72.4664 134.4275,71.9804 C133.7635,72.4664 133.1405,72.9354 132.2815,72.9354 C130.9565,72.9354 129.6525,72.1154 129.6525,70.6734 C129.6525,68.6074 131.6215,67.8084 133.3925,67.8084 C133.7055,67.8084 134.0375,67.8674 134.3105,67.8674 C134.3105,66.8164 134.2325,65.6464 132.9085,65.6464 C131.9535,65.6464 131.4625,65.9554 130.9745,66.6754 L130.5075,66.6754 Z" id="Fill-18" fill="#FEFEFE"></path>
                <path d="M139.6699,61.1797 C140.2319,61.1797 140.7379,61.5917 140.7379,62.1777 C140.7379,62.7597 140.2319,63.1697 139.6699,63.1697 C139.1019,63.1697 138.5959,62.7597 138.5959,62.1777 C138.5959,61.5917 139.1019,61.1797 139.6699,61.1797 L139.6699,61.1797 Z M140.6229,64.4767 C140.6229,65.2927 140.6989,67.0097 140.6989,68.6077 L140.6989,71.4527 C140.6989,72.1157 141.0119,72.2147 141.4609,72.3297 L141.4609,72.7207 C140.8769,72.7207 140.2909,72.6637 139.7089,72.6637 C139.1839,72.6637 138.6539,72.6997 138.1269,72.7207 L138.1269,72.3297 C138.5959,72.2147 138.8109,72.1157 138.8109,71.4527 L138.8109,69.0367 C138.8109,67.6327 138.6929,66.8557 138.5329,66.4437 C138.3809,66.0547 138.1839,65.9197 137.7189,65.8397 L137.7189,65.4507 C138.6149,65.2367 139.6489,64.8657 140.2319,64.4767 L140.6229,64.4767 Z" id="Fill-20" fill="#FEFEFE"></path>
                <path d="M142.4316,72.3301 C143.0546,72.2341 143.4646,71.7461 143.7206,71.4161 L145.6096,68.9961 L143.3656,65.9551 C142.9936,65.4691 142.8596,65.3341 142.2946,65.0781 L142.2946,64.6891 C142.8786,64.7111 143.4866,64.7481 144.0706,64.7481 C144.6546,64.7481 145.2406,64.7111 145.8246,64.6891 L145.8246,65.0781 C145.5896,65.1951 145.4136,65.2361 145.4136,65.5271 C145.4136,65.6641 145.4726,65.9201 145.6486,66.1521 L146.7186,67.6151 L147.6736,66.3481 C147.8686,66.0741 147.9666,65.8401 147.9666,65.7031 C147.9666,65.3341 147.7346,65.1951 147.4216,65.0781 L147.4216,64.6891 C147.9496,64.7111 148.4526,64.7481 148.9826,64.7481 C149.4886,64.7481 150.0136,64.7111 150.5216,64.6891 L150.5216,65.0781 C149.7596,65.2541 149.3536,65.7231 148.9236,66.2691 L147.2636,68.3731 L149.3686,71.2971 C149.6616,71.6871 150.1136,72.1761 150.5996,72.3301 L150.5996,72.7211 C150.0136,72.6991 149.4496,72.6641 148.8636,72.6641 C148.2796,72.6641 147.7146,72.6991 147.1286,72.7211 L147.1286,72.3301 C147.3456,72.3121 147.5196,72.0961 147.5196,71.9021 C147.5196,71.7851 147.3636,71.4731 147.2066,71.2401 L146.1546,69.7401 L145.1036,71.1601 C144.9846,71.3381 144.8276,71.7071 144.8276,71.8831 C144.8276,72.1951 144.9846,72.2931 145.2406,72.3301 L145.2406,72.7211 C144.7306,72.6991 144.2066,72.6641 143.6996,72.6641 C143.2696,72.6641 142.8596,72.6991 142.4316,72.7211 L142.4316,72.3301 Z" id="Fill-22" fill="#FEFEFE"></path>
                <path d="M155.7832,68.5684 C155.5682,68.5314 155.1992,68.4724 154.8462,68.4724 C153.9492,68.4724 153.0122,68.9394 153.0122,70.1874 C153.0122,71.0844 153.7152,71.7654 154.5352,71.7654 C155.1382,71.7654 155.5292,71.6314 155.8402,71.4354 L155.7832,68.5684 Z M151.9782,66.6754 L151.9782,64.8284 C152.7972,64.5914 153.5802,64.4764 154.4962,64.4764 C156.2302,64.4764 157.7112,64.9454 157.7112,66.8924 C157.7112,67.5954 157.6562,68.6074 157.6332,69.7184 L157.6332,70.4004 C157.6332,71.2974 157.7872,71.5524 158.2192,71.5524 C158.3142,71.5524 158.4922,71.5134 158.6292,71.4724 L158.9182,71.7654 L157.4572,72.9354 C156.7192,72.8394 156.1332,72.4664 155.8982,71.9804 C155.2342,72.4664 154.6112,72.9354 153.7542,72.9354 C152.4282,72.9354 151.1212,72.1154 151.1212,70.6734 C151.1212,68.6074 153.0902,67.8084 154.8652,67.8084 C155.1782,67.8084 155.5082,67.8674 155.7832,67.8674 C155.7832,66.8164 155.7052,65.6464 154.3772,65.6464 C153.4242,65.6464 152.9332,65.9554 152.4472,66.6754 L151.9782,66.6754 Z" id="Fill-24" fill="#FEFEFE"></path>
                <path d="M96.6113,59.5859 C97.1053,61.2679 95.8413,62.5329 95.4273,64.0199 C95.3163,64.2379 95.0133,64.1309 94.8223,64.1019 L94.7653,63.9649 C94.9313,62.8089 95.8143,61.7359 95.2873,60.4959 C95.1523,59.9999 94.2953,59.9999 94.5173,59.4199 C94.6563,59.2289 94.6563,58.8989 94.9613,58.9259 C95.5933,58.8439 96.4473,58.8159 96.6113,59.5859" id="Fill-26" fill="#FEFEFE"></path>
                <path d="M163.5645,59.5859 C164.0605,61.2679 162.7945,62.5329 162.3805,64.0199 C162.2695,64.2379 161.9665,64.1309 161.7735,64.1019 L161.7185,63.9649 C161.8845,62.8089 162.7655,61.7359 162.2445,60.4959 C162.1035,59.9999 161.2515,59.9999 161.4705,59.4199 C161.6075,59.2289 161.6075,58.8989 161.9125,58.9259 C162.5435,58.8439 163.3985,58.8159 163.5645,59.5859" id="Fill-28" fill="#FEFEFE"></path>
                <path d="M160.8613,59.5859 C161.3573,61.2679 160.0903,62.5329 159.6773,64.0199 C159.5683,64.2379 159.2653,64.1309 159.0723,64.1019 L159.0173,63.9649 C159.1833,62.8089 160.0623,61.7359 159.5433,60.4959 C159.4043,59.9999 158.5523,59.9999 158.7713,59.4199 C158.9063,59.2289 158.9063,58.8989 159.2093,58.9259 C159.8413,58.8439 160.6973,58.8159 160.8613,59.5859" id="Fill-30" fill="#FEFEFE"></path>
                <g id="Group-34" transform="translate(0.000000, 58.000000)">
                    <mask id="mask-4" fill="white">
                        <use xlink:href="#path-3"></use>
                    </mask>
                    <g id="Clip-33"></g>
                    <path d="M0,7.9551 C0,12.4651 3.064,15.0001 7.57,15.0001 C12.076,15.0001 15.141,12.4651 15.141,7.9551 C15.141,3.4511 12.076,0.9161 7.57,0.9161 C3.064,0.9161 0,3.4511 0,7.9551 M2.711,7.9551 C2.711,4.7381 4.253,1.7341 7.57,1.7341 C10.889,1.7341 12.43,4.7381 12.43,7.9551 C12.43,11.1741 10.889,14.1801 7.57,14.1801 C4.253,14.1801 2.711,11.1741 2.711,7.9551" id="Fill-32" fill="#FEFEFE" mask="url(#mask-4)"></path>
                </g>
                <path d="M16.0947,60.6309 C16.7387,60.7499 17.0117,61.3709 17.0117,61.9789 C17.0117,62.6599 17.1267,63.9469 17.1267,65.8599 L17.1267,72.4529 C17.8897,72.7849 19.3327,72.9609 20.0757,72.9609 C22.7677,72.9609 25.3807,71.7499 25.3807,68.6489 C25.3807,66.5999 23.7417,64.4939 21.5967,64.4939 C20.6977,64.4939 19.8387,64.7479 19.0217,65.2169 L19.0797,58.9159 L18.7097,58.9159 C18.2217,59.4609 17.2267,60.1039 16.0947,60.2399 L16.0947,60.6309 Z M19.0217,66.0739 C19.4697,65.8399 19.9757,65.6639 20.5037,65.6639 C22.4147,65.6639 23.2737,67.0509 23.2737,68.8239 C23.2737,70.7559 21.9897,72.2949 19.9947,72.2949 C19.2757,72.2949 19.0217,71.9669 19.0217,71.2439 L19.0217,66.0739 Z" id="Fill-35" fill="#FEFEFE"></path>
                <path d="M32.3447,66.7363 L31.9547,66.7363 C31.7027,66.3863 31.4087,66.0743 30.7267,66.0743 C29.9067,66.0743 29.3997,67.1073 29.3997,67.7303 C29.3997,68.1623 29.2617,68.8633 29.2617,69.7203 L29.2617,71.4373 C29.2617,72.0253 29.4587,72.2573 30.0037,72.3553 L30.0037,72.7443 C29.4587,72.7263 28.9097,72.6873 28.3657,72.6873 C27.8397,72.6873 27.3107,72.7263 26.7847,72.7443 L26.7847,72.3553 C27.1747,72.2573 27.3687,72.0253 27.3687,71.4373 L27.3687,69.3713 C27.3687,68.4723 27.2717,67.6543 27.2717,67.0093 C27.2717,66.3473 27.0197,66.1133 26.3767,65.9553 L26.3767,65.5473 C27.3517,65.3533 28.2267,64.8453 28.7167,64.4533 L29.1077,64.4533 L29.1637,66.0913 L29.2037,66.0913 C29.5937,65.4883 30.3357,64.4943 31.1167,64.4943 C31.4867,64.4943 31.9727,64.6483 32.3447,64.9043 L32.3447,66.7363 Z" id="Fill-37" fill="#FEFEFE"></path>
                <path d="M34.0996,66.6973 C34.5896,65.9763 35.0746,65.6643 36.0316,65.6643 C37.3596,65.6643 37.4376,66.8343 37.4376,67.8883 C37.1636,67.8883 36.8296,67.8303 36.5176,67.8303 C34.7456,67.8303 32.7746,68.6313 32.7746,70.6973 C32.7746,72.1423 34.0816,72.9613 35.4086,72.9613 C36.2656,72.9613 36.8896,72.4923 37.5526,72.0043 C37.7886,72.4923 38.3726,72.8613 39.1156,72.9613 L40.5786,71.7893 L40.2856,71.4983 C40.1456,71.5353 39.9736,71.5763 39.8726,71.5763 C39.4456,71.5763 39.2886,71.3203 39.2886,70.4263 L39.2886,69.7423 C39.3086,68.6313 39.3656,67.6153 39.3656,66.9123 C39.3656,64.9613 37.8866,64.4943 36.1496,64.4943 C35.2326,64.4943 34.4536,64.6093 33.6326,64.8453 L33.6326,66.6973 L34.0996,66.6973 Z M37.4926,71.4573 C37.1816,71.6523 36.7916,71.7893 36.1876,71.7893 C35.3696,71.7893 34.6656,71.1073 34.6656,70.2113 C34.6656,68.9613 35.6006,68.4923 36.4986,68.4923 C36.8516,68.4923 37.2226,68.5523 37.4376,68.5903 L37.4926,71.4573 Z" id="Fill-39" fill="#FEFEFE"></path>
                <path d="M53.2969,61.8008 L52.5549,61.8008 C52.0269,60.3188 50.8169,59.7348 49.3559,59.7348 C48.0279,59.7348 46.8189,60.8068 46.8189,62.1718 C46.8189,66.2888 53.4719,63.7518 53.4719,69.0388 C53.4719,71.5548 51.2669,72.9998 48.9669,72.9998 C47.6959,72.9998 46.1369,72.5308 45.4949,72.1018 L45.2969,70.0138 L45.9999,70.0138 C46.3109,71.3028 47.6759,72.1798 48.9449,72.1798 C50.4099,72.1798 51.5799,71.2048 51.5799,69.7028 C51.5799,66.2698 44.9259,68.2578 44.9259,63.1658 C44.9259,60.5718 47.0139,58.9158 49.4899,58.9158 C50.7989,58.9158 52.1259,59.0708 53.2969,59.6758 L53.2969,61.8008 Z" id="Fill-41" fill="#FEFEFE"></path>
                <path d="M54.7969,68.7285 C54.7969,70.5605 56.1249,72.9605 59.2839,72.9605 C62.4429,72.9605 63.7709,70.5605 63.7709,68.7285 C63.7709,66.8925 62.4429,64.4945 59.2839,64.4945 C56.1249,64.4945 54.7969,66.8925 54.7969,68.7285 M56.9039,68.7285 C56.9039,66.9315 57.5099,65.2735 59.2839,65.2735 C61.0599,65.2735 61.6649,66.9315 61.6649,68.7285 C61.6649,70.5215 61.0599,72.1795 59.2839,72.1795 C57.5099,72.1795 56.9039,70.5215 56.9039,68.7285" id="Fill-43" fill="#FEFEFE"></path>
                <path d="M72.1777,66.9492 L71.6507,66.9492 C71.2637,65.9552 70.4837,65.2732 69.4687,65.2732 C67.6737,65.2732 66.9317,66.9122 66.9317,68.5112 C66.9317,70.1522 68.1027,71.9842 70.0917,71.9842 C70.9707,71.9842 71.6707,71.6352 72.2167,71.0272 L72.5877,71.1272 L72.0017,72.5722 C71.2227,72.8042 70.4047,72.9612 69.3127,72.9612 C66.1517,72.9612 64.8237,70.5602 64.8237,68.7282 C64.8237,66.8922 66.1517,64.4942 69.3127,64.4942 C70.2697,64.4942 71.1847,64.6892 72.0627,64.9802 L72.1777,66.9492 Z" id="Fill-45" fill="#FEFEFE"></path>
                <path d="M75.0078,61.1973 C75.5738,61.1973 76.0818,61.6053 76.0818,62.1913 C76.0818,62.7773 75.5738,63.1873 75.0078,63.1873 C74.4398,63.1873 73.9338,62.7773 73.9338,62.1913 C73.9338,61.6053 74.4398,61.1973 75.0078,61.1973 L75.0078,61.1973 Z M75.9628,64.4943 C75.9628,65.3123 76.0418,67.0293 76.0418,68.6313 L76.0418,71.4763 C76.0418,72.1423 76.3538,72.2383 76.7998,72.3553 L76.7998,72.7443 C76.2188,72.7443 75.6308,72.6873 75.0458,72.6873 C74.5208,72.6873 73.9928,72.7263 73.4648,72.7443 L73.4648,72.3553 C73.9338,72.2383 74.1508,72.1423 74.1508,71.4763 L74.1508,69.0563 C74.1508,67.6543 74.0308,66.8733 73.8748,66.4653 C73.7198,66.0743 73.5248,65.9373 73.0568,65.8593 L73.0568,65.4683 C73.9528,65.2543 74.9868,64.8833 75.5738,64.4943 L75.9628,64.4943 Z" id="Fill-47" fill="#FEFEFE"></path>
                <path d="M78.9453,66.6973 C79.4343,65.9763 79.9223,65.6643 80.8793,65.6643 C82.2053,65.6643 82.2813,66.8343 82.2813,67.8883 C82.0093,67.8883 81.6773,67.8303 81.3693,67.8303 C79.5913,67.8303 77.6223,68.6313 77.6223,70.6973 C77.6223,72.1423 78.9273,72.9613 80.2563,72.9613 C81.1143,72.9613 81.7373,72.4923 82.4023,72.0043 C82.6343,72.4923 83.2193,72.8613 83.9633,72.9613 L85.4243,71.7893 L85.1313,71.4983 C84.9943,71.5353 84.8183,71.5763 84.7223,71.5763 C84.2933,71.5763 84.1363,71.3203 84.1363,70.4263 L84.1363,69.7423 C84.1563,68.6313 84.2143,67.6153 84.2143,66.9123 C84.2143,64.9613 82.7333,64.4943 80.9963,64.4943 C80.0783,64.4943 79.2993,64.6093 78.4803,64.8453 L78.4803,66.6973 L78.9453,66.6973 Z M82.3413,71.4573 C82.0313,71.6523 81.6383,71.7893 81.0353,71.7893 C80.2163,71.7893 79.5133,71.1073 79.5133,70.2113 C79.5133,68.9613 80.4493,68.4923 81.3473,68.4923 C81.6953,68.4923 82.0703,68.5523 82.2813,68.5903 L82.3413,71.4573 Z" id="Fill-49" fill="#FEFEFE"></path>
                <path d="M85.9707,60.1035 C86.6547,60.0075 88.1957,59.4605 88.7007,58.9165 L89.0917,58.9165 C89.0727,59.9665 89.0127,61.8785 89.0127,63.6735 L89.0127,71.2445 C89.0127,71.9065 89.1687,72.2575 89.7737,72.3555 L89.7737,72.7445 C89.1897,72.7445 88.6037,72.6875 88.0207,72.6875 C87.4527,72.6875 86.9057,72.7445 86.3397,72.7445 L86.3397,72.3555 C86.9637,72.2575 87.1227,71.9065 87.1227,71.4765 L87.1227,65.1565 C87.1227,64.0255 87.0217,62.5625 86.9637,61.8225 C86.9257,61.0215 86.5917,60.5525 85.9707,60.5525 L85.9707,60.1035 Z" id="Fill-51" fill="#FEFEFE"></path>
            </g>
        </g>
    </g>
</svg>