<svg width="370" height="102" viewBox="0 0 370 102" fill="none" xmlns="http://www.w3.org/2000/svg">
<path d="M65.41 33.17C65.41 50.95 50.98 65.37 33.18 65.37C15.38 65.37 0.949997 50.95 0.949997 33.17C0.949997 15.38 15.38 0.950001 33.18 0.950001C50.98 0.950001 65.41 15.38 65.41 33.17Z" fill="white"/>
<path d="M65.4 83.18C65.4 93.05 57.4 101.05 47.52 101.05C37.65 101.05 29.64 93.05 29.64 83.18C29.64 73.31 37.64 65.31 47.52 65.31C57.4 65.3 65.4 73.31 65.4 83.18Z" fill="white"/>
<path d="M28.6 75.32C28.6 80.94 24.05 85.49 18.42 85.49C12.8 85.49 8.24001 80.93 8.24001 75.32C8.24001 69.7 12.8 65.14 18.42 65.14C24.04 65.14 28.6 69.69 28.6 75.32Z" fill="white"/>
<path d="M74.77 85.94V15.07H124.62V28.3H88.95V43.42H115.27V56.6H88.95V85.94H74.77Z" fill="white"/>
<path d="M266.71 15.07V56.18C266.71 61.54 268.28 65.47 271.43 67.99C274.58 70.51 278.52 71.77 283.24 71.77C287.97 71.77 291.91 70.51 295.05 67.99C298.2 65.47 299.78 61.53 299.78 56.18V15.07H313.96V59.96C313.96 67.21 311.05 73.35 305.22 78.39C299.39 83.43 292.07 85.95 283.25 85.95C274.43 85.95 267.1 83.43 261.28 78.39C255.45 73.35 252.54 67.21 252.54 59.96V15.07H266.71Z" fill="white"/>
<path d="M358.01 17.43C361.63 19.01 365.02 21.37 368.17 24.52L358.72 33.97C355.57 30.19 351.16 28.3 345.49 28.3C339.82 28.3 336.2 29.64 334.62 32.32C333.04 35 333.04 37.28 334.62 39.17C336.2 41.06 339.82 42.48 345.49 43.42C351.48 44.05 356.91 46.02 361.79 49.33C366.67 52.63 369.11 57.91 369.11 65.16C369.11 70.83 366.5 75.71 361.29 79.81C356.08 83.91 350 85.95 343.07 85.95C336.49 85.95 330.99 85 326.58 83.12C322.17 81.23 318.39 78.71 315.24 75.56L324.69 66.11C327.84 69.89 333.2 72.1 340.76 72.73C347.06 72.73 350.99 71.39 352.55 68.71C354.11 66.03 354.11 63.35 352.55 60.67C350.99 57.99 347.06 56.34 340.76 55.71C335.09 55.08 329.89 53.35 325.17 50.52C320.44 47.68 318.08 42.8 318.08 35.87C318.08 29.6 320.76 24.57 326.14 20.77C331.51 16.97 337.03 15.07 342.7 15.07C349.29 15.07 354.39 15.86 358.01 17.43Z" fill="white"/>
<path d="M190.26 33.43C195.84 24.32 204.68 15.86 218.8 14.98C231.69 14.18 240.83 18.36 247.93 24.3C244.86 27.96 241.79 31.62 238.22 34.79C234.06 31.53 229.66 29.51 223.27 29.16C210.84 28.47 201.64 36.18 200.74 47.8C199.66 61.88 207.63 70.84 220.16 71.68C227.76 72.19 233.72 69.76 238.41 66.05C241.69 69.37 244.71 72.95 247.92 76.34C241.79 82.12 232.94 86.01 222.09 86.05C206.07 86.11 196.08 77.5 190.44 67.41C183.33 78.7 174.16 87.06 155.87 86.05C138.21 85.07 124.35 71.38 123.25 53.62C122.5 41.65 126.34 33.29 132.38 26.44C138.1 19.95 146.34 15.21 157.82 14.98C174.6 14.66 183.77 23.01 190.26 33.43ZM151.42 29.55C143.34 32.21 137.41 39.88 137.44 50.71C137.46 57.57 139.9 62.61 143.46 66.43C147 70.23 152.17 72.84 158.8 72.84C171.6 72.84 181 62.72 179.97 48.57C179.69 44.67 178.23 40.91 176.67 38.28C173.23 32.48 166.57 27.77 156.86 28.57C154.15 28.8 153.12 28.99 151.42 29.55Z" fill="white"/>
</svg>
