<?xml version="1.0" encoding="utf-8"?>
<!-- Generator: Adobe Illustrator 16.0.0, SVG Export Plug-In . SVG Version: 6.00 Build 0)  -->
<!DOCTYPE svg PUBLIC "-//W3C//DTD SVG 1.1//EN" "http://www.w3.org/Graphics/SVG/1.1/DTD/svg11.dtd" [
	<!ENTITY ns_extend "http://ns.adobe.com/Extensibility/1.0/">
	<!ENTITY ns_ai "http://ns.adobe.com/AdobeIllustrator/10.0/">
	<!ENTITY ns_graphs "http://ns.adobe.com/Graphs/1.0/">
	<!ENTITY ns_vars "http://ns.adobe.com/Variables/1.0/">
	<!ENTITY ns_imrep "http://ns.adobe.com/ImageReplacement/1.0/">
	<!ENTITY ns_sfw "http://ns.adobe.com/SaveForWeb/1.0/">
	<!ENTITY ns_custom "http://ns.adobe.com/GenericCustomNamespace/1.0/">
	<!ENTITY ns_adobe_xpath "http://ns.adobe.com/XPath/1.0/">
]>
<svg version="1.1" id="Layer_1" xmlns:x="&ns_extend;" xmlns:i="&ns_ai;" xmlns:graph="&ns_graphs;"
	 xmlns="http://www.w3.org/2000/svg" xmlns:xlink="http://www.w3.org/1999/xlink" x="0px" y="0px" width="960px" height="280.953px"
	 viewBox="0 0 960 280.953" enable-background="new 0 0 960 280.953" xml:space="preserve">
<metadata>
	<sfw  xmlns="&ns_sfw;">
		<slices></slices>
		<sliceSourceBounds  height="280.953" width="960.598" x="-180.5" y="160.023" bottomLeftOrigin="true"></sliceSourceBounds>
	</sfw>
</metadata>
<path fill="#FAFAFA" d="M169.472,251.936c0-16.003-12.965-28.966-28.969-28.966s-28.969,12.963-28.969,28.966
	c0,15.997,12.965,28.972,28.969,28.972S169.472,267.933,169.472,251.936"/>
<polygon fill="#FAFAFA" points="140.156,140.127 0.032,280.264 0.032,214.305 140.156,74.187 280.971,215.005 280.971,280.953 "/>
<polygon fill="#FAFAFA" points="0.032,214.305 46.589,167.761 46.589,46.599 234.357,46.599 234.357,168.386 280.939,214.968 
	280.939,0 0,0 0,223.353 0.032,223.32 "/>
<path fill="#FAFAFA" d="M443.344,209.479c-39.847,0-69.428-30.752-69.428-69.625v-0.383c0-38.485,29.007-70.004,70.582-70.004
	c25.529,0,40.812,8.508,53.385,20.884l-18.961,21.844c-10.439-9.468-21.069-15.277-34.618-15.277
	c-22.819,0-39.253,18.962-39.253,42.158v0.395c0,23.208,16.048,42.546,39.253,42.546c15.475,0,24.956-6.197,35.587-15.861
	l18.955,19.145C484.921,200.194,469.447,209.479,443.344,209.479"/>
<path fill="#FAFAFA" d="M576.379,207.15v-11.209c-7.161,7.92-17.023,13.143-31.326,13.143c-19.542,0-35.59-11.215-35.59-31.707
	v-0.396c0-22.621,17.215-33.064,41.775-33.064c10.441,0,17.979,1.746,25.324,4.258v-1.738c0-12.191-7.536-18.956-22.232-18.956
	c-11.215,0-19.147,2.123-28.622,5.611l-7.352-22.437c11.406-5.024,22.628-8.314,40.231-8.314c32.097,0,46.213,16.634,46.213,44.668
	v60.145h-28.422V207.15z M576.958,165.382c-5.036-2.327-11.604-3.871-18.759-3.871c-12.566,0-20.308,5.037-20.308,14.314v0.389
	c0,7.927,6.573,12.568,16.055,12.568c13.728,0,23.012-7.543,23.012-18.172V165.382L576.958,165.382z"/>
<path fill="#FAFAFA" d="M662.612,209.083c-14.506,0-30.745-4.826-44.479-15.66l12.573-19.338
	c11.216,8.123,23.011,12.381,32.684,12.381c8.505,0,12.375-3.098,12.375-7.739v-0.388c0-6.377-10.055-8.514-21.468-11.994
	c-14.505-4.246-30.941-11.018-30.941-31.133v-0.382c0-21.079,17.018-32.875,37.903-32.875c13.154,0,27.461,4.438,38.678,11.993
	l-11.217,20.295c-10.245-5.987-20.498-9.659-28.04-9.659c-7.153,0-10.827,3.092-10.827,7.153v0.376
	c0,5.809,9.857,8.518,21.079,12.383c14.505,4.838,31.332,11.795,31.332,30.75v0.389
	C702.265,198.639,685.056,209.083,662.612,209.083"/>
<path fill="#FAFAFA" d="M780.191,207.15v-11.209c-7.161,7.92-17.031,13.143-31.332,13.143c-19.536,0-35.584-11.215-35.584-31.707
	v-0.396c0-22.621,17.209-33.064,41.769-33.064c10.444,0,17.986,1.746,25.331,4.258v-1.738c0-12.191-7.536-18.956-22.232-18.956
	c-11.222,0-19.146,2.123-28.62,5.611l-7.357-22.437c11.405-5.024,22.627-8.314,40.225-8.314c32.104,0,46.232,16.634,46.232,44.668
	v60.145h-28.431V207.15z M780.765,165.382c-5.029-2.327-11.599-3.871-18.758-3.871c-12.573,0-20.301,5.037-20.301,14.314v0.389
	c0,7.927,6.573,12.568,16.048,12.568c13.729,0,23.011-7.543,23.011-18.172V165.382L780.765,165.382z"/>
<rect x="831.421" y="65.979" fill="#FAFAFA" width="29.399" height="141.179"/>
<path fill="#FAFAFA" d="M920.952,209.083c-14.498,0-30.745-4.826-44.485-15.66l12.574-19.338
	c11.222,8.123,23.017,12.381,32.683,12.381c8.513,0,12.384-3.098,12.384-7.739v-0.388c0-6.377-10.062-8.514-21.47-11.994
	c-14.505-4.246-30.941-11.018-30.941-31.133v-0.382c0-21.079,17.017-32.875,37.904-32.875c13.153,0,27.462,4.438,38.678,11.993
	l-11.216,20.295c-10.254-5.987-20.506-9.659-28.035-9.659c-7.16,0-10.84,3.092-10.84,7.153v0.376c0,5.809,9.863,8.518,21.079,12.383
	c14.505,4.838,31.331,11.795,31.331,30.75v0.389C960.598,198.639,943.39,209.083,920.952,209.083"/>
</svg>
