<?xml version="1.0" encoding="UTF-8"?>
<svg width="513px" height="257px" viewBox="0 0 513 257" version="1.1" xmlns="http://www.w3.org/2000/svg" xmlns:xlink="http://www.w3.org/1999/xlink">
    <!-- Generator: Sketch 57.1 (83088) - https://sketch.com -->
    <title>Autonome_Universität_Barcelona_Logo</title>
    <desc>Created with Sketch.</desc>
    <g id="Page-1" stroke="none" stroke-width="1" fill="none" fill-rule="evenodd">
        <g id="Autonome_Universität_Barcelona_Logo" fill="#FFFFFF">
            <path d="M180.133082,0.7665 L149.449472,0.7665 L149.449472,72.71358 C149.449472,89.11319 143.454032,95.99075 129.523242,95.99075 C114.710332,95.99075 108.361682,88.93751 108.361682,72.5379 L108.361682,0.7665 L77.678072,0.7665 L77.678072,70.4223 C77.678072,84.70446 79.089082,92.46413 83.144602,99.87058 C90.904272,114.15459 106.068552,121.03214 128.994342,121.03214 C146.276072,121.03214 158.266942,117.50368 167.082562,109.39264 C172.373412,104.27932 176.075712,97.93066 178.193162,90.52421 C179.604182,85.05767 180.133082,79.94435 180.133082,70.59798 L180.133082,0.7665" id="path5189" fill-rule="nonzero"></path>
            <path d="M248.250282,72.11256 L270.889432,66.82911 L275.418372,71.10654 L272.901472,79.15471 L248.250282,72.11256 Z M267.871372,10.23123 C267.871372,10.23123 271.392442,43.43729 270.637932,46.70686 C270.637932,46.70686 269.883412,54.75502 281.957502,83.68365 C294.033442,112.61043 286.234942,92.73968 296.296992,115.62849 C296.296992,115.62849 299.063542,119.65442 300.824082,122.16947 L305.353022,85.94719 C306.107532,72.86708 305.856032,51.48545 305.856032,51.48545 C306.610542,50.98244 309.377102,15.51654 308.874092,12.74813 C308.371082,9.98158 308.622582,0.42253 308.622582,0.42253 C271.643952,-1.0865 263.342432,1.93157 263.342432,1.93157 C236.176192,0.16918 205.738532,0.16918 205.738532,0.16918 C203.978002,6.45866 202.971982,15.76619 203.221632,18.78425 C203.473142,21.80416 203.978002,26.33125 203.473142,34.12976 C202.971982,41.92641 204.732512,64.56556 204.732512,64.56556 L202.971982,64.06255 C204.229502,85.44418 202.467122,118.14539 202.467122,118.14539 L227.120162,118.14539 C228.377682,116.63451 252.777372,57.27192 252.777372,57.27192 C261.583752,39.15986 267.871372,10.23123 267.871372,10.23123 L267.871372,10.23123 Z" id="path5193"></path>
            <path d="M361.904672,24.04366 L383.066232,24.04366 C394.174992,24.04366 399.112622,27.57028 399.112622,35.68132 C399.112622,42.91209 393.646092,46.96761 383.770812,46.79192 L361.904672,46.79192 L361.904672,24.04366 L361.904672,24.04366 Z M361.904672,67.07137 L385.357512,67.07137 C397.879142,67.07137 403.521362,71.30257 403.521362,80.64894 C403.521362,89.81963 398.054822,94.05083 386.063952,94.05083 L361.904672,94.05083 L361.904672,67.07137 L361.904672,67.07137 Z M331.221062,0.7665 L331.221062,118.21011 L391.354802,118.21011 C405.636962,118.21011 414.983332,115.74129 422.389782,109.57017 C430.500822,103.22152 434.558192,94.22651 434.558192,83.11776 C434.558192,69.01128 428.209532,59.48923 415.512232,54.72728 L413.572312,54.02085 C423.800802,48.73184 428.914122,40.79649 428.914122,30.21478 C428.914122,19.28171 423.271902,9.93534 413.747992,5.17524 C407.752562,2.17752 399.817202,0.7665 387.650652,0.7665 L331.221062,0.7665 L331.221062,0.7665 Z" id="path5197"></path>
            <path d="M124.520882,255.29145 L134.490472,255.54111 L134.490472,253.79537 C131.400282,253.64742 131.050762,253.4477 131.050762,251.2045 L131.050762,218.85096 L121.378922,219.84774 L121.378922,221.44183 L123.174592,221.74142 C124.171362,221.89122 124.520882,222.24073 124.520882,224.18435 L124.520882,231.21355 C123.324382,230.76416 121.778372,230.51451 120.082562,230.51451 C115.995602,230.51451 112.755622,231.71286 110.612282,233.80442 C108.319152,236.04762 106.922932,239.28945 106.922932,243.77585 C106.922932,251.10278 110.662212,256.13843 117.092242,256.13843 C119.235582,256.13843 121.828302,255.09173 124.520882,252.94839 L124.520882,255.29145 L124.520882,255.29145 Z M124.520882,247.66493 C124.520882,248.41205 124.470982,249.15917 124.221292,249.90814 C123.622122,251.65203 122.177822,252.69873 119.834752,252.69873 C116.095462,252.69873 113.902192,249.10924 113.902192,242.92702 C113.902192,235.94961 116.494912,232.60792 120.082562,232.60792 C122.127882,232.60792 123.424242,233.65647 124.121432,235.00091 C124.520882,235.79981 124.520882,236.74666 124.520882,237.89322 L124.520882,247.66493 L124.520882,247.66493 Z M157.710302,248.0126 C156.265992,250.90491 154.222522,252.79859 150.830902,252.79859 C145.397652,252.79859 143.903412,248.0126 143.903412,242.77908 L157.312702,242.77908 C158.858712,242.77908 159.755632,242.37963 159.755632,240.7356 C159.755632,237.94315 159.056592,230.51451 148.887282,230.51451 C144.800322,230.51451 141.808152,231.96066 139.814612,234.30373 C137.821062,236.64679 136.922302,239.88677 136.922302,243.3764 C136.922302,250.60532 140.214052,256.18836 148.937212,256.13843 C154.719982,256.13843 157.810162,253.19804 159.406112,248.95944 L157.710302,248.0126 Z M143.951492,240.58581 C143.951492,237.54555 144.800322,232.60792 148.737492,232.60792 C152.328832,232.60792 152.826292,236.74666 152.826292,238.93993 C152.826292,240.23629 152.476772,240.58581 151.230352,240.58581 L143.951492,240.58581 L143.951492,240.58581 Z M173.092792,255.54111 L189.344452,255.54111 C194.230312,255.54111 197.520222,254.64235 199.613632,253.04825 C201.707042,251.40422 202.655732,249.00938 202.655732,246.01905 C202.655732,240.38608 198.516992,237.6935 193.830862,236.99631 C198.616852,235.89968 201.209572,233.20709 201.209572,229.21815 C201.209572,226.27776 200.063012,224.23428 197.919672,222.88799 C195.826262,221.5417 192.684292,220.9943 188.747132,221.04239 L173.092792,221.04239 L173.092792,222.78813 C176.931942,222.98785 177.231532,223.13764 177.231532,225.77845 L177.231532,250.80505 C177.231532,253.4477 176.931942,253.59564 173.092792,253.79537 L173.092792,255.54111 L173.092792,255.54111 Z M184.110932,238.24274 L187.001392,238.24274 C192.434642,238.24274 195.127222,241.63066 195.127222,246.21878 C195.077322,251.85175 191.837312,253.4477 188.147952,253.4477 C185.107702,253.4477 184.110932,252.69873 184.110932,250.008 L184.110932,238.24274 Z M184.110932,236.14748 L184.110932,225.23105 C184.110932,223.38545 184.808122,223.18758 187.400842,223.13764 C191.637592,223.13764 194.230312,225.38085 194.180382,229.56767 C194.130482,233.7064 191.787382,236.14748 186.851592,236.14748 L184.110932,236.14748 Z M232.065172,253.14811 C231.366142,253.24801 230.369362,253.19801 229.620392,252.99832 C228.873282,252.79859 227.976372,252.10141 227.976372,249.05931 L227.976372,237.59364 C227.976372,234.50345 227.329112,230.51451 219.003552,230.51451 C212.323882,230.51451 207.885552,233.40682 207.885552,236.497 C207.885552,238.4924 210.578142,239.33938 211.674772,239.33938 C212.721482,239.33938 213.270722,238.64034 213.618392,237.54555 C214.914752,233.50668 216.660492,232.60792 218.306372,232.60792 C219.900472,232.60792 221.646212,233.50668 221.646212,236.74666 L221.646212,239.33938 C219.301292,240.68567 215.661872,241.73237 212.371962,242.77908 C208.384862,244.07544 207.138432,246.16885 207.138432,248.95944 C207.138432,252.74866 209.729312,256.13843 214.615162,256.13843 C217.657262,256.13843 220.050262,254.34461 221.744222,253.19804 C222.441412,254.84207 223.240302,256.13843 225.433582,256.13843 C227.726712,256.13843 230.519162,255.39132 232.263052,254.64235 L232.065172,253.14811 L232.065172,253.14811 Z M221.646212,248.71164 C221.594412,251.85175 219.401152,252.69873 217.856992,252.69873 C215.513922,252.69873 213.868042,250.95484 213.868042,248.1624 C213.868042,245.7694 214.764952,244.67276 216.760352,243.72592 C218.604102,242.82901 220.497792,242.1799 221.646212,241.58258 L221.646212,248.71164 Z M233.363382,255.54111 L247.719512,255.54111 L247.719512,253.79537 C243.682492,253.59564 243.283042,253.4477 243.283042,251.2045 L243.283042,239.73698 C243.283042,236.69672 244.179952,235.50023 245.376452,235.50023 C246.175342,235.50023 246.972392,235.89968 248.168892,236.59686 C248.716282,236.89645 249.315462,237.19604 250.012642,237.19604 C250.861472,237.19604 251.608592,236.74666 252.155992,236.0994 C252.655302,235.40036 252.855022,234.45352 252.855022,233.55661 C252.855022,231.8608 251.858252,230.51451 249.762992,230.51451 C247.819372,230.51451 246.225272,231.76094 243.183172,234.75126 L242.585852,230.51451 L233.613042,231.91073 L233.613042,233.50668 L235.406862,233.75633 C236.403632,233.85623 236.753152,234.2538 236.753152,236.14748 L236.753152,251.2045 C236.753152,253.4477 236.403632,253.64742 233.363382,253.79537 L233.363382,255.54111 Z M275.235272,247.96452 C273.591242,251.35244 271.645782,252.79859 268.555592,252.79859 C264.368772,252.79859 261.875922,249.10924 261.875922,242.47949 C261.875922,235.40036 264.218982,232.60792 266.861632,232.60792 C268.803402,232.60792 269.851952,234.20387 270.748862,237.09617 C271.048452,238.09295 271.595842,238.64034 272.792342,238.64034 C274.288432,238.64034 276.581562,237.84329 276.581562,235.74988 C276.581562,232.60792 272.195022,230.51451 267.309162,230.51451 C263.220362,230.51451 260.130172,231.81087 258.086702,234.05407 C255.993292,236.34906 254.896652,239.58718 254.896652,243.5262 C254.896652,251.95161 259.383062,256.13843 266.560202,256.13843 C270.501062,256.13843 275.135412,254.59427 276.879302,248.71164 L275.235272,247.96452 L275.235272,247.96452 Z M300.352492,248.01262 C298.908182,250.90493 296.864702,252.79861 293.473082,252.79861 C288.039842,252.79861 286.543752,248.01262 286.543752,242.7791 L299.954892,242.7791 C301.499052,242.7791 302.395962,242.37965 302.395962,240.73562 C302.395962,237.94317 301.698782,230.51453 291.529472,230.51453 C287.442512,230.51453 284.450342,231.96068 282.456792,234.30375 C280.463252,236.64681 279.564492,239.88679 279.564492,243.37642 C279.564492,250.60534 282.854392,256.18838 291.579402,256.13845 C297.362172,256.13845 300.452352,253.19806 302.048302,248.95946 L300.352492,248.01262 L300.352492,248.01262 Z M286.593682,240.58583 C286.593682,237.54557 287.442512,232.60794 291.379672,232.60794 C294.969172,232.60794 295.468482,236.74668 295.468482,238.93995 C295.468482,240.23631 295.118962,240.58583 293.872532,240.58583 L286.593682,240.58583 L286.593682,240.58583 Z M314.253692,218.85098 L304.581842,219.84776 L304.581842,221.44185 L306.377512,221.74144 C307.372442,221.89124 307.723802,222.24075 307.723802,224.18437 L307.723802,251.20452 C307.723802,253.44772 307.372442,253.64744 304.282252,253.79539 L304.282252,255.54113 L317.693392,255.54113 L317.693392,253.79539 C314.603212,253.64744 314.253692,253.44772 314.253692,251.20452 L314.253692,218.85098 L314.253692,218.85098 Z M332.691232,256.13845 C341.416232,256.13845 345.253532,251.35246 345.253532,243.32834 C345.253532,235.30052 341.416232,230.51453 332.691232,230.51453 C324.016152,230.51453 320.178852,235.30052 320.178852,243.32834 C320.178852,251.35246 324.016152,256.13845 332.691232,256.13845 Z M332.691232,254.04504 C328.853922,254.04504 327.158112,250.05795 327.158112,243.32834 C327.158112,236.59688 328.853922,232.60794 332.691232,232.60794 C336.580312,232.60794 338.274272,236.59688 338.274272,243.32834 C338.274272,250.05795 336.580312,254.04504 332.691232,254.04504 Z M348.584122,255.54113 L361.545882,255.54113 L361.545882,253.79539 L360.299452,253.69739 C358.903232,253.59567 358.505632,253.248 358.505632,251.40425 L358.505632,239.68892 C358.505632,238.49243 358.605532,237.54558 359.003092,236.79662 C359.801992,235.2506 361.446022,233.95424 363.739152,233.95424 C366.531602,233.95424 368.125702,235.60012 368.125702,239.08975 L368.125702,251.40425 C368.125702,253.248 367.726252,253.59567 366.381802,253.69739 L365.083592,253.79539 L365.083592,255.54113 L378.095282,255.54113 L378.095282,253.79539 C375.005102,253.64744 374.655582,253.44772 374.655582,251.20452 L374.655582,238.29269 C374.655582,233.45677 372.164572,230.51453 367.178852,230.51453 C364.038742,230.51453 361.695672,232.11048 358.505632,234.10587 L357.806592,230.51453 L348.833782,231.91075 L348.833782,233.5067 L350.677532,233.75635 C351.624382,233.9043 351.973892,234.25382 351.973892,236.1475 L351.973892,251.20452 C351.973892,253.44772 351.674312,253.64744 348.584122,253.79539 L348.584122,255.54113 L348.584122,255.54113 Z M405.760832,253.14813 C405.063652,253.24803 404.065022,253.19803 403.317912,252.99834 C402.570792,252.79861 401.673882,252.10143 401.673882,249.05933 L401.673882,237.59366 C401.673882,234.50347 401.024772,230.51453 392.699222,230.51453 C386.019542,230.51453 381.583062,233.40684 381.583062,236.49702 C381.583062,238.49242 384.275652,239.3394 385.372282,239.3394 C386.418992,239.3394 386.966382,238.64036 387.315902,237.54557 C388.612262,233.5067 390.356152,232.60794 392.002032,232.60794 C393.597982,232.60794 395.341872,233.5067 395.341872,236.74668 L395.341872,239.3394 C392.998802,240.68569 389.359382,241.73239 386.069472,242.7791 C382.082372,244.07546 380.835952,246.16887 380.835952,248.95946 C380.835952,252.74868 383.426822,256.13845 388.312672,256.13845 C391.354772,256.13845 393.745922,254.34463 395.441732,253.19806 C396.138922,254.84209 396.937822,256.13845 399.131092,256.13845 C401.424222,256.13845 404.216672,255.39134 405.960562,254.64237 L405.760832,253.14813 L405.760832,253.14813 Z M395.341872,248.71166 C395.291972,251.85177 393.098672,252.69875 391.552652,252.69875 C389.211432,252.69875 387.565552,250.95486 387.565552,248.16242 C387.565552,245.76942 388.462472,244.67278 390.456012,243.72594 C392.301622,242.82903 394.195302,242.17992 395.341872,241.5826 L395.341872,248.71166 Z M32.453396,161.94795 C32.453396,159.3053 32.751133,159.1555 36.590283,158.95578 L36.590283,157.21189 L21.435256,157.21189 L21.435256,158.95578 C25.274406,159.1555 25.573993,159.3053 25.573993,161.94795 L25.573993,179.9435 C25.573993,185.02908 24.277633,190.36247 18.295142,190.36247 C12.412513,190.36247 11.01629,184.97915 11.01629,179.9435 L11.01629,161.94795 C11.01629,159.3053 11.315877,159.1555 15.155027,158.95578 L15.155027,157.21189 L0,157.21189 L0,158.95578 C3.83915,159.1555 4.136888,159.3053 4.136888,161.94795 L4.136888,179.84364 C4.136888,182.78588 4.636199,185.47662 5.632973,187.22236 C7.826245,191.11144 12.362582,192.45588 18.295142,192.45588 C23.928115,192.45588 28.564314,191.11144 30.857448,187.17243 C31.854222,185.42668 32.403464,182.73595 32.453396,179.84364 L32.453396,161.94795 L32.453396,161.94795 Z M39.277319,191.70876 L52.239074,191.70876 L52.239074,189.96302 L50.992645,189.86502 C49.596422,189.76512 49.198822,189.41564 49.198822,187.57188 L49.198822,175.85656 C49.198822,174.66006 49.296832,173.71322 49.696285,172.96425 C50.495183,171.41823 52.139212,170.12372 54.432342,170.12372 C57.222942,170.12372 58.818892,171.7696 58.818892,175.25738 L58.818892,187.57188 C58.818892,189.41564 58.419442,189.76516 57.073152,189.86502 L55.776792,189.96302 L55.776792,191.70876 L68.788472,191.70876 L68.788472,189.96302 C65.698292,189.81508 65.348772,189.61535 65.348772,187.37215 L65.348772,174.46033 C65.348772,169.6244 62.857762,166.68401 57.872042,166.68401 C54.731932,166.68401 52.388868,168.27811 49.198822,170.27351 L48.499786,166.68401 L39.526975,168.07838 L39.526975,169.67433 L41.370728,169.92399 C42.317571,170.07193 42.667089,170.42145 42.667089,172.31698 L42.667089,187.37215 C42.667089,189.61535 42.367502,189.81508 39.277319,189.96302 L39.277319,191.70876 L39.277319,191.70876 Z M80.651742,166.98175 L71.029832,168.07838 L71.029832,169.67433 L72.825502,169.92399 C73.772342,170.07193 74.120012,170.42145 74.120012,172.31698 L74.120012,187.37215 C74.120012,189.61535 73.772342,189.81508 70.680312,189.96302 L70.680312,191.70876 L84.091442,191.70876 L84.091442,189.96302 C80.999412,189.81508 80.651742,189.61535 80.651742,187.37215 L80.651742,166.98175 L80.651742,166.98175 Z M77.210192,163.69184 C79.603192,163.69184 81.199142,161.94795 81.249072,159.80461 C81.249072,157.65942 79.703052,155.91553 77.210192,155.91553 C74.769112,155.91553 73.223102,157.65942 73.223102,159.80461 C73.223102,161.94795 74.769112,163.69184 77.210192,163.69184 Z M95.250132,191.70876 L100.036132,191.70876 L104.372742,179.85289 C105.767112,176.06922 107.213272,172.9328 108.012162,171.18891 C108.809212,169.44687 109.358462,169.14913 111.501802,169.04742 L111.501802,167.28319 L101.480432,167.28319 L101.480432,169.04742 L103.723632,169.29707 C104.622392,169.39697 104.772192,169.94433 104.522532,170.84124 C104.023222,172.73308 103.276102,175.12238 102.379192,177.66147 L99.536812,185.87606 L96.744372,178.30872 C96.394852,177.31195 94.453082,171.68822 94.103562,170.74138 C93.803982,169.79639 93.903842,169.39694 94.850682,169.29707 L96.844232,169.04742 L96.844232,167.28319 L84.331852,167.28319 L84.331852,169.04742 C86.425262,169.19906 87.024442,169.54673 87.721622,171.24069 C89.017982,174.47512 90.164552,177.66147 91.361052,180.99761 L95.250132,191.70876 L95.250132,191.70876 Z M133.338352,184.18025 C131.894052,187.07256 129.848722,188.9681 126.458952,188.9681 C121.025702,188.9681 119.529622,184.18025 119.529622,178.94673 L132.940752,178.94673 C134.484922,178.94673 135.383682,178.54728 135.383682,176.90325 C135.383682,174.11081 134.686492,166.68401 124.515332,166.68401 C120.428382,166.68401 117.436212,168.12832 115.442662,170.47138 C113.449112,172.81445 112.550352,176.05442 112.550352,179.54406 C112.550352,186.77298 115.840262,192.35787 124.565262,192.30609 C130.348032,192.30609 133.438212,189.3657 135.034162,185.12895 L133.338352,184.18025 L133.338352,184.18025 Z M119.579552,176.75346 C119.579552,173.71321 120.428382,168.77742 124.365542,168.77742 C127.955032,168.77742 128.454352,172.91431 128.454352,175.10943 C128.454352,176.40394 128.104832,176.75346 126.858402,176.75346 L119.579552,176.75346 Z M137.717502,191.70876 L152.075482,191.70876 L152.075482,189.96302 C148.038452,189.76515 147.639002,189.61535 147.639002,187.37215 L147.639002,175.90648 C147.639002,172.86438 148.535912,171.66973 149.732412,171.66973 C150.529462,171.66973 151.326512,172.06733 152.523012,172.76452 C153.072252,173.0641 153.671422,173.36369 154.368612,173.36369 C155.215592,173.36369 155.964562,172.91431 156.511952,172.26705 C157.009412,171.56802 157.210992,170.62117 157.210992,169.72426 C157.210992,168.02845 156.212362,166.68401 154.118952,166.68401 C152.175342,166.68401 150.579392,167.92859 147.539142,170.92076 L146.939972,166.68401 L137.967152,168.07838 L137.967152,169.67433 L139.762832,169.92399 C140.759602,170.02389 141.107272,170.42145 141.107272,172.31698 L141.107272,187.37215 C141.107272,189.61535 140.759602,189.81508 137.717502,189.96302 L137.717502,191.70876 L137.717502,191.70876 Z M176.351262,174.75991 L176.351262,168.37797 C174.455732,167.18147 171.715062,166.68401 169.222202,166.68401 C163.389502,166.68401 159.650222,169.42468 159.650222,174.36046 C159.650222,178.29948 162.990052,180.44282 167.228652,181.88712 C169.519942,182.68602 172.162592,184.08224 172.162592,186.77298 C172.162592,188.91632 170.668362,190.21268 168.323442,190.21268 C164.735802,190.21268 162.242942,186.9727 161.046442,182.78588 L159.350632,182.78588 L159.899872,189.96302 C161.693692,191.6089 165.283192,192.30609 168.125572,192.30609 C174.207922,192.30609 177.995292,189.31577 177.995292,184.47984 C177.995292,180.14323 175.302712,178.09975 170.518562,176.40394 C167.925842,175.50703 165.383052,174.41039 165.383052,172.06733 C165.432952,170.17179 166.829202,168.77742 169.072412,168.77742 C171.814922,168.77742 173.906482,171.22035 174.655452,174.75991 L176.351262,174.75991 L176.351262,174.75991 Z M190.801702,166.98175 L181.179792,168.07838 L181.179792,169.67433 L182.973612,169.92399 C183.922302,170.07193 184.269972,170.42145 184.269972,172.31698 L184.269972,187.37215 C184.269972,189.61535 183.922302,189.81508 180.830272,189.96302 L180.830272,191.70876 L194.241402,191.70876 L194.241402,189.96302 C191.149372,189.81508 190.801702,189.61535 190.801702,187.37215 L190.801702,166.98175 L190.801702,166.98175 Z M187.362002,163.69184 C189.753152,163.69184 191.349102,161.94795 191.399032,159.80461 C191.399032,157.65942 189.853012,155.91553 187.362002,155.91553 C184.917222,155.91553 183.373062,157.65942 183.373062,159.80461 C183.373062,161.94795 184.917222,163.69184 187.362002,163.69184 Z M211.482442,167.28134 L205.899402,167.28134 L205.899402,160.99926 L203.504562,160.99926 L199.567392,167.28134 L196.227552,167.28134 L196.227552,169.57447 L199.367672,169.57447 L199.367672,186.12572 C199.367672,190.86178 202.907232,192.30609 205.300232,192.30609 C207.543432,192.30609 210.385812,191.2113 212.677092,189.76515 L212.179632,188.41885 C211.280872,188.76652 210.234172,188.9681 209.089452,188.9681 C207.293782,188.9681 205.899402,187.62181 205.899402,184.23019 L205.899402,169.57447 L211.482442,169.57447 L211.482442,167.28134 L211.482442,167.28134 Z M239.695392,189.31577 C238.998202,189.41567 238.001432,189.36567 237.252462,189.16597 C236.505352,188.9681 235.608432,188.26906 235.608432,185.22881 L235.608432,173.76129 C235.608432,170.67111 234.961182,166.68401 226.633772,166.68401 C219.954092,166.68401 215.517622,169.57447 215.517622,172.66465 C215.517622,174.66005 218.210202,175.50703 219.306842,175.50703 C220.353542,175.50703 220.902792,174.80799 221.250462,173.71321 C222.546822,169.67433 224.292562,168.77742 225.936592,168.77742 C227.532532,168.77742 229.278272,169.67433 229.278272,172.91431 L229.278272,175.50703 C226.933362,176.85332 223.293932,177.90003 220.004032,178.94673 C216.016932,180.24309 214.770502,182.3365 214.770502,185.12895 C214.770502,188.91632 217.361372,192.30609 222.247232,192.30609 C225.289332,192.30609 227.680482,190.51226 229.376292,189.3657 C230.075322,191.01158 230.872372,192.30609 233.065642,192.30609 C235.358782,192.30609 238.151222,191.55897 239.895122,190.81185 L239.695392,189.31577 L239.695392,189.31577 Z M229.278272,184.87929 C229.226472,188.01941 227.033222,188.86639 225.489052,188.86639 C223.145992,188.86639 221.500112,187.12249 221.500112,184.33005 C221.500112,181.93705 222.397022,180.84042 224.390572,179.89357 C226.236172,178.99666 228.129862,178.34756 229.278272,177.75023 L229.278272,184.87929 L229.278272,184.87929 Z M256.300272,167.28134 L250.715382,167.28134 L250.715382,160.99926 L248.322382,160.99926 L244.383372,167.28134 L241.045382,167.28134 L241.045382,169.57447 L244.185502,169.57447 L244.185502,186.12572 C244.185502,190.86178 247.725062,192.30609 250.118052,192.30609 C252.361262,192.30609 255.201792,191.2113 257.494922,189.76515 L256.997462,188.41885 C256.100552,188.76652 255.051992,188.9681 253.905422,188.9681 C252.111602,188.9681 250.715382,187.62181 250.715382,184.23019 L250.715382,169.57447 L256.300272,169.57447 L256.300272,167.28134 L256.300272,167.28134 Z M266.602732,191.70876 L278.018472,191.70876 L278.018472,189.96302 L275.176092,189.76515 C273.931512,189.66525 273.879732,189.11604 274.179322,187.87146 C274.826572,185.07902 275.825202,182.23664 276.772042,179.04659 L286.991282,179.04659 L289.883592,187.7716 C290.281192,189.01618 290.083312,189.66528 288.836882,189.76515 L286.194232,189.96302 L286.194232,191.70876 L300.849952,191.70876 L300.849952,189.96302 C298.157372,189.86502 297.560042,189.66528 296.812922,187.37215 L286.691692,157.21189 L281.358312,157.21189 L275.775272,173.26383 C274.079462,178.09975 272.285632,183.48307 270.889412,187.07256 C269.992502,189.41563 269.493192,189.86501 266.602732,189.96302 L266.602732,191.70876 L266.602732,191.70876 Z M277.519162,176.85332 C278.118332,175.05765 281.308382,165.03813 281.857622,163.44219 L286.294092,176.85332 L277.519162,176.85332 Z M320.787272,191.70876 L330.257542,191.70876 L330.257542,189.96302 C327.219142,189.81508 326.869622,189.61535 326.869622,187.37215 L326.869622,166.98175 L317.197782,168.07838 L317.197782,169.67433 L318.991602,169.92399 C319.990222,170.07193 320.339742,170.42145 320.339742,172.31698 L320.339742,183.08362 C320.339742,184.13217 320.239842,185.32682 319.938442,185.97593 C319.241252,187.52194 317.497362,188.86639 315.204232,188.86639 C312.611512,188.86639 310.767752,187.17243 310.767752,183.28334 L310.767752,166.98175 L301.095912,168.07838 L301.095912,169.67433 L302.889732,169.92399 C303.888352,170.07193 304.236022,170.42145 304.236022,172.31698 L304.236022,184.82936 C304.236022,190.61213 307.775582,192.30609 311.415012,192.30609 C315.653612,192.30609 318.544072,189.81508 320.339742,188.86639 L320.787272,191.70876 L320.787272,191.70876 Z M347.550362,167.28134 L341.965472,167.28134 L341.965472,160.99926 L339.572482,160.99926 L335.635312,167.28134 L332.295472,167.28134 L332.295472,169.57447 L335.435592,169.57447 L335.435592,186.12572 C335.435592,190.86178 338.975152,192.30609 341.368152,192.30609 C343.611352,192.30609 346.451882,191.2113 348.745012,189.76515 L348.247552,188.41885 C347.350642,188.76652 346.303932,188.9681 345.155522,188.9681 C343.361702,188.9681 341.965472,187.62181 341.965472,184.23019 L341.965472,169.57447 L347.550362,169.57447 L347.550362,167.28134 L347.550362,167.28134 Z M363.101142,192.30609 C371.826152,192.30609 375.665302,187.52194 375.665302,179.49597 C375.665302,171.46815 371.826152,166.68401 363.101142,166.68401 C354.426072,166.68401 350.588772,171.46815 350.588772,179.49597 C350.588772,187.52194 354.426072,192.30609 363.101142,192.30609 Z M363.101142,190.21268 C359.261992,190.21268 357.568032,186.22558 357.568032,179.49597 C357.568032,172.76452 359.261992,168.77742 363.101142,168.77742 C366.990222,168.77742 368.684182,172.76452 368.684182,179.49597 C368.684182,186.22558 366.990222,190.21268 363.101142,190.21268 Z M365.793732,165.68539 L366.740572,164.34095 L360.010962,157.46154 C358.265222,155.66587 357.418242,155.11663 356.471402,155.11663 C355.424692,155.11663 354.078402,156.66265 354.078402,157.80921 C354.078402,159.00571 355.574482,159.95255 357.268442,160.90125 L365.793732,165.68539 L365.793732,165.68539 Z M378.994042,191.70876 L391.955802,191.70876 L391.955802,189.96302 L390.709372,189.86502 C389.313142,189.76512 388.915542,189.41564 388.915542,187.57188 L388.915542,175.85656 C388.915542,174.66006 389.013542,173.71322 389.413012,172.96425 C390.210062,171.41823 391.855932,170.12372 394.149072,170.12372 C396.939662,170.12372 398.535612,171.7696 398.535612,175.25738 L398.535612,187.57188 C398.535612,189.41564 398.138012,189.76516 396.791722,189.86502 L395.495362,189.96302 L395.495362,191.70876 L408.505202,191.70876 L408.505202,189.96302 C405.415012,189.81508 405.065502,189.61535 405.065502,187.37215 L405.065502,174.46033 C405.065502,169.6244 402.574492,166.68401 397.588772,166.68401 C394.446812,166.68401 392.105592,168.27811 388.915542,170.27351 L388.216512,166.68401 L379.243702,168.07838 L379.243702,169.67433 L381.087452,169.92399 C382.034292,170.07193 382.383812,170.42145 382.383812,172.31698 L382.383812,187.37215 C382.383812,189.61535 382.084222,189.81508 378.994042,189.96302 L378.994042,191.70876 L378.994042,191.70876 Z M423.508582,192.30609 C432.231742,192.30609 436.070892,187.52194 436.070892,179.49597 C436.070892,171.46815 432.231742,166.68401 423.508582,166.68401 C414.833512,166.68401 410.996212,171.46815 410.996212,179.49597 C410.996212,187.52194 414.833512,192.30609 423.508582,192.30609 Z M423.508582,190.21268 C419.669432,190.21268 417.975472,186.22558 417.975472,179.49597 C417.975472,172.76452 419.669432,168.77742 423.508582,168.77742 C427.395812,168.77742 429.091622,172.76452 429.091622,179.49597 C429.091622,186.22558 427.395812,190.21268 423.508582,190.21268 Z M468.165522,189.96302 L466.919092,189.86502 C465.522872,189.76512 465.125272,189.36571 465.125272,187.57188 L465.125272,176.15614 C465.125272,175.20745 465.173372,174.31054 465.373072,173.66329 C466.072112,171.3683 467.915862,170.12372 470.059202,170.12372 C472.701862,170.12372 474.397672,171.81768 474.397672,175.40718 L474.397672,187.57188 C474.397672,189.41564 473.998222,189.76516 472.651932,189.86502 L471.355572,189.96302 L471.355572,191.70876 L484.367252,191.70876 L484.367252,189.96302 C481.275222,189.81508 480.927552,189.61535 480.927552,187.37215 L480.927552,174.46033 C480.927552,169.6244 478.384762,166.68401 473.251102,166.68401 C469.559892,166.68401 466.521492,169.12509 464.526092,170.47138 C463.379532,168.47783 461.435912,166.68401 457.746552,166.68401 C454.306852,166.68401 451.714132,168.77742 449.321142,170.27351 L448.623952,166.68401 L439.649292,168.07838 L439.649292,169.67433 L441.494892,169.92399 C442.441732,170.07193 442.791252,170.42145 442.791252,172.31698 L442.791252,187.37215 C442.791252,189.61535 442.491662,189.81508 439.401482,189.96302 L439.401482,191.70876 L452.361392,191.70876 L452.361392,189.96302 L451.116812,189.86502 C449.720582,189.76512 449.321142,189.41564 449.321142,187.57188 L449.321142,176.15614 C449.321142,175.20745 449.371042,174.4104 449.620722,173.71322 C450.317912,171.46816 452.261532,170.12372 454.556512,170.12372 C457.646692,170.12372 458.593532,172.46679 458.593532,175.40718 L458.593532,187.57188 C458.593532,189.41564 458.194092,189.76516 456.797862,189.86502 L455.553282,189.96302 L455.553282,191.70876 L468.165522,191.70876 L468.165522,189.96302 L468.165522,189.96302 Z M512.036502,189.31577 C511.339322,189.41567 510.340692,189.36567 509.593582,189.16597 C508.844612,188.9681 507.949552,188.26906 507.949552,185.22881 L507.949552,173.76129 C507.949552,170.67111 507.300442,166.68401 498.974892,166.68401 C492.295212,166.68401 487.858732,169.57447 487.858732,172.66465 C487.858732,174.66005 490.549472,175.50703 491.646102,175.50703 C492.694662,175.50703 493.242052,174.80799 493.591572,173.71321 C494.887932,169.67433 496.631822,168.77742 498.277702,168.77742 C499.873652,168.77742 501.617542,169.67433 501.617542,172.91431 L501.617542,175.50703 C499.274472,176.85332 495.635052,177.90003 492.345142,178.94673 C488.356202,180.24309 487.109772,182.3365 487.109772,185.12895 C487.109772,188.91632 489.702492,192.30609 494.588342,192.30609 C497.630442,192.30609 500.021592,190.51226 501.717402,189.3657 C502.414592,191.01158 503.213492,192.30609 505.404912,192.30609 C507.699892,192.30609 510.490492,191.55897 512.236232,190.81185 L512.036502,189.31577 L512.036502,189.31577 Z M501.617542,184.87929 C501.567642,188.01941 499.374342,188.86639 497.828322,188.86639 C495.485252,188.86639 493.839382,187.12249 493.839382,184.33005 C493.839382,181.93705 494.738142,180.84042 496.731682,179.89357 C498.575442,178.99666 500.470972,178.34756 501.617542,177.75023 L501.617542,184.87929 L501.617542,184.87929 Z" id="path5201"></path>
        </g>
    </g>
</svg>