<?xml version="1.0" encoding="UTF-8"?>
<svg width="328px" height="112px" viewBox="0 0 328 112" version="1.1" xmlns="http://www.w3.org/2000/svg" xmlns:xlink="http://www.w3.org/1999/xlink">
    <!-- Generator: Sketch 60.1 (88133) - https://sketch.com -->
    <title>Group 18</title>
    <desc>Created with Sketch.</desc>
    <g id="Page-1" stroke="none" stroke-width="1" fill="none" fill-rule="evenodd">
        <g id="Desktop-HD" transform="translate(-566.000000, -544.000000)" fill="#FFFFFF">
            <g id="Group-18" transform="translate(566.000000, 544.000000)">
                <path d="M92.896,27.4162 C93.869,27.0982 94.519,26.4202 94.519,25.5022 C94.519,22.0492 90.796,18.9502 86.543,18.9502 C59.948,18.9502 29.064,76.8192 20.013,85.8702 C18.796,87.0872 16.507,86.7782 16.507,84.1982 C16.507,76.3112 21.821,61.0692 28.153,48.8252 C29.865,45.5172 18.366,39.2552 15.07,42.5512 C9.515,48.1062 0.56,77.1392 0.56,97.8892 C0.56,105.6762 7.913,111.1972 13.423,111.1972 C15.761,111.1972 16.728,110.8192 17.927,109.6202 C23.703,103.8442 37.387,75.1832 67.141,45.4292 C78.384,34.1872 86.999,29.3462 92.896,27.4162" id="Fill-1"></path>
                <path d="M139.1099,48.966 C145.4849,48.966 135.2979,64.152 127.4229,64.152 C125.1919,64.152 123.7109,63.575 122.7299,62.901 C126.4619,55.401 135.0629,48.966 139.1099,48.966 M191.8829,19.259 C194.0339,19.259 183.4119,41.82 167.2799,59.365 C173.0559,38.705 189.4199,19.259 191.8829,19.259 M89.4249,95.675 C94.2769,95.675 103.4969,88.444 109.2929,81.436 C112.3019,90.071 120.3209,93.497 128.2309,93.497 C136.3349,93.497 144.5549,90.359 152.4239,85.32 C153.8949,98.671 164.0599,107.967 176.1329,107.967 C188.3829,107.967 190.3829,103.092 190.3829,101.592 C190.3829,100.092 189.7579,99.842 185.2579,99.842 C174.6089,99.842 166.2049,88.864 165.3369,75.182 C186.1219,55.872 201.9119,26.791 201.9119,16.028 C201.9119,10.945 199.1499,9.092 195.1329,9.092 C179.3719,9.092 156.8109,39.476 152.8459,72.147 C146.1289,76.726 138.9549,79.665 131.6639,79.665 C124.8989,79.665 121.3689,77.278 120.9769,70.956 C122.9169,72.234 125.3839,73.085 127.9359,73.085 C139.7849,73.085 150.4159,59.966 150.4159,51.144 C150.4159,45.487 145.5469,39.903 138.7979,39.903 C122.5089,39.903 109.5959,57.25 108.1819,71.022 C105.3809,73.532 99.2679,78.749 96.7989,78.749 C96.0489,78.749 95.4659,78.166 95.4659,76.916 C95.4659,66.416 107.2579,51.086 107.2579,49.675 C107.2579,46.509 104.3419,43.425 101.0079,43.425 C99.6749,43.425 98.2169,43.8 96.9249,45.092 C95.6329,46.384 69.8649,80.978 63.3859,80.978 C62.4689,80.978 62.0659,80.445 62.0659,79.695 C62.0659,74.549 75.6209,58.82 75.6209,58.136 C75.6209,56.002 72.3079,52.936 69.7879,52.936 C65.3709,52.936 46.7579,79.675 46.7579,88.675 C46.7579,93.925 52.5079,98.009 56.0079,98.009 C63.2579,98.009 81.1329,79.03 81.1329,79.03 C81.1329,79.03 79.9819,82.842 79.9819,86.199 C79.9819,91.699 84.6749,95.675 89.4249,95.675" id="Fill-3"></path>
                <path d="M200.5083,73.4045 C198.0083,73.4045 196.3833,71.0295 196.3833,68.6545 C196.3833,61.7065 202.6603,52.3815 209.9503,47.5925 C210.5423,47.5465 211.1473,47.5115 211.7813,47.5115 C215.0313,47.5115 218.4243,49.6365 218.4243,53.0115 C218.4243,61.4765 206.1333,73.4045 200.5083,73.4045 M230.1653,43.0925 C230.1653,38.7165 224.9153,34.9665 219.4153,34.9665 C200.1653,34.9665 183.8633,58.6595 183.8633,70.7195 C183.8633,81.7375 190.7813,88.3765 198.5313,88.3765 C211.1563,88.3765 229.4153,69.9475 229.4153,55.6445 C229.4153,50.6505 228.3303,47.3905 226.6773,45.2565 C227.0633,45.3045 227.4093,45.3425 227.6653,45.3425 C229.0403,45.3425 230.1653,44.2175 230.1653,43.0925" id="Fill-5"></path>
                <path d="M247.0151,85.7405 C247.1701,76.9605 268.0911,28.8955 268.0911,26.1555 C268.0911,24.9325 266.9681,23.7655 265.0121,23.1005 C268.4661,22.8055 272.2291,22.4285 276.0411,21.9875 C273.9661,24.5285 261.8331,59.9845 261.8331,77.0935 C261.8331,78.6275 263.0661,80.9705 264.8991,83.0275 C259.0291,83.7635 252.8521,84.6785 247.0151,85.7405 M320.0551,0.4995 C318.3091,0.4995 317.7741,0.9785 317.7741,1.7495 C317.7741,7.5895 284.8121,63.3435 276.4461,63.3435 C275.7241,63.3435 275.4901,62.8145 275.4901,61.9835 C275.4901,54.7275 282.6941,34.2305 286.4181,25.3115 C286.9641,24.0045 285.5871,22.1245 283.5681,21.0325 C294.4681,19.5175 304.2461,17.5375 306.3181,15.4665 C307.9691,13.8155 308.6611,11.2605 308.6611,10.0685 C308.6611,7.8035 307.2241,7.0435 305.1431,7.0435 C301.4751,7.0435 269.7521,13.2915 246.7401,13.2915 C244.0241,13.2915 243.5981,12.6945 241.8831,12.6945 C240.4421,12.6945 240.1041,14.0735 240.1041,15.4825 C240.1041,18.1505 242.2181,23.8335 252.0331,23.8335 C253.1121,23.8335 254.4681,23.7935 256.0251,23.7195 C254.6601,24.4605 253.8411,25.4475 253.8411,26.4055 C253.8411,34.5305 234.5111,75.6545 234.5111,81.6545 C234.5111,83.7135 236.5771,85.9155 239.0291,87.3465 C228.0841,89.7905 219.8431,92.7935 219.8431,96.1045 C219.8431,97.7765 220.4151,99.3525 221.5301,99.3525 C224.3561,99.3525 248.1061,92.2685 288.3191,92.2685 C292.6191,92.2685 294.7311,91.9405 294.7311,89.0255 C294.7311,84.9465 292.6921,80.9695 289.7051,80.9695 C287.3341,80.9695 283.8001,81.1515 279.5651,81.4965 C294.8261,65.0535 327.5501,18.7005 327.5501,8.1765 C327.5501,3.6765 323.8301,0.4995 320.0551,0.4995" id="Fill-7"></path>
            </g>
        </g>
    </g>
</svg>