<?xml version="1.0" encoding="UTF-8" standalone="no"?>
<svg width="142px" height="113px" viewBox="0 0 142 113" version="1.1" xmlns="http://www.w3.org/2000/svg" xmlns:xlink="http://www.w3.org/1999/xlink">
    <!-- Generator: Sketch 48.1 (47250) - http://www.bohemiancoding.com/sketch -->
    <title>wok-to-walk</title>
    <desc>Created with Sketch.</desc>
    <defs>
        <polygon id="path-1" points="0 0.29985974 141.815953 0.29985974 141.815953 112.471377 0 112.471377"></polygon>
    </defs>
    <g id="Page-1" stroke="none" stroke-width="1" fill="none" fill-rule="evenodd">
        <g id="wok-to-walk">
            <g>
                <g id="Group-10">
                    <mask id="mask-2" fill="white">
                        <use xlink:href="#path-1"></use>
                    </mask>
                    <g id="Clip-2"></g>
                    <path d="M14.7971377,74.8694078 L0.571688312,74.8694078 C0.27772987,74.8694078 0.0394649351,75.1084104 0.0394649351,75.4038442 L0.0394649351,82.807761 C0.0394649351,83.1017195 0.27772987,83.3418286 0.571688312,83.3418286 L3.45004675,83.3418286 L3.44119481,111.948005 C3.44119481,112.244177 3.67945974,112.483548 3.97489351,112.483548 L11.3784416,112.483548 C11.6735065,112.483548 11.9136156,112.244177 11.9136156,111.948005 L11.9169351,83.3418286 L14.7971377,83.3418286 C15.0925714,83.3418286 15.3326805,83.1017195 15.3326805,82.807761 L15.3326805,75.4038442 C15.3326805,75.1084104 15.0925714,74.8694078 14.7971377,74.8694078" id="Fill-1" fill="#FAFAFA" mask="url(#mask-2)"></path>
                    <path d="M37.5241455,74.8694078 L18.7904727,74.8694078 C18.4957766,74.8694078 18.2582494,75.1069351 18.2582494,75.4005247 L18.2582494,111.960914 C18.2582494,112.254504 18.4961455,112.493506 18.7904727,112.493506 L37.5241455,112.493506 C37.8169974,112.493506 38.0548935,112.254504 38.0548935,111.960914 L38.0548935,75.4005247 C38.0548935,75.1069351 37.8169974,74.8694078 37.5241455,74.8694078 M26.6816156,104.061657 L26.6812468,83.2909299 L29.6333714,83.2909299 L29.6333714,104.061657 L26.6816156,104.061657" id="Fill-3" fill="#FAFAFA" mask="url(#mask-2)"></path>
                    <path d="M118.42173,104.01039 L113.950021,104.01039 L113.950021,75.404213 C113.950021,75.1087792 113.710649,74.8694078 113.416322,74.8694078 L106.012405,74.8694078 C105.717709,74.8694078 105.477231,75.1087792 105.477231,75.404213 L105.4776,111.948005 C105.4776,112.243439 105.716234,112.483548 106.012405,112.483548 L118.42173,112.483548 C118.715319,112.483548 118.955429,112.243439 118.955429,111.948005 L118.955429,104.544088 C118.955429,104.249392 118.715319,104.01039 118.42173,104.01039" id="Fill-4" fill="#FAFAFA" mask="url(#mask-2)"></path>
                    <path d="M101.963008,74.8694078 L83.2285974,74.8694078 C82.934639,74.8694078 82.6978494,75.1069351 82.6978494,75.4005247 L82.6982182,111.960914 C82.6982182,112.254504 82.9350078,112.493506 83.2285974,112.493506 L90.5886234,112.493506 C90.8825818,112.493506 91.1204779,112.254504 91.1204779,111.960914 L91.1204779,103.838145 L94.0722338,103.838145 L94.0722338,111.960914 C94.0722338,112.254504 94.3090234,112.493506 94.602613,112.493506 L101.963008,112.493506 C102.25586,112.493506 102.493756,112.254504 102.493756,111.960914 L102.493756,75.4005247 C102.493756,75.1069351 102.25586,74.8694078 101.963008,74.8694078 Z M91.1204779,95.4166234 L94.0722338,95.4166234 L94.0722338,83.2916675 L91.1204779,83.2916675 L91.1204779,95.4166234 Z" id="Fill-5" fill="#FAFAFA" mask="url(#mask-2)"></path>
                    <path d="M79.1887896,74.8694078 L71.8283948,74.8694078 C71.5366494,74.8694078 71.2972779,75.1069351 71.2972779,75.4005247 L71.2972779,104.061657 L69.8234286,104.061657 C69.8101506,104.061657 69.7979792,104.065345 69.785439,104.066083 C68.9865506,104.045429 68.3410961,103.392597 68.3410961,102.58707 L68.3455221,75.4005247 C68.3455221,75.1069351 68.1083636,74.8694078 67.814774,74.8694078 L60.4543792,74.8694078 C60.1615273,74.8694078 59.9236312,75.1069351 59.9236312,75.4005247 L59.9276883,102.58707 C59.9276883,103.392597 59.2822338,104.045429 58.4826078,104.066083 C58.4696987,104.064977 58.4578961,104.061657 58.444987,104.061657 L56.9711377,104.061657 L56.9711377,75.4005247 C56.9711377,75.1069351 56.7339792,74.8694078 56.4396519,74.8694078 L49.0799948,74.8694078 C48.7864052,74.8694078 48.5485091,75.1069351 48.5485091,75.4005247 L48.5488779,111.9528 L48.5488779,111.960914 C48.5488779,112.254504 48.786774,112.493506 49.0803636,112.493506 L58.444987,112.483548 C60.4890494,112.483548 62.4711481,111.847314 64.1353143,110.670743 C65.7980052,111.847314 67.7793662,112.483548 69.8234286,112.483548 L79.1891584,112.483548 C79.4816416,112.483548 79.7202753,112.247496 79.7202753,111.9528 L79.7202753,75.4005247 C79.7202753,75.1069351 79.4816416,74.8694078 79.1887896,74.8694078" id="Fill-6" fill="#FAFAFA" mask="url(#mask-2)"></path>
                    <path d="M141.235782,74.8694078 L133.831496,74.8694078 C133.537169,74.8694078 133.295953,75.1084104 133.295953,75.4038442 L133.304436,79.2190338 C133.304436,82.329387 132.205319,85.1859844 130.330919,87.1747221 L130.330919,75.4038442 C130.330919,75.1084104 130.091917,74.8694078 129.795377,74.8694078 L122.39146,74.8694078 C122.097132,74.8694078 121.858499,75.1084104 121.858499,75.4038442 L121.858499,111.947636 C121.858499,112.244177 122.097132,112.483179 122.391829,112.483179 L129.795745,112.483179 C130.091917,112.483179 130.330919,112.244177 130.330919,111.947636 L130.330919,100.176021 C132.205319,102.165496 133.304805,105.0232 133.304805,108.132816 L133.296322,111.947636 C133.296322,112.244177 133.537538,112.483179 133.831496,112.483179 L141.235782,112.483179 C141.530109,112.483179 141.769481,112.244177 141.769481,111.947636 L141.769481,108.132816 C141.769481,102.576005 139.547642,97.291761 135.759745,93.6753714 C139.549117,90.058613 141.769481,84.774 141.769481,79.2190338 L141.769481,75.4038442 C141.769481,75.1084104 141.530109,74.8694078 141.235782,74.8694078" id="Fill-7" fill="#FAFAFA" mask="url(#mask-2)"></path>
                    <path d="M140.830436,0.29985974 L127.161553,0.29985974 C126.618265,0.29985974 126.173455,0.741719481 126.173455,1.28685195 L126.188577,8.33005195 C126.188577,14.0720156 124.160005,19.3451948 120.699262,23.0172779 L120.699262,1.28685195 C120.699262,0.741719481 120.257771,0.29985974 119.710426,0.29985974 L106.042281,0.29985974 C105.498255,0.29985974 105.058239,0.741719481 105.058239,1.28685195 L105.058608,68.7504987 C105.058608,69.2974753 105.498623,69.7393351 106.042649,69.7393351 L119.710795,69.7393351 C120.257771,69.7393351 120.699262,69.2974753 120.699262,68.7504987 L120.699262,47.0185974 C124.160005,50.6910494 126.188945,55.9671792 126.188945,61.7076675 L126.173455,68.7504987 C126.173455,69.2974753 126.618265,69.7393351 127.161922,69.7393351 L140.830436,69.7393351 C141.374462,69.7393351 141.815953,69.2974753 141.815953,68.7504987 L141.815953,61.7076675 C141.815953,51.4493662 137.714182,41.6937818 130.721512,35.0183065 C137.717132,28.3406182 141.815953,18.5850338 141.815953,8.33005195 L141.815953,1.28685195 C141.815953,0.741719481 141.374094,0.29985974 140.830436,0.29985974" id="Fill-8" fill="#FAFAFA" mask="url(#mask-2)"></path>
                    <path d="M56.5646857,0.29985974 L42.9765766,0.29985974 C42.4377143,0.29985974 41.9958545,0.739137662 41.9958545,1.28095065 L41.9958545,54.1919948 L39.274987,54.1919948 C39.2506442,54.1919948 39.2281455,54.1982649 39.2052779,54.1997403 C37.7303221,54.1617506 36.5389974,52.9564104 36.5389974,51.4696519 L36.546374,1.28095065 C36.546374,0.739137662 36.1089403,0.29985974 35.5667584,0.29985974 L21.9790182,0.29985974 C21.4383117,0.29985974 20.9994026,0.739137662 20.9994026,1.28095065 L21.0071481,51.4696519 C21.0071481,52.9564104 19.8154545,54.1617506 18.3393922,54.1997403 C18.3150494,54.1982649 18.294026,54.1919948 18.2696831,54.1919948 L15.5488156,54.1919948 L15.5484468,1.28095065 C15.5484468,0.739137662 15.111013,0.29985974 14.5673558,0.29985974 L0.981090909,0.29985974 C0.438909091,0.29985974 0,0.739137662 0,1.28095065 L0,68.7748416 C0,69.3166545 0.439277922,69.7574078 0.98145974,69.7574078 L18.2696831,69.7393351 C22.042826,69.7393351 25.7023688,68.564239 28.7747325,66.3929299 C31.8437766,68.564239 35.5018442,69.7393351 39.274987,69.7393351 L56.5646857,69.7393351 C57.1053922,69.7393351 57.5457766,69.3030078 57.5457766,68.7597195 L57.5457766,1.28095065 C57.5457766,0.739137662 57.1050234,0.29985974 56.5646857,0.29985974" id="Fill-9" fill="#FAFAFA" mask="url(#mask-2)"></path>
                </g>
                <path d="M98.5671792,0.29985974 L63.9818805,0.29985974 C63.441174,0.29985974 63.0018961,0.739137662 63.0018961,1.28095065 L63.0022649,68.7748416 C63.0022649,69.3166545 63.441174,69.7574078 63.9818805,69.7574078 L98.5671792,69.7574078 C99.109361,69.7574078 99.5482701,69.3166545 99.5482701,68.7748416 L99.5482701,1.28095065 C99.5482701,0.739137662 99.109361,0.29985974 98.5671792,0.29985974 M78.552187,54.1919948 L78.5518182,15.8472 L83.9983481,15.8472 L83.9983481,54.1919948 L78.552187,54.1919948" id="Fill-11" fill="#FAFAFA"></path>
            </g>
        </g>
    </g>
</svg>