<?xml version="1.0" encoding="UTF-8" standalone="no"?>
<svg width="30px" height="30px" viewBox="0 0 30 30" version="1.1" xmlns="http://www.w3.org/2000/svg" xmlns:xlink="http://www.w3.org/1999/xlink">
    <!-- Generator: Sketch 48.1 (47250) - http://www.bohemiancoding.com/sketch -->
    <title>Icon / Chevron Left</title>
    <desc>Created with Sketch.</desc>
    <defs></defs>
    <g id="home" stroke="none" stroke-width="1" fill="none" fill-rule="evenodd" transform="translate(-158.000000, -2831.000000)">
        <g id="Testimonials---06" transform="translate(0.000000, 2566.000000)" fill="#000000">
            <g id="Controls" transform="translate(158.000000, 265.000000)">
                <g id="arrow-left">
                    <g id="arrow-left-inverse" transform="translate(15.000000, 15.000000) rotate(180.000000) translate(-15.000000, -15.000000) ">
                        <path d="M19.4716312,15.7092199 L13.1613475,22.0248227 C12.856383,22.3315603 12.3617021,22.3368794 12.0531915,22.0248227 C11.7464539,21.7180851 11.7464539,21.2251773 12.0531915,20.9184397 L17.8120567,15.1560284 L11.7393617,9.08156028 C11.4326241,8.7748227 11.4326241,8.28014184 11.7393617,7.9751773 C12.0443262,7.66489362 12.5390071,7.66489362 12.8457447,7.9751773 L19.4734043,14.5992908 C19.7783688,14.9060284 19.7783688,15.4042553 19.4716312,15.7092199 M29.9042553,15 C29.9042553,23.2340426 23.2304965,29.9042553 15,29.9042553 C6.76595745,29.9042553 0.0957446809,23.2322695 0.0957446809,15 C0.0957446809,6.7677305 6.76595745,0.0957446809 15,0.0957446809 C23.2322695,0.0957446809 29.9042553,6.76595745 29.9042553,15 M28.3351064,15 C28.3351064,7.64539007 22.3528369,1.66489362 15,1.66489362 C7.64539007,1.66489362 1.66489362,7.64716312 1.66489362,15 C1.66489362,22.3528369 7.64716312,28.3351064 15,28.3351064 C22.3528369,28.3351064 28.3351064,22.3528369 28.3351064,15" id="Shape" fill-rule="nonzero"></path>
                    </g>
                </g>
            </g>
        </g>
    </g>
</svg>